<svg xmlns="http://www.w3.org/2000/svg" xmlns:xlink="http://www.w3.org/1999/xlink" width="1080" zoomAndPan="magnify" viewBox="0 0 810 809.999993" height="1080" preserveAspectRatio="xMidYMid meet" version="1.0"><path fill="#ffffff" d="M 759.375 279.164062 C 759.21875 284.609375 758.804688 290.039062 758.132812 295.445312 C 757.460938 300.851562 756.535156 306.214844 755.351562 311.53125 C 754.171875 316.851562 752.742188 322.101562 751.0625 327.285156 C 749.382812 332.46875 747.460938 337.558594 745.300781 342.558594 C 743.136719 347.558594 740.742188 352.449219 738.117188 357.222656 C 735.492188 361.996094 732.644531 366.632812 729.578125 371.136719 C 726.511719 375.640625 723.238281 379.988281 719.757812 384.179688 C 716.28125 388.371094 712.609375 392.390625 708.75 396.234375 L 598.796875 506.25 C 594.804688 510.265625 590.625 514.074219 586.253906 517.675781 C 581.882812 521.277344 577.34375 524.65625 572.640625 527.808594 C 567.933594 530.960938 563.085938 533.875 558.09375 536.546875 C 553.101562 539.21875 547.988281 541.640625 542.757812 543.804688 C 537.523438 545.972656 532.199219 547.878906 526.777344 549.515625 C 521.355469 551.15625 515.867188 552.527344 510.3125 553.621094 C 504.753906 554.71875 499.160156 555.539062 493.523438 556.082031 C 487.882812 556.625 482.234375 556.890625 476.570312 556.875 L 476.414062 556.875 C 473.535156 556.871094 470.660156 556.800781 467.785156 556.652344 C 464.910156 556.507812 462.039062 556.289062 459.175781 556 C 456.3125 555.710938 453.460938 555.351562 450.613281 554.921875 C 447.769531 554.488281 444.933594 553.988281 442.113281 553.414062 C 439.292969 552.839844 436.488281 552.195312 433.703125 551.484375 C 430.914062 550.769531 428.144531 549.988281 425.394531 549.136719 C 422.644531 548.285156 419.921875 547.367188 417.214844 546.378906 C 414.511719 545.390625 411.835938 544.335938 409.1875 543.214844 C 406.535156 542.09375 403.914062 540.90625 401.324219 539.652344 C 398.730469 538.402344 396.171875 537.085938 393.648438 535.707031 C 391.121094 534.324219 388.632812 532.882812 386.179688 531.378906 C 383.726562 529.875 381.3125 528.308594 378.9375 526.683594 C 376.558594 525.058594 374.226562 523.375 371.9375 521.632812 C 369.644531 519.894531 367.398438 518.09375 365.195312 516.242188 C 362.996094 514.386719 360.839844 512.480469 358.734375 510.519531 C 356.628906 508.558594 354.574219 506.542969 352.566406 504.480469 C 350.5625 502.417969 348.609375 500.304688 346.707031 498.140625 C 344.808594 495.980469 342.964844 493.773438 341.171875 491.519531 C 339.382812 489.265625 337.652344 486.96875 335.976562 484.628906 C 334.300781 482.285156 332.683594 479.90625 331.128906 477.484375 C 329.574219 475.0625 328.078125 472.605469 326.644531 470.109375 C 325.210938 467.613281 323.839844 465.085938 322.535156 462.519531 C 321.226562 459.957031 319.984375 457.359375 318.808594 454.734375 C 317.628906 452.109375 316.519531 449.453125 315.472656 446.773438 C 314.429688 444.089844 313.453125 441.382812 312.542969 438.652344 C 311.632812 435.921875 310.792969 433.171875 310.019531 430.398438 C 309.246094 427.628906 308.546875 424.835938 307.914062 422.03125 C 307.28125 419.222656 306.71875 416.398438 306.226562 413.5625 C 305.734375 410.730469 305.3125 407.882812 304.964844 405.027344 C 304.613281 402.167969 304.335938 399.304688 304.128906 396.433594 C 303.921875 393.5625 303.785156 390.691406 303.722656 387.8125 C 303.660156 384.933594 303.667969 382.058594 303.75 379.179688 C 303.773438 378.351562 303.835938 377.527344 303.941406 376.703125 C 304.046875 375.882812 304.191406 375.066406 304.375 374.257812 C 304.5625 373.449219 304.785156 372.652344 305.046875 371.867188 C 305.3125 371.078125 305.613281 370.308594 305.953125 369.550781 C 306.289062 368.792969 306.664062 368.054688 307.078125 367.335938 C 307.488281 366.617188 307.933594 365.917969 308.414062 365.242188 C 308.894531 364.566406 309.40625 363.914062 309.949219 363.289062 C 310.496094 362.664062 311.066406 362.066406 311.671875 361.496094 C 312.273438 360.925781 312.902344 360.390625 313.558594 359.882812 C 314.214844 359.375 314.890625 358.898438 315.59375 358.457031 C 316.296875 358.015625 317.019531 357.613281 317.761719 357.242188 C 318.503906 356.871094 319.261719 356.539062 320.035156 356.242188 C 320.808594 355.949219 321.597656 355.691406 322.398438 355.472656 C 323.195312 355.253906 324.007812 355.074219 324.824219 354.9375 C 325.640625 354.796875 326.464844 354.699219 327.289062 354.640625 C 328.117188 354.582031 328.945312 354.566406 329.773438 354.589844 C 330.601562 354.613281 331.429688 354.675781 332.25 354.78125 C 333.074219 354.886719 333.890625 355.03125 334.699219 355.214844 C 335.507812 355.398438 336.304688 355.621094 337.089844 355.886719 C 337.875 356.148438 338.648438 356.449219 339.40625 356.789062 C 340.160156 357.125 340.898438 357.5 341.621094 357.914062 C 342.339844 358.324219 343.039062 358.769531 343.714844 359.25 C 344.390625 359.730469 345.042969 360.242188 345.667969 360.785156 C 346.292969 361.328125 346.890625 361.902344 347.460938 362.503906 C 348.03125 363.105469 348.570312 363.734375 349.078125 364.390625 C 349.585938 365.046875 350.058594 365.722656 350.5 366.425781 C 350.941406 367.128906 351.347656 367.851562 351.71875 368.59375 C 352.089844 369.335938 352.421875 370.09375 352.71875 370.867188 C 353.015625 371.640625 353.269531 372.429688 353.488281 373.226562 C 353.707031 374.027344 353.886719 374.835938 354.027344 375.65625 C 354.164062 376.472656 354.265625 377.292969 354.320312 378.121094 C 354.378906 378.949219 354.398438 379.777344 354.375 380.605469 C 354.316406 382.640625 354.3125 384.671875 354.355469 386.707031 C 354.398438 388.742188 354.496094 390.773438 354.640625 392.804688 C 354.785156 394.835938 354.980469 396.859375 355.230469 398.878906 C 355.476562 400.898438 355.773438 402.910156 356.121094 404.917969 C 356.46875 406.921875 356.863281 408.917969 357.3125 410.902344 C 357.757812 412.886719 358.253906 414.859375 358.800781 416.820312 C 359.347656 418.78125 359.941406 420.726562 360.585938 422.65625 C 361.226562 424.589844 361.917969 426.5 362.65625 428.398438 C 363.394531 430.292969 364.179688 432.171875 365.011719 434.027344 C 365.84375 435.882812 366.722656 437.71875 367.648438 439.53125 C 368.570312 441.347656 369.539062 443.136719 370.550781 444.898438 C 371.566406 446.664062 372.621094 448.402344 373.722656 450.113281 C 374.824219 451.828125 375.964844 453.511719 377.148438 455.164062 C 378.332031 456.820312 379.558594 458.445312 380.824219 460.039062 C 382.089844 461.632812 383.394531 463.191406 384.738281 464.722656 C 386.078125 466.25 387.460938 467.742188 388.878906 469.203125 C 390.296875 470.664062 391.75 472.085938 393.238281 473.472656 C 394.730469 474.859375 396.25 476.210938 397.808594 477.519531 C 399.363281 478.832031 400.953125 480.101562 402.574219 481.332031 C 404.191406 482.566406 405.84375 483.753906 407.523438 484.90625 C 409.203125 486.054688 410.910156 487.160156 412.644531 488.222656 C 414.378906 489.289062 416.136719 490.308594 417.925781 491.285156 C 419.710938 492.257812 421.519531 493.191406 423.351562 494.074219 C 425.183594 494.960938 427.035156 495.800781 428.910156 496.59375 C 430.785156 497.386719 432.675781 498.132812 434.589844 498.828125 C 436.5 499.527344 438.429688 500.179688 440.371094 500.78125 C 442.316406 501.382812 444.273438 501.933594 446.246094 502.441406 C 448.214844 502.945312 450.199219 503.398438 452.195312 503.804688 C 454.1875 504.207031 456.191406 504.5625 458.203125 504.867188 C 460.214844 505.175781 462.234375 505.429688 464.257812 505.632812 C 466.28125 505.835938 468.3125 505.992188 470.34375 506.09375 C 472.375 506.195312 474.410156 506.25 476.445312 506.25 C 480.449219 506.261719 484.441406 506.074219 488.425781 505.6875 C 492.414062 505.304688 496.367188 504.722656 500.296875 503.949219 C 504.222656 503.171875 508.105469 502.203125 511.9375 501.042969 C 515.769531 499.886719 519.53125 498.539062 523.230469 497.007812 C 526.929688 495.476562 530.546875 493.765625 534.074219 491.875 C 537.605469 489.988281 541.03125 487.929688 544.359375 485.699219 C 547.683594 483.472656 550.894531 481.085938 553.984375 478.539062 C 557.074219 475.992188 560.03125 473.300781 562.855469 470.464844 L 672.804688 360.511719 C 674.207031 359.09375 675.570312 357.644531 676.898438 356.160156 C 678.230469 354.675781 679.519531 353.160156 680.777344 351.613281 C 682.03125 350.066406 683.246094 348.488281 684.425781 346.878906 C 685.601562 345.273438 686.738281 343.640625 687.839844 341.976562 C 688.9375 340.3125 689.992188 338.625 691.007812 336.910156 C 692.023438 335.195312 692.996094 333.457031 693.925781 331.695312 C 694.855469 329.933594 695.742188 328.152344 696.585938 326.347656 C 697.429688 324.539062 698.226562 322.714844 698.980469 320.871094 C 699.734375 319.027344 700.441406 317.164062 701.105469 315.285156 C 701.769531 313.40625 702.386719 311.515625 702.957031 309.605469 C 703.527344 307.695312 704.046875 305.773438 704.523438 303.839844 C 705 301.90625 705.429688 299.960938 705.8125 298.003906 C 706.191406 296.046875 706.523438 294.085938 706.808594 292.113281 C 707.09375 290.140625 707.332031 288.164062 707.519531 286.179688 C 707.707031 284.195312 707.847656 282.210938 707.9375 280.21875 C 708.03125 278.230469 708.074219 276.238281 708.066406 274.246094 C 708.058594 272.253906 708.003906 270.261719 707.902344 268.273438 C 707.796875 266.28125 707.644531 264.296875 707.445312 262.3125 C 707.246094 260.332031 706.996094 258.355469 706.699219 256.386719 C 706.402344 254.414062 706.054688 252.453125 705.664062 250.5 C 705.269531 248.546875 704.828125 246.605469 704.339844 244.671875 C 703.851562 242.742188 703.316406 240.824219 702.734375 238.917969 C 702.152344 237.011719 701.523438 235.121094 700.847656 233.246094 C 700.175781 231.371094 699.457031 229.515625 698.691406 227.675781 C 697.925781 225.835938 697.113281 224.015625 696.261719 222.21875 C 695.40625 220.417969 694.507812 218.640625 693.566406 216.882812 C 692.625 215.128906 691.640625 213.394531 690.617188 211.6875 C 689.589844 209.980469 688.523438 208.296875 687.414062 206.640625 C 686.308594 204.984375 685.160156 203.359375 683.972656 201.757812 C 682.78125 200.160156 681.558594 198.589844 680.292969 197.050781 C 679.027344 195.511719 677.726562 194.003906 676.386719 192.527344 C 675.050781 191.050781 673.675781 189.609375 672.265625 188.199219 C 670.859375 186.789062 669.417969 185.417969 667.941406 184.078125 C 666.464844 182.742188 664.957031 181.4375 663.417969 180.175781 C 661.878906 178.910156 660.308594 177.683594 658.707031 176.496094 C 657.109375 175.308594 655.480469 174.160156 653.824219 173.050781 C 652.167969 171.945312 650.488281 170.875 648.78125 169.851562 C 647.070312 168.824219 645.339844 167.839844 643.582031 166.898438 C 641.828125 165.957031 640.050781 165.0625 638.25 164.207031 C 636.449219 163.351562 634.628906 162.542969 632.789062 161.777344 C 630.949219 161.011719 629.09375 160.292969 627.21875 159.617188 C 625.34375 158.941406 623.453125 158.3125 621.546875 157.730469 C 619.644531 157.148438 617.726562 156.613281 615.792969 156.125 C 613.863281 155.636719 611.917969 155.199219 609.964844 154.804688 C 608.011719 154.410156 606.050781 154.066406 604.082031 153.769531 C 602.109375 153.472656 600.132812 153.222656 598.152344 153.019531 C 596.171875 152.820312 594.183594 152.667969 592.195312 152.566406 C 590.203125 152.460938 588.214844 152.40625 586.222656 152.398438 C 584.230469 152.394531 582.238281 152.4375 580.246094 152.527344 C 578.257812 152.617188 576.269531 152.757812 574.285156 152.945312 C 572.304688 153.136719 570.324219 153.371094 568.355469 153.65625 C 566.382812 153.941406 564.417969 154.273438 562.460938 154.65625 C 560.507812 155.035156 558.5625 155.464844 556.628906 155.941406 C 554.691406 156.417969 552.769531 156.941406 550.863281 157.511719 C 548.953125 158.082031 547.058594 158.699219 545.179688 159.359375 C 543.300781 160.023438 541.4375 160.730469 539.59375 161.484375 C 537.75 162.238281 535.925781 163.039062 534.121094 163.878906 C 532.316406 164.722656 530.53125 165.609375 528.769531 166.539062 C 527.007812 167.472656 525.269531 168.445312 523.554688 169.460938 C 521.839844 170.472656 520.152344 171.53125 518.492188 172.628906 C 516.828125 173.726562 515.191406 174.863281 513.585938 176.042969 C 511.980469 177.21875 510.402344 178.4375 508.855469 179.691406 C 507.304688 180.945312 505.789062 182.238281 504.304688 183.566406 C 502.820312 184.894531 501.371094 186.261719 499.953125 187.660156 L 465.148438 222.464844 C 464.558594 223.027344 463.941406 223.558594 463.296875 224.0625 C 462.65625 224.5625 461.988281 225.03125 461.300781 225.46875 C 460.613281 225.910156 459.90625 226.3125 459.179688 226.679688 C 458.453125 227.050781 457.710938 227.382812 456.949219 227.679688 C 456.191406 227.980469 455.417969 228.238281 454.632812 228.460938 C 453.851562 228.683594 453.058594 228.871094 452.253906 229.015625 C 451.453125 229.164062 450.644531 229.269531 449.832031 229.335938 C 449.019531 229.40625 448.207031 229.433594 447.390625 229.425781 C 446.574219 229.414062 445.761719 229.363281 444.953125 229.273438 C 444.140625 229.1875 443.335938 229.058594 442.539062 228.890625 C 441.738281 228.726562 440.953125 228.519531 440.171875 228.277344 C 439.394531 228.035156 438.628906 227.753906 437.878906 227.4375 C 437.125 227.121094 436.390625 226.769531 435.675781 226.378906 C 434.957031 225.992188 434.261719 225.570312 433.585938 225.117188 C 432.90625 224.660156 432.253906 224.171875 431.625 223.65625 C 430.996094 223.136719 430.390625 222.589844 429.816406 222.011719 C 429.238281 221.4375 428.691406 220.832031 428.171875 220.203125 C 427.65625 219.574219 427.167969 218.921875 426.714844 218.246094 C 426.257812 217.566406 425.835938 216.871094 425.449219 216.152344 C 425.058594 215.4375 424.707031 214.703125 424.390625 213.949219 C 424.074219 213.199219 423.792969 212.433594 423.550781 211.65625 C 423.308594 210.878906 423.105469 210.089844 422.9375 209.289062 C 422.769531 208.492188 422.640625 207.6875 422.554688 206.878906 C 422.464844 206.066406 422.414062 205.253906 422.402344 204.4375 C 422.394531 203.621094 422.421875 202.808594 422.492188 201.996094 C 422.558594 201.183594 422.667969 200.375 422.8125 199.574219 C 422.957031 198.773438 423.144531 197.976562 423.367188 197.195312 C 423.589844 196.410156 423.847656 195.636719 424.148438 194.878906 C 424.445312 194.121094 424.777344 193.375 425.148438 192.648438 C 425.515625 191.921875 425.921875 191.214844 426.359375 190.527344 C 426.796875 189.839844 427.265625 189.171875 427.769531 188.53125 C 428.269531 187.886719 428.800781 187.269531 429.363281 186.679688 L 464.167969 151.875 C 466.167969 149.875 468.21875 147.921875 470.316406 146.019531 C 472.410156 144.121094 474.554688 142.269531 476.742188 140.476562 C 478.929688 138.679688 481.160156 136.9375 483.433594 135.25 C 485.707031 133.566406 488.019531 131.933594 490.375 130.363281 C 492.726562 128.789062 495.117188 127.273438 497.542969 125.820312 C 499.972656 124.363281 502.433594 122.96875 504.929688 121.632812 C 507.425781 120.300781 509.953125 119.027344 512.511719 117.816406 C 515.070312 116.605469 517.660156 115.460938 520.273438 114.375 C 522.886719 113.292969 525.527344 112.273438 528.191406 111.320312 C 530.859375 110.367188 533.542969 109.480469 536.253906 108.65625 C 538.960938 107.835938 541.6875 107.082031 544.433594 106.390625 C 547.179688 105.703125 549.941406 105.085938 552.71875 104.53125 C 555.492188 103.980469 558.28125 103.496094 561.082031 103.082031 C 563.882812 102.664062 566.691406 102.320312 569.507812 102.042969 C 572.324219 101.765625 575.144531 101.554688 577.972656 101.417969 C 580.800781 101.277344 583.628906 101.207031 586.460938 101.207031 C 589.289062 101.207031 592.117188 101.277344 594.945312 101.417969 C 597.773438 101.554688 600.59375 101.765625 603.410156 102.042969 C 606.226562 102.320312 609.035156 102.664062 611.835938 103.082031 C 614.636719 103.496094 617.425781 103.980469 620.199219 104.53125 C 622.976562 105.085938 625.738281 105.703125 628.484375 106.390625 C 631.230469 107.082031 633.957031 107.835938 636.664062 108.65625 C 639.371094 109.480469 642.058594 110.367188 644.726562 111.320312 C 647.390625 112.273438 650.03125 113.292969 652.644531 114.375 C 655.257812 115.460938 657.847656 116.605469 660.40625 117.816406 C 662.964844 119.027344 665.492188 120.300781 667.988281 121.632812 C 670.484375 122.96875 672.945312 124.363281 675.371094 125.820312 C 677.800781 127.273438 680.191406 128.789062 682.542969 130.363281 C 684.898438 131.933594 687.210938 133.566406 689.484375 135.25 C 691.757812 136.9375 693.988281 138.679688 696.175781 140.476562 C 698.363281 142.269531 700.503906 144.121094 702.601562 146.019531 C 704.699219 147.921875 706.75 149.875 708.75 151.875 C 712.898438 156.03125 716.824219 160.390625 720.527344 164.945312 C 724.234375 169.5 727.699219 174.234375 730.921875 179.140625 C 734.148438 184.050781 737.117188 189.105469 739.828125 194.316406 C 742.539062 199.523438 744.980469 204.859375 747.152344 210.316406 C 749.320312 215.773438 751.210938 221.324219 752.816406 226.972656 C 754.421875 232.621094 755.738281 238.335938 756.765625 244.117188 C 757.792969 249.898438 758.523438 255.71875 758.960938 261.574219 C 759.394531 267.433594 759.535156 273.296875 759.375 279.164062 Z M 344.882812 587.441406 L 310.078125 622.246094 C 307.246094 625.09375 304.28125 627.796875 301.183594 630.351562 C 298.085938 632.910156 294.867188 635.304688 291.53125 637.542969 C 288.191406 639.777344 284.753906 641.84375 281.210938 643.742188 C 277.671875 645.636719 274.042969 647.351562 270.332031 648.886719 C 266.621094 650.425781 262.84375 651.773438 258.996094 652.933594 C 255.152344 654.097656 251.257812 655.066406 247.316406 655.839844 C 243.375 656.617188 239.40625 657.195312 235.40625 657.574219 C 231.40625 657.957031 227.398438 658.140625 223.382812 658.125 C 220.382812 658.121094 217.386719 658.011719 214.394531 657.785156 C 211.402344 657.5625 208.425781 657.230469 205.457031 656.789062 C 202.488281 656.347656 199.542969 655.796875 196.617188 655.136719 C 193.691406 654.476562 190.792969 653.710938 187.921875 652.835938 C 185.050781 651.964844 182.214844 650.988281 179.417969 649.90625 C 176.621094 648.824219 173.863281 647.640625 171.152344 646.359375 C 168.441406 645.074219 165.78125 643.691406 163.171875 642.210938 C 160.5625 640.730469 158.011719 639.15625 155.519531 637.488281 C 153.023438 635.820312 150.597656 634.0625 148.234375 632.214844 C 145.867188 630.367188 143.574219 628.4375 141.355469 626.421875 C 139.132812 624.40625 136.988281 622.3125 134.917969 620.136719 C 132.851562 617.964844 130.867188 615.71875 128.964844 613.398438 C 127.0625 611.078125 125.25 608.691406 123.523438 606.238281 C 121.796875 603.785156 120.160156 601.269531 118.621094 598.695312 C 117.078125 596.121094 115.632812 593.496094 114.285156 590.816406 C 112.9375 588.136719 111.691406 585.410156 110.542969 582.636719 C 109.394531 579.867188 108.351562 577.054688 107.410156 574.207031 C 106.472656 571.359375 105.636719 568.476562 104.910156 565.566406 C 104.179688 562.65625 103.5625 559.726562 103.046875 556.769531 C 102.535156 553.8125 102.132812 550.84375 101.839844 547.855469 C 101.546875 544.871094 101.363281 541.878906 101.289062 538.878906 C 101.214844 535.878906 101.253906 532.882812 101.402344 529.886719 C 101.546875 526.890625 101.804688 523.902344 102.171875 520.925781 C 102.542969 517.949219 103.019531 514.988281 103.601562 512.046875 C 104.1875 509.105469 104.882812 506.1875 105.679688 503.296875 C 106.480469 500.402344 107.386719 497.546875 108.398438 494.722656 C 109.410156 491.898438 110.519531 489.113281 111.738281 486.371094 C 112.953125 483.628906 114.265625 480.933594 115.679688 478.289062 C 117.09375 475.640625 118.605469 473.050781 120.210938 470.515625 C 121.8125 467.980469 123.511719 465.511719 125.296875 463.101562 C 127.082031 460.691406 128.957031 458.347656 130.914062 456.078125 C 132.875 453.804688 134.914062 451.609375 137.035156 449.488281 L 246.796875 339.535156 C 248.941406 337.378906 251.167969 335.304688 253.46875 333.3125 C 255.769531 331.320312 258.140625 329.417969 260.582031 327.605469 C 263.027344 325.789062 265.53125 324.070312 268.105469 322.445312 C 270.675781 320.816406 273.304688 319.289062 275.988281 317.859375 C 278.675781 316.425781 281.410156 315.097656 284.195312 313.871094 C 286.980469 312.644531 289.804688 311.527344 292.675781 310.511719 C 295.542969 309.496094 298.445312 308.589844 301.382812 307.789062 C 304.316406 306.992188 307.28125 306.304688 310.269531 305.726562 C 313.253906 305.148438 316.261719 304.683594 319.28125 304.332031 C 322.304688 303.980469 325.335938 303.738281 328.375 303.613281 C 331.417969 303.488281 334.457031 303.472656 337.5 303.574219 C 340.539062 303.675781 343.574219 303.890625 346.597656 304.21875 C 349.621094 304.542969 352.632812 304.984375 355.625 305.535156 C 358.617188 306.085938 361.582031 306.75 364.527344 307.523438 C 367.46875 308.296875 370.378906 309.179688 373.257812 310.171875 C 376.132812 311.160156 378.96875 312.257812 381.765625 313.460938 C 384.558594 314.664062 387.304688 315.96875 390.003906 317.378906 C 392.699219 318.785156 395.339844 320.292969 397.925781 321.894531 C 400.511719 323.5 403.035156 325.199219 405.492188 326.992188 C 407.949219 328.789062 410.335938 330.671875 412.65625 332.640625 C 414.972656 334.613281 417.214844 336.667969 419.378906 338.808594 C 421.542969 340.945312 423.621094 343.164062 425.621094 345.457031 C 427.621094 347.753906 429.53125 350.117188 431.351562 352.554688 C 433.171875 354.992188 434.902344 357.496094 436.535156 360.0625 C 438.171875 362.628906 439.707031 365.25 441.148438 367.933594 C 442.585938 370.613281 443.921875 373.34375 445.160156 376.125 C 446.394531 378.90625 447.523438 381.730469 448.546875 384.59375 C 449.570312 387.460938 450.488281 390.359375 451.296875 393.292969 C 452.101562 396.226562 452.800781 399.1875 453.386719 402.171875 C 453.972656 405.15625 454.449219 408.160156 454.808594 411.183594 C 455.171875 414.203125 455.421875 417.234375 455.558594 420.273438 C 455.695312 423.3125 455.714844 426.351562 455.625 429.394531 C 455.601562 430.222656 455.617188 431.050781 455.675781 431.878906 C 455.734375 432.707031 455.832031 433.527344 455.972656 434.347656 C 456.109375 435.164062 456.289062 435.972656 456.507812 436.773438 C 456.726562 437.574219 456.984375 438.359375 457.28125 439.136719 C 457.574219 439.910156 457.90625 440.667969 458.277344 441.410156 C 458.648438 442.152344 459.054688 442.875 459.496094 443.578125 C 459.9375 444.28125 460.410156 444.960938 460.917969 445.613281 C 461.425781 446.269531 461.964844 446.898438 462.535156 447.503906 C 463.105469 448.105469 463.703125 448.679688 464.328125 449.222656 C 464.957031 449.765625 465.605469 450.277344 466.28125 450.757812 C 466.960938 451.238281 467.65625 451.683594 468.378906 452.09375 C 469.097656 452.507812 469.835938 452.882812 470.59375 453.21875 C 471.351562 453.558594 472.121094 453.859375 472.910156 454.121094 C 473.695312 454.386719 474.492188 454.609375 475.300781 454.792969 C 476.109375 454.980469 476.925781 455.125 477.746094 455.226562 C 478.570312 455.332031 479.398438 455.394531 480.226562 455.417969 C 481.054688 455.441406 481.882812 455.425781 482.710938 455.367188 C 483.539062 455.308594 484.359375 455.210938 485.175781 455.070312 C 485.996094 454.933594 486.804688 454.753906 487.605469 454.535156 C 488.402344 454.316406 489.191406 454.0625 489.964844 453.765625 C 490.742188 453.46875 491.5 453.136719 492.242188 452.765625 C 492.984375 452.394531 493.707031 451.988281 494.410156 451.550781 C 495.109375 451.109375 495.789062 450.632812 496.445312 450.125 C 497.101562 449.617188 497.730469 449.078125 498.332031 448.507812 C 498.933594 447.9375 499.507812 447.339844 500.054688 446.714844 C 500.597656 446.089844 501.109375 445.4375 501.589844 444.761719 C 502.070312 444.085938 502.515625 443.386719 502.925781 442.667969 C 503.335938 441.945312 503.710938 441.207031 504.050781 440.453125 C 504.390625 439.695312 504.691406 438.921875 504.953125 438.136719 C 505.214844 437.347656 505.441406 436.550781 505.625 435.742188 C 505.808594 434.933594 505.953125 434.117188 506.058594 433.296875 C 506.164062 432.472656 506.226562 431.648438 506.25 430.820312 C 506.402344 424.957031 506.257812 419.105469 505.816406 413.257812 C 505.375 407.410156 504.636719 401.601562 503.605469 395.828125 C 502.578125 390.058594 501.257812 384.351562 499.648438 378.714844 C 498.039062 373.078125 496.152344 367.535156 493.980469 362.085938 C 491.8125 356.640625 489.371094 351.316406 486.664062 346.117188 C 483.953125 340.917969 480.988281 335.871094 477.765625 330.96875 C 474.546875 326.070312 471.085938 321.347656 467.386719 316.800781 C 463.6875 312.25 459.765625 307.902344 455.625 303.75 C 453.625 301.75 451.574219 299.800781 449.480469 297.902344 C 447.382812 296 445.238281 294.152344 443.054688 292.359375 C 440.867188 290.566406 438.636719 288.824219 436.363281 287.140625 C 434.089844 285.457031 431.777344 283.828125 429.425781 282.257812 C 427.074219 280.683594 424.683594 279.171875 422.257812 277.71875 C 419.828125 276.265625 417.367188 274.871094 414.871094 273.539062 C 412.378906 272.203125 409.851562 270.933594 407.292969 269.722656 C 404.734375 268.515625 402.148438 267.367188 399.535156 266.285156 C 396.921875 265.203125 394.285156 264.1875 391.621094 263.234375 C 388.957031 262.28125 386.269531 261.394531 383.5625 260.570312 C 380.855469 259.75 378.128906 258.996094 375.386719 258.308594 C 372.640625 257.621094 369.882812 257.003906 367.105469 256.453125 C 364.332031 255.898438 361.546875 255.417969 358.746094 255 C 355.949219 254.585938 353.140625 254.238281 350.324219 253.960938 C 347.511719 253.6875 344.6875 253.476562 341.863281 253.339844 C 339.039062 253.199219 336.210938 253.128906 333.382812 253.128906 C 330.550781 253.128906 327.726562 253.199219 324.898438 253.339844 C 322.074219 253.476562 319.253906 253.6875 316.4375 253.960938 C 313.621094 254.238281 310.816406 254.585938 308.015625 255 C 305.21875 255.417969 302.429688 255.898438 299.65625 256.453125 C 296.882812 257.003906 294.121094 257.621094 291.378906 258.308594 C 288.632812 258.996094 285.90625 259.75 283.199219 260.570312 C 280.492188 261.394531 277.808594 262.28125 275.144531 263.234375 C 272.480469 264.1875 269.839844 265.203125 267.226562 266.285156 C 264.613281 267.367188 262.027344 268.515625 259.46875 269.722656 C 256.910156 270.933594 254.386719 272.203125 251.890625 273.539062 C 249.394531 274.871094 246.933594 276.265625 244.507812 277.71875 C 242.082031 279.171875 239.691406 280.683594 237.335938 282.257812 C 234.984375 283.828125 232.671875 285.457031 230.398438 287.140625 C 228.128906 288.824219 225.898438 290.566406 223.710938 292.359375 C 221.523438 294.152344 219.382812 296 217.285156 297.902344 C 215.1875 299.800781 213.140625 301.75 211.136719 303.75 L 101.25 413.703125 C 98.25 416.699219 95.363281 419.804688 92.59375 423.015625 C 89.820312 426.230469 87.171875 429.539062 84.644531 432.945312 C 82.113281 436.351562 79.714844 439.847656 77.445312 443.429688 C 75.175781 447.011719 73.039062 450.675781 71.039062 454.414062 C 69.039062 458.15625 67.175781 461.964844 65.457031 465.84375 C 63.734375 469.722656 62.160156 473.65625 60.730469 477.648438 C 59.300781 481.644531 58.019531 485.683594 56.882812 489.773438 C 55.75 493.859375 54.769531 497.984375 53.941406 502.144531 C 53.113281 506.304688 52.4375 510.492188 51.914062 514.699219 C 51.394531 518.910156 51.027344 523.132812 50.820312 527.371094 C 50.609375 531.609375 50.554688 535.847656 50.65625 540.089844 C 50.757812 544.328125 51.015625 548.558594 51.429688 552.78125 C 51.84375 557.003906 52.414062 561.207031 53.136719 565.386719 C 53.859375 569.566406 54.734375 573.714844 55.761719 577.828125 C 56.792969 581.945312 57.96875 586.015625 59.296875 590.046875 C 60.625 594.074219 62.101562 598.050781 63.722656 601.96875 C 65.34375 605.890625 67.105469 609.746094 69.011719 613.535156 C 70.917969 617.324219 72.957031 621.039062 75.136719 624.679688 C 77.316406 628.320312 79.625 631.875 82.066406 635.34375 C 84.503906 638.816406 87.070312 642.191406 89.757812 645.472656 C 92.449219 648.753906 95.253906 651.929688 98.175781 655.003906 C 101.101562 658.082031 104.132812 661.042969 107.273438 663.894531 C 110.414062 666.746094 113.65625 669.476562 116.996094 672.089844 C 120.339844 674.703125 123.773438 677.1875 127.300781 679.546875 C 130.824219 681.90625 134.433594 684.132812 138.121094 686.226562 C 141.8125 688.324219 145.570312 690.277344 149.40625 692.09375 C 153.238281 693.910156 157.132812 695.585938 161.089844 697.117188 C 165.046875 698.644531 169.054688 700.027344 173.113281 701.261719 C 177.171875 702.5 181.269531 703.582031 185.40625 704.515625 C 189.546875 705.449219 193.710938 706.230469 197.910156 706.855469 C 202.105469 707.480469 206.316406 707.953125 210.546875 708.269531 C 214.777344 708.585938 219.015625 708.746094 223.257812 708.75 C 228.921875 708.765625 234.574219 708.503906 240.210938 707.960938 C 245.847656 707.417969 251.449219 706.597656 257.003906 705.5 C 262.5625 704.402344 268.050781 703.035156 273.472656 701.394531 C 278.894531 699.753906 284.222656 697.851562 289.457031 695.683594 C 294.691406 693.519531 299.804688 691.097656 304.800781 688.425781 C 309.792969 685.75 314.644531 682.839844 319.347656 679.683594 C 324.054688 676.53125 328.59375 673.15625 332.964844 669.550781 C 337.335938 665.949219 341.519531 662.140625 345.515625 658.125 L 380.320312 623.320312 C 380.828125 622.722656 381.304688 622.105469 381.753906 621.464844 C 382.203125 620.824219 382.621094 620.164062 383.007812 619.484375 C 383.398438 618.804688 383.753906 618.105469 384.074219 617.394531 C 384.398438 616.679688 384.6875 615.953125 384.945312 615.214844 C 385.199219 614.476562 385.421875 613.726562 385.609375 612.964844 C 385.792969 612.207031 385.945312 611.4375 386.0625 610.664062 C 386.175781 609.890625 386.253906 609.113281 386.296875 608.332031 C 386.339844 607.550781 386.347656 606.769531 386.320312 605.984375 C 386.289062 605.203125 386.222656 604.425781 386.121094 603.648438 C 386.019531 602.871094 385.882812 602.101562 385.710938 601.339844 C 385.535156 600.578125 385.328125 599.824219 385.085938 599.078125 C 384.84375 598.335938 384.566406 597.605469 384.253906 596.886719 C 383.945312 596.167969 383.601562 595.464844 383.222656 594.777344 C 382.847656 594.089844 382.441406 593.425781 382.003906 592.777344 C 381.566406 592.125 381.097656 591.5 380.601562 590.894531 C 380.105469 590.289062 379.582031 589.707031 379.035156 589.152344 C 378.484375 588.59375 377.910156 588.0625 377.308594 587.558594 C 376.710938 587.058594 376.089844 586.582031 375.445312 586.136719 C 374.804688 585.691406 374.140625 585.273438 373.457031 584.890625 C 372.777344 584.507812 372.078125 584.152344 371.363281 583.835938 C 370.648438 583.515625 369.921875 583.230469 369.183594 582.976562 C 368.441406 582.722656 367.691406 582.507812 366.929688 582.324219 C 366.167969 582.140625 365.398438 581.996094 364.625 581.882812 C 363.851562 581.773438 363.074219 581.695312 362.289062 581.65625 C 361.507812 581.617188 360.726562 581.617188 359.945312 581.648438 C 359.164062 581.683594 358.382812 581.75 357.609375 581.855469 C 356.832031 581.960938 356.066406 582.105469 355.300781 582.28125 C 354.539062 582.457031 353.789062 582.667969 353.042969 582.917969 C 352.300781 583.164062 351.570312 583.445312 350.855469 583.757812 C 350.136719 584.074219 349.4375 584.417969 348.753906 584.796875 C 348.070312 585.179688 347.402344 585.589844 346.757812 586.03125 C 346.109375 586.46875 345.484375 586.941406 344.882812 587.441406 Z M 344.882812 587.441406 " fill-opacity="1" fill-rule="nonzero"/></svg>