<svg xmlns="http://www.w3.org/2000/svg" xmlns:xlink="http://www.w3.org/1999/xlink" width="1080" zoomAndPan="magnify" viewBox="0 0 810 809.999993" height="1080" preserveAspectRatio="xMidYMid meet" version="1.0"><path fill="#ffffff" d="M 524.160156 285.839844 C 524.746094 286.425781 525.300781 287.042969 525.828125 287.683594 C 526.355469 288.324219 526.847656 288.988281 527.3125 289.679688 C 527.773438 290.367188 528.199219 291.078125 528.589844 291.808594 C 528.980469 292.542969 529.335938 293.289062 529.652344 294.058594 C 529.96875 294.824219 530.25 295.601562 530.492188 296.398438 C 530.730469 297.191406 530.933594 297.996094 531.09375 298.808594 C 531.257812 299.621094 531.378906 300.441406 531.460938 301.265625 C 531.542969 302.09375 531.582031 302.921875 531.582031 303.75 C 531.582031 304.578125 531.542969 305.40625 531.460938 306.234375 C 531.378906 307.058594 531.257812 307.878906 531.09375 308.691406 C 530.933594 309.503906 530.730469 310.308594 530.492188 311.101562 C 530.25 311.898438 529.96875 312.675781 529.652344 313.441406 C 529.335938 314.210938 528.980469 314.957031 528.589844 315.691406 C 528.199219 316.421875 527.773438 317.132812 527.308594 317.820312 C 526.847656 318.511719 526.355469 319.175781 525.828125 319.816406 C 525.300781 320.457031 524.746094 321.074219 524.160156 321.660156 L 321.660156 524.160156 C 321.070312 524.746094 320.457031 525.300781 319.816406 525.828125 C 319.175781 526.355469 318.511719 526.847656 317.820312 527.308594 C 317.132812 527.769531 316.421875 528.195312 315.6875 528.585938 C 314.957031 528.976562 314.207031 529.332031 313.441406 529.648438 C 312.675781 529.964844 311.894531 530.246094 311.101562 530.484375 C 310.308594 530.726562 309.503906 530.929688 308.691406 531.089844 C 307.878906 531.25 307.058594 531.375 306.230469 531.453125 C 305.40625 531.535156 304.578125 531.578125 303.75 531.578125 C 302.921875 531.578125 302.09375 531.535156 301.265625 531.453125 C 300.441406 531.375 299.621094 531.25 298.808594 531.089844 C 297.996094 530.929688 297.191406 530.726562 296.398438 530.484375 C 295.605469 530.246094 294.824219 529.964844 294.058594 529.648438 C 293.292969 529.332031 292.542969 528.976562 291.8125 528.585938 C 291.078125 528.195312 290.367188 527.769531 289.679688 527.308594 C 288.988281 526.847656 288.324219 526.355469 287.683594 525.828125 C 287.042969 525.300781 286.429688 524.746094 285.839844 524.160156 C 285.253906 523.570312 284.699219 522.957031 284.171875 522.316406 C 283.644531 521.675781 283.152344 521.011719 282.691406 520.320312 C 282.230469 519.632812 281.804688 518.921875 281.414062 518.1875 C 281.023438 517.457031 280.667969 516.707031 280.351562 515.941406 C 280.035156 515.175781 279.753906 514.394531 279.515625 513.601562 C 279.273438 512.808594 279.070312 512.003906 278.910156 511.191406 C 278.75 510.378906 278.625 509.558594 278.546875 508.730469 C 278.464844 507.90625 278.421875 507.078125 278.421875 506.25 C 278.421875 505.421875 278.464844 504.59375 278.546875 503.765625 C 278.625 502.941406 278.75 502.121094 278.910156 501.308594 C 279.070312 500.496094 279.273438 499.691406 279.515625 498.898438 C 279.753906 498.105469 280.035156 497.324219 280.351562 496.558594 C 280.667969 495.792969 281.023438 495.042969 281.414062 494.3125 C 281.804688 493.578125 282.230469 492.867188 282.691406 492.179688 C 283.152344 491.488281 283.644531 490.824219 284.171875 490.183594 C 284.699219 489.542969 285.253906 488.929688 285.839844 488.339844 L 488.339844 285.839844 C 488.925781 285.253906 489.542969 284.699219 490.183594 284.171875 C 490.824219 283.644531 491.488281 283.152344 492.179688 282.6875 C 492.867188 282.226562 493.578125 281.800781 494.308594 281.410156 C 495.042969 281.019531 495.789062 280.664062 496.558594 280.347656 C 497.324219 280.03125 498.101562 279.75 498.898438 279.507812 C 499.691406 279.269531 500.496094 279.066406 501.308594 278.90625 C 502.121094 278.742188 502.941406 278.621094 503.765625 278.539062 C 504.59375 278.457031 505.421875 278.417969 506.25 278.417969 C 507.078125 278.417969 507.90625 278.457031 508.734375 278.539062 C 509.558594 278.621094 510.378906 278.742188 511.191406 278.90625 C 512.003906 279.066406 512.808594 279.269531 513.601562 279.507812 C 514.398438 279.75 515.175781 280.03125 515.941406 280.347656 C 516.710938 280.664062 517.457031 281.019531 518.191406 281.410156 C 518.921875 281.800781 519.632812 282.226562 520.320312 282.6875 C 521.011719 283.152344 521.675781 283.644531 522.316406 284.171875 C 522.957031 284.699219 523.574219 285.253906 524.160156 285.839844 Z M 682.171875 127.828125 C 680.121094 125.777344 678.023438 123.777344 675.875 121.832031 C 673.722656 119.882812 671.527344 117.988281 669.289062 116.148438 C 667.046875 114.308594 664.761719 112.527344 662.429688 110.796875 C 660.101562 109.070312 657.730469 107.402344 655.320312 105.789062 C 652.910156 104.179688 650.460938 102.628906 647.972656 101.136719 C 645.484375 99.644531 642.964844 98.214844 640.40625 96.847656 C 637.847656 95.480469 635.257812 94.179688 632.636719 92.9375 C 630.015625 91.699219 627.363281 90.523438 624.6875 89.414062 C 622.007812 88.304688 619.300781 87.261719 616.570312 86.285156 C 613.839844 85.308594 611.089844 84.398438 608.3125 83.554688 C 605.539062 82.714844 602.742188 81.941406 599.929688 81.234375 C 597.117188 80.53125 594.289062 79.894531 591.445312 79.328125 C 588.601562 78.765625 585.742188 78.269531 582.875 77.84375 C 580.007812 77.417969 577.128906 77.0625 574.242188 76.777344 C 571.359375 76.492188 568.464844 76.28125 565.570312 76.136719 C 562.671875 75.996094 559.773438 75.925781 556.875 75.925781 C 553.976562 75.925781 551.078125 75.996094 548.179688 76.136719 C 545.285156 76.28125 542.390625 76.492188 539.507812 76.777344 C 536.621094 77.0625 533.742188 77.417969 530.875 77.84375 C 528.007812 78.269531 525.148438 78.765625 522.304688 79.328125 C 519.460938 79.894531 516.632812 80.53125 513.820312 81.234375 C 511.007812 81.941406 508.210938 82.714844 505.4375 83.554688 C 502.660156 84.398438 499.910156 85.308594 497.179688 86.285156 C 494.449219 87.261719 491.742188 88.304688 489.0625 89.414062 C 486.386719 90.523438 483.734375 91.699219 481.113281 92.9375 C 478.492188 94.179688 475.902344 95.480469 473.34375 96.847656 C 470.785156 98.214844 468.265625 99.644531 465.777344 101.136719 C 463.289062 102.628906 460.839844 104.179688 458.429688 105.789062 C 456.019531 107.402344 453.648438 109.070312 451.320312 110.796875 C 448.988281 112.527344 446.703125 114.308594 444.460938 116.148438 C 442.21875 117.988281 440.027344 119.882812 437.875 121.832031 C 435.726562 123.777344 433.628906 125.777344 431.578125 127.828125 L 336.464844 222.910156 C 335.878906 223.496094 335.324219 224.109375 334.800781 224.75 C 334.273438 225.390625 333.78125 226.058594 333.320312 226.746094 C 332.859375 227.4375 332.4375 228.148438 332.046875 228.878906 C 331.65625 229.609375 331.300781 230.359375 330.984375 231.125 C 330.667969 231.890625 330.390625 232.671875 330.148438 233.464844 C 329.910156 234.257812 329.707031 235.0625 329.546875 235.875 C 329.386719 236.6875 329.265625 237.507812 329.183594 238.332031 C 329.101562 239.15625 329.0625 239.984375 329.0625 240.8125 C 329.0625 241.640625 329.101562 242.46875 329.183594 243.292969 C 329.265625 244.117188 329.386719 244.9375 329.550781 245.75 C 329.710938 246.5625 329.914062 247.367188 330.15625 248.160156 C 330.394531 248.953125 330.675781 249.734375 330.992188 250.5 C 331.308594 251.265625 331.664062 252.015625 332.054688 252.746094 C 332.445312 253.476562 332.871094 254.1875 333.332031 254.875 C 333.792969 255.566406 334.285156 256.230469 334.8125 256.871094 C 335.335938 257.511719 335.894531 258.125 336.480469 258.710938 C 337.066406 259.296875 337.679688 259.855469 338.320312 260.378906 C 338.960938 260.90625 339.625 261.398438 340.316406 261.859375 C 341.003906 262.320312 341.714844 262.746094 342.445312 263.136719 C 343.179688 263.527344 343.925781 263.882812 344.691406 264.199219 C 345.457031 264.515625 346.238281 264.796875 347.03125 265.039062 C 347.824219 265.277344 348.628906 265.480469 349.441406 265.640625 C 350.253906 265.804688 351.074219 265.925781 351.898438 266.007812 C 352.722656 266.089844 353.550781 266.128906 354.378906 266.128906 C 355.207031 266.128906 356.035156 266.089844 356.859375 266.007812 C 357.683594 265.929688 358.503906 265.808594 359.316406 265.644531 C 360.132812 265.484375 360.933594 265.28125 361.726562 265.042969 C 362.519531 264.800781 363.300781 264.523438 364.066406 264.207031 C 364.832031 263.890625 365.582031 263.535156 366.3125 263.148438 C 367.046875 262.757812 367.753906 262.332031 368.445312 261.871094 C 369.136719 261.410156 369.800781 260.917969 370.441406 260.390625 C 371.082031 259.867188 371.695312 259.3125 372.285156 258.726562 L 467.394531 163.804688 C 468.867188 162.367188 470.371094 160.964844 471.910156 159.597656 C 473.445312 158.234375 475.019531 156.910156 476.621094 155.621094 C 478.222656 154.332031 479.859375 153.085938 481.523438 151.875 C 483.1875 150.667969 484.878906 149.5 486.597656 148.375 C 488.320312 147.25 490.066406 146.164062 491.839844 145.125 C 493.617188 144.082031 495.414062 143.085938 497.234375 142.132812 C 499.058594 141.179688 500.902344 140.273438 502.769531 139.410156 C 504.636719 138.546875 506.523438 137.730469 508.429688 136.957031 C 510.335938 136.1875 512.257812 135.460938 514.203125 134.785156 C 516.144531 134.105469 518.101562 133.476562 520.074219 132.894531 C 522.046875 132.3125 524.03125 131.78125 526.027344 131.292969 C 528.027344 130.808594 530.035156 130.375 532.054688 129.984375 C 534.074219 129.597656 536.105469 129.261719 538.140625 128.972656 C 540.175781 128.683594 542.21875 128.445312 544.265625 128.257812 C 546.3125 128.066406 548.367188 127.929688 550.417969 127.839844 C 552.472656 127.75 554.53125 127.710938 556.585938 127.722656 C 558.644531 127.734375 560.699219 127.796875 562.75 127.90625 C 564.804688 128.019531 566.855469 128.179688 568.902344 128.390625 C 570.945312 128.601562 572.984375 128.863281 575.019531 129.175781 C 577.050781 129.484375 579.074219 129.847656 581.089844 130.253906 C 583.105469 130.664062 585.109375 131.125 587.101562 131.628906 C 589.097656 132.136719 591.074219 132.695312 593.042969 133.296875 C 595.007812 133.902344 596.957031 134.550781 598.890625 135.25 C 600.824219 135.949219 602.742188 136.695312 604.640625 137.488281 C 606.539062 138.277344 608.414062 139.117188 610.273438 140 C 612.128906 140.882812 613.964844 141.8125 615.773438 142.785156 C 617.585938 143.757812 619.375 144.777344 621.136719 145.835938 C 622.898438 146.894531 624.632812 148 626.34375 149.144531 C 628.050781 150.289062 629.730469 151.472656 631.382812 152.699219 C 633.03125 153.925781 634.652344 155.191406 636.242188 156.5 C 637.828125 157.804688 639.386719 159.148438 640.910156 160.53125 C 642.433594 161.910156 643.921875 163.328125 645.375 164.78125 C 646.828125 166.238281 648.246094 167.726562 649.628906 169.25 C 651.011719 170.773438 652.355469 172.328125 653.660156 173.917969 C 654.96875 175.503906 656.234375 177.125 657.460938 178.773438 C 658.6875 180.425781 659.875 182.105469 661.019531 183.8125 C 662.164062 185.523438 663.265625 187.257812 664.328125 189.019531 C 665.386719 190.78125 666.40625 192.566406 667.378906 194.378906 C 668.351562 196.191406 669.28125 198.023438 670.164062 199.882812 C 671.046875 201.738281 671.886719 203.617188 672.679688 205.511719 C 673.472656 207.410156 674.21875 209.328125 674.914062 211.261719 C 675.613281 213.195312 676.265625 215.144531 676.871094 217.109375 C 677.472656 219.078125 678.03125 221.054688 678.539062 223.050781 C 679.046875 225.042969 679.503906 227.046875 679.914062 229.0625 C 680.324219 231.078125 680.683594 233.101562 680.996094 235.132812 C 681.308594 237.167969 681.566406 239.207031 681.78125 241.25 C 681.992188 243.296875 682.152344 245.347656 682.265625 247.398438 C 682.378906 249.453125 682.4375 251.507812 682.449219 253.566406 C 682.460938 255.621094 682.425781 257.675781 682.335938 259.730469 C 682.246094 261.785156 682.109375 263.835938 681.917969 265.886719 C 681.730469 267.933594 681.492188 269.976562 681.203125 272.011719 C 680.917969 274.046875 680.578125 276.078125 680.191406 278.097656 C 679.804688 280.117188 679.371094 282.125 678.886719 284.125 C 678.398438 286.121094 677.867188 288.109375 677.285156 290.082031 C 676.703125 292.054688 676.074219 294.011719 675.398438 295.953125 C 674.71875 297.894531 673.996094 299.816406 673.226562 301.726562 C 672.453125 303.632812 671.636719 305.519531 670.773438 307.386719 C 669.910156 309.25 669.003906 311.097656 668.050781 312.917969 C 667.097656 314.742188 666.101562 316.539062 665.0625 318.3125 C 664.019531 320.085938 662.9375 321.835938 661.8125 323.554688 C 660.6875 325.277344 659.519531 326.96875 658.3125 328.632812 C 657.101562 330.296875 655.855469 331.933594 654.566406 333.535156 C 653.28125 335.140625 651.953125 336.710938 650.589844 338.25 C 649.226562 339.789062 647.824219 341.292969 646.386719 342.761719 L 551.242188 437.875 C 550.65625 438.460938 550.101562 439.074219 549.574219 439.714844 C 549.046875 440.355469 548.554688 441.019531 548.09375 441.710938 C 547.632812 442.398438 547.207031 443.109375 546.816406 443.839844 C 546.421875 444.570312 546.070312 445.320312 545.75 446.085938 C 545.433594 446.851562 545.15625 447.628906 544.914062 448.425781 C 544.671875 449.21875 544.472656 450.019531 544.308594 450.832031 C 544.148438 451.648438 544.023438 452.464844 543.941406 453.289062 C 543.863281 454.117188 543.820312 454.941406 543.820312 455.773438 C 543.820312 456.601562 543.859375 457.429688 543.941406 458.253906 C 544.023438 459.078125 544.144531 459.898438 544.304688 460.710938 C 544.464844 461.523438 544.667969 462.328125 544.90625 463.121094 C 545.148438 463.914062 545.425781 464.695312 545.742188 465.460938 C 546.058594 466.226562 546.414062 466.976562 546.804688 467.707031 C 547.195312 468.4375 547.621094 469.148438 548.082031 469.839844 C 548.539062 470.527344 549.035156 471.195312 549.558594 471.835938 C 550.085938 472.476562 550.640625 473.089844 551.226562 473.675781 C 551.8125 474.261719 552.425781 474.820312 553.066406 475.34375 C 553.707031 475.871094 554.371094 476.363281 555.0625 476.824219 C 555.75 477.285156 556.460938 477.714844 557.191406 478.105469 C 557.921875 478.496094 558.671875 478.851562 559.4375 479.167969 C 560.203125 479.484375 560.984375 479.765625 561.777344 480.003906 C 562.570312 480.246094 563.371094 480.449219 564.1875 480.609375 C 565 480.773438 565.816406 480.894531 566.644531 480.976562 C 567.46875 481.058594 568.296875 481.097656 569.125 481.097656 C 569.953125 481.097656 570.78125 481.058594 571.605469 480.976562 C 572.429688 480.898438 573.25 480.777344 574.0625 480.613281 C 574.875 480.453125 575.679688 480.253906 576.472656 480.011719 C 577.265625 479.769531 578.046875 479.492188 578.8125 479.175781 C 579.578125 478.859375 580.328125 478.503906 581.058594 478.113281 C 581.789062 477.722656 582.5 477.296875 583.191406 476.839844 C 583.878906 476.378906 584.546875 475.886719 585.1875 475.359375 C 585.828125 474.832031 586.441406 474.277344 587.027344 473.691406 L 682.171875 378.421875 C 684.222656 376.371094 686.222656 374.273438 688.167969 372.125 C 690.117188 369.972656 692.011719 367.78125 693.851562 365.539062 C 695.691406 363.296875 697.472656 361.011719 699.203125 358.679688 C 700.929688 356.351562 702.597656 353.980469 704.210938 351.570312 C 705.820312 349.160156 707.371094 346.710938 708.863281 344.222656 C 710.355469 341.734375 711.785156 339.214844 713.152344 336.65625 C 714.519531 334.097656 715.820312 331.507812 717.0625 328.886719 C 718.300781 326.265625 719.476562 323.613281 720.585938 320.9375 C 721.695312 318.257812 722.738281 315.550781 723.714844 312.820312 C 724.691406 310.089844 725.601562 307.339844 726.445312 304.5625 C 727.285156 301.789062 728.058594 298.992188 728.765625 296.179688 C 729.46875 293.367188 730.105469 290.539062 730.671875 287.695312 C 731.234375 284.851562 731.730469 281.992188 732.15625 279.125 C 732.582031 276.257812 732.9375 273.378906 733.222656 270.492188 C 733.507812 267.609375 733.71875 264.714844 733.863281 261.820312 C 734.003906 258.921875 734.074219 256.023438 734.074219 253.125 C 734.074219 250.226562 734.003906 247.328125 733.863281 244.429688 C 733.71875 241.535156 733.507812 238.640625 733.222656 235.757812 C 732.9375 232.871094 732.582031 229.992188 732.15625 227.125 C 731.730469 224.257812 731.234375 221.398438 730.671875 218.554688 C 730.105469 215.710938 729.46875 212.882812 728.765625 210.070312 C 728.058594 207.257812 727.285156 204.460938 726.445312 201.6875 C 725.601562 198.910156 724.691406 196.160156 723.714844 193.429688 C 722.738281 190.699219 721.695312 187.992188 720.585938 185.3125 C 719.476562 182.636719 718.300781 179.984375 717.0625 177.363281 C 715.820312 174.742188 714.519531 172.152344 713.152344 169.59375 C 711.785156 167.035156 710.355469 164.515625 708.863281 162.027344 C 707.371094 159.539062 705.820312 157.089844 704.210938 154.679688 C 702.597656 152.269531 700.929688 149.898438 699.203125 147.570312 C 697.472656 145.238281 695.691406 142.953125 693.851562 140.710938 C 692.011719 138.472656 690.117188 136.277344 688.167969 134.125 C 686.222656 131.976562 684.222656 129.878906 682.171875 127.828125 Z M 437.714844 551.242188 L 342.605469 646.355469 C 341.144531 647.847656 339.652344 649.300781 338.121094 650.71875 C 336.589844 652.136719 335.027344 653.515625 333.425781 654.855469 C 331.828125 656.195312 330.199219 657.492188 328.535156 658.753906 C 326.871094 660.011719 325.179688 661.230469 323.457031 662.40625 C 321.734375 663.582031 319.980469 664.714844 318.203125 665.804688 C 316.421875 666.890625 314.617188 667.9375 312.789062 668.9375 C 310.957031 669.9375 309.101562 670.890625 307.222656 671.800781 C 305.347656 672.707031 303.445312 673.566406 301.527344 674.382812 C 299.605469 675.195312 297.667969 675.964844 295.707031 676.679688 C 293.75 677.398438 291.773438 678.070312 289.78125 678.691406 C 287.792969 679.3125 285.785156 679.882812 283.765625 680.402344 C 281.746094 680.925781 279.714844 681.394531 277.671875 681.816406 C 275.628906 682.238281 273.574219 682.609375 271.515625 682.929688 C 269.453125 683.246094 267.386719 683.515625 265.308594 683.734375 C 263.234375 683.949219 261.15625 684.117188 259.074219 684.230469 C 256.992188 684.347656 254.90625 684.410156 252.820312 684.421875 C 250.734375 684.433594 248.648438 684.390625 246.566406 684.300781 C 244.480469 684.207031 242.402344 684.066406 240.324219 683.871094 C 238.246094 683.675781 236.175781 683.429688 234.109375 683.132812 C 232.046875 682.835938 229.988281 682.488281 227.941406 682.089844 C 225.894531 681.691406 223.859375 681.242188 221.832031 680.746094 C 219.808594 680.246094 217.796875 679.695312 215.796875 679.097656 C 213.800781 678.5 211.816406 677.851562 209.851562 677.15625 C 207.882812 676.457031 205.9375 675.710938 204.007812 674.917969 C 202.078125 674.125 200.167969 673.285156 198.28125 672.398438 C 196.394531 671.511719 194.527344 670.578125 192.6875 669.597656 C 190.84375 668.617188 189.027344 667.59375 187.238281 666.523438 C 185.445312 665.453125 183.683594 664.339844 181.949219 663.183594 C 180.210938 662.027344 178.503906 660.828125 176.828125 659.589844 C 175.152344 658.347656 173.507812 657.066406 171.894531 655.742188 C 170.28125 654.421875 168.699219 653.058594 167.152344 651.660156 C 165.609375 650.257812 164.097656 648.820312 162.621094 647.34375 C 161.148438 645.871094 159.710938 644.359375 158.308594 642.8125 C 156.910156 641.265625 155.546875 639.6875 154.226562 638.074219 C 152.902344 636.460938 151.621094 634.816406 150.382812 633.136719 C 149.140625 631.460938 147.941406 629.753906 146.785156 628.019531 C 145.628906 626.28125 144.515625 624.519531 143.449219 622.726562 C 142.378906 620.9375 141.355469 619.117188 140.375 617.277344 C 139.394531 615.433594 138.460938 613.570312 137.574219 611.683594 C 136.6875 609.792969 135.847656 607.886719 135.054688 605.957031 C 134.261719 604.027344 133.519531 602.078125 132.824219 600.113281 C 132.125 598.144531 131.476562 596.164062 130.878906 594.164062 C 130.28125 592.167969 129.734375 590.15625 129.234375 588.128906 C 128.734375 586.105469 128.285156 584.066406 127.886719 582.019531 C 127.492188 579.972656 127.144531 577.914062 126.847656 575.851562 C 126.550781 573.785156 126.304688 571.714844 126.109375 569.636719 C 125.917969 567.5625 125.773438 565.480469 125.683594 563.394531 C 125.589844 561.3125 125.550781 559.226562 125.5625 557.140625 C 125.574219 555.054688 125.636719 552.96875 125.753906 550.886719 C 125.867188 548.804688 126.035156 546.726562 126.253906 544.652344 C 126.46875 542.578125 126.738281 540.507812 127.058594 538.449219 C 127.378906 536.386719 127.75 534.332031 128.171875 532.289062 C 128.59375 530.246094 129.0625 528.214844 129.585938 526.195312 C 130.109375 524.175781 130.679688 522.171875 131.300781 520.179688 C 131.921875 518.1875 132.589844 516.214844 133.308594 514.253906 C 134.027344 512.296875 134.796875 510.359375 135.609375 508.4375 C 136.425781 506.515625 137.285156 504.617188 138.195312 502.738281 C 139.101562 500.863281 140.058594 499.007812 141.058594 497.175781 C 142.058594 495.347656 143.101562 493.542969 144.191406 491.761719 C 145.28125 489.984375 146.414062 488.234375 147.589844 486.511719 C 148.765625 484.785156 149.984375 483.09375 151.242188 481.429688 C 152.503906 479.769531 153.804688 478.136719 155.144531 476.539062 C 156.484375 474.941406 157.863281 473.375 159.28125 471.847656 C 160.699219 470.316406 162.152344 468.820312 163.644531 467.363281 L 258.726562 372.285156 C 259.3125 371.695312 259.867188 371.082031 260.390625 370.441406 C 260.917969 369.800781 261.410156 369.136719 261.871094 368.445312 C 262.332031 367.753906 262.757812 367.046875 263.148438 366.3125 C 263.535156 365.582031 263.890625 364.832031 264.207031 364.066406 C 264.523438 363.300781 264.800781 362.519531 265.042969 361.726562 C 265.28125 360.933594 265.484375 360.132812 265.644531 359.316406 C 265.804688 358.503906 265.929688 357.683594 266.007812 356.859375 C 266.089844 356.035156 266.128906 355.207031 266.128906 354.378906 C 266.128906 353.550781 266.089844 352.722656 266.007812 351.898438 C 265.925781 351.074219 265.804688 350.253906 265.640625 349.441406 C 265.480469 348.628906 265.277344 347.824219 265.039062 347.03125 C 264.796875 346.238281 264.515625 345.457031 264.199219 344.691406 C 263.882812 343.925781 263.527344 343.179688 263.136719 342.445312 C 262.746094 341.714844 262.320312 341.003906 261.859375 340.316406 C 261.398438 339.625 260.90625 338.960938 260.378906 338.320312 C 259.855469 337.679688 259.296875 337.066406 258.710938 336.480469 C 258.125 335.894531 257.511719 335.335938 256.871094 334.8125 C 256.230469 334.285156 255.566406 333.792969 254.875 333.332031 C 254.1875 332.871094 253.476562 332.445312 252.746094 332.054688 C 252.015625 331.664062 251.265625 331.308594 250.5 330.992188 C 249.734375 330.675781 248.953125 330.394531 248.160156 330.15625 C 247.367188 329.914062 246.5625 329.710938 245.75 329.550781 C 244.9375 329.386719 244.117188 329.265625 243.292969 329.183594 C 242.46875 329.101562 241.640625 329.0625 240.8125 329.0625 C 239.984375 329.0625 239.15625 329.101562 238.332031 329.183594 C 237.507812 329.265625 236.6875 329.386719 235.875 329.546875 C 235.0625 329.707031 234.257812 329.910156 233.464844 330.148438 C 232.671875 330.390625 231.890625 330.667969 231.125 330.984375 C 230.359375 331.300781 229.609375 331.65625 228.878906 332.046875 C 228.148438 332.4375 227.4375 332.859375 226.746094 333.320312 C 226.058594 333.78125 225.390625 334.273438 224.75 334.800781 C 224.109375 335.324219 223.496094 335.878906 222.90625 336.464844 L 127.828125 431.578125 C 125.777344 433.628906 123.78125 435.730469 121.835938 437.878906 C 119.890625 440.027344 118 442.222656 116.160156 444.464844 C 114.320312 446.707031 112.539062 448.992188 110.8125 451.320312 C 109.089844 453.648438 107.421875 456.019531 105.8125 458.429688 C 104.199219 460.84375 102.652344 463.292969 101.160156 465.777344 C 99.671875 468.265625 98.246094 470.789062 96.878906 473.347656 C 95.515625 475.902344 94.210938 478.492188 92.972656 481.113281 C 91.734375 483.734375 90.5625 486.382812 89.453125 489.0625 C 88.34375 491.742188 87.300781 494.445312 86.328125 497.175781 C 85.351562 499.90625 84.441406 502.660156 83.601562 505.433594 C 82.761719 508.207031 81.988281 511 81.285156 513.8125 C 80.582031 516.625 79.949219 519.453125 79.382812 522.296875 C 78.820312 525.140625 78.324219 527.996094 77.898438 530.863281 C 77.476562 533.730469 77.121094 536.609375 76.839844 539.492188 C 76.554688 542.378906 76.34375 545.269531 76.199219 548.164062 C 76.058594 551.0625 75.988281 553.957031 75.988281 556.855469 C 75.992188 559.757812 76.0625 562.652344 76.203125 565.546875 C 76.347656 568.445312 76.5625 571.335938 76.847656 574.21875 C 77.132812 577.105469 77.488281 579.980469 77.914062 582.847656 C 78.339844 585.714844 78.835938 588.570312 79.402344 591.414062 C 79.96875 594.257812 80.601562 597.085938 81.308594 599.898438 C 82.011719 602.710938 82.785156 605.503906 83.628906 608.277344 C 84.46875 611.050781 85.378906 613.804688 86.355469 616.53125 C 87.332031 619.261719 88.375 621.964844 89.484375 624.644531 C 90.597656 627.320312 91.769531 629.972656 93.011719 632.59375 C 94.25 635.210938 95.554688 637.800781 96.921875 640.359375 C 98.289062 642.914062 99.714844 645.4375 101.207031 647.921875 C 102.695312 650.410156 104.246094 652.859375 105.859375 655.269531 C 107.46875 657.679688 109.136719 660.046875 110.867188 662.375 C 112.59375 664.703125 114.375 666.988281 116.214844 669.230469 C 118.054688 671.472656 119.945312 673.664062 121.894531 675.8125 C 123.839844 677.960938 125.839844 680.0625 127.890625 682.109375 C 129.9375 684.160156 132.039062 686.160156 134.1875 688.105469 C 136.335938 690.054688 138.527344 691.945312 140.769531 693.785156 C 143.011719 695.625 145.296875 697.40625 147.625 699.132812 C 149.953125 700.863281 152.320312 702.53125 154.730469 704.140625 C 157.140625 705.75 159.589844 707.300781 162.078125 708.792969 C 164.5625 710.285156 167.085938 711.710938 169.640625 713.078125 C 172.199219 714.445312 174.789062 715.75 177.40625 716.988281 C 180.027344 718.230469 182.679688 719.402344 185.355469 720.515625 C 188.035156 721.625 190.738281 722.667969 193.46875 723.644531 C 196.195312 724.621094 198.949219 725.53125 201.722656 726.371094 C 204.496094 727.214844 207.289062 727.988281 210.101562 728.691406 C 212.914062 729.398438 215.742188 730.03125 218.585938 730.597656 C 221.429688 731.164062 224.285156 731.660156 227.152344 732.085938 C 230.019531 732.511719 232.894531 732.867188 235.78125 733.152344 C 238.664062 733.4375 241.554688 733.652344 244.449219 733.792969 C 247.347656 733.9375 250.242188 734.007812 253.144531 734.011719 C 256.042969 734.011719 258.9375 733.941406 261.835938 733.800781 C 264.730469 733.65625 267.621094 733.445312 270.507812 733.160156 C 273.390625 732.878906 276.269531 732.523438 279.136719 732.101562 C 282.003906 731.675781 284.859375 731.179688 287.703125 730.617188 C 290.546875 730.050781 293.375 729.417969 296.1875 728.714844 C 299 728.011719 301.792969 727.238281 304.566406 726.398438 C 307.339844 725.558594 310.09375 724.648438 312.824219 723.671875 C 315.554688 722.699219 318.257812 721.65625 320.9375 720.546875 C 323.613281 719.4375 326.265625 718.265625 328.886719 717.027344 C 331.507812 715.789062 334.097656 714.484375 336.652344 713.121094 C 339.210938 711.753906 341.734375 710.328125 344.222656 708.835938 C 346.707031 707.347656 349.15625 705.800781 351.570312 704.1875 C 353.980469 702.578125 356.351562 700.910156 358.679688 699.1875 C 361.007812 697.460938 363.292969 695.679688 365.535156 693.839844 C 367.777344 692 369.972656 690.109375 372.121094 688.164062 C 374.269531 686.21875 376.371094 684.222656 378.421875 682.171875 L 473.535156 587.027344 C 474.121094 586.441406 474.675781 585.828125 475.199219 585.1875 C 475.726562 584.546875 476.21875 583.878906 476.679688 583.191406 C 477.140625 582.5 477.566406 581.789062 477.957031 581.058594 C 478.347656 580.328125 478.699219 579.578125 479.019531 578.8125 C 479.335938 578.046875 479.613281 577.265625 479.855469 576.472656 C 480.09375 575.679688 480.292969 574.875 480.457031 574.0625 C 480.617188 573.25 480.738281 572.429688 480.820312 571.605469 C 480.902344 570.78125 480.941406 569.953125 480.941406 569.125 C 480.941406 568.296875 480.898438 567.46875 480.816406 566.644531 C 480.734375 565.816406 480.613281 565 480.453125 564.1875 C 480.289062 563.371094 480.089844 562.570312 479.847656 561.777344 C 479.605469 560.984375 479.328125 560.203125 479.007812 559.4375 C 478.691406 558.671875 478.335938 557.921875 477.945312 557.191406 C 477.554688 556.460938 477.128906 555.75 476.667969 555.0625 C 476.207031 554.371094 475.714844 553.707031 475.1875 553.066406 C 474.660156 552.425781 474.105469 551.8125 473.519531 551.226562 C 472.929688 550.640625 472.316406 550.085938 471.675781 549.558594 C 471.035156 549.035156 470.371094 548.539062 469.679688 548.082031 C 468.992188 547.621094 468.28125 547.195312 467.546875 546.804688 C 466.816406 546.414062 466.070312 546.058594 465.300781 545.742188 C 464.535156 545.425781 463.757812 545.148438 462.964844 544.90625 C 462.167969 544.667969 461.367188 544.464844 460.554688 544.304688 C 459.738281 544.144531 458.921875 544.023438 458.09375 543.941406 C 457.269531 543.859375 456.441406 543.820312 455.613281 543.820312 C 454.785156 543.820312 453.957031 543.863281 453.132812 543.941406 C 452.308594 544.023438 451.488281 544.148438 450.675781 544.308594 C 449.863281 544.472656 449.058594 544.671875 448.265625 544.914062 C 447.472656 545.15625 446.691406 545.433594 445.925781 545.75 C 445.160156 546.070312 444.414062 546.421875 443.679688 546.816406 C 442.949219 547.207031 442.242188 547.632812 441.550781 548.09375 C 440.863281 548.554688 440.195312 549.046875 439.554688 549.574219 C 438.914062 550.101562 438.300781 550.65625 437.714844 551.242188 Z M 437.714844 551.242188 " fill-opacity="1" fill-rule="nonzero"/></svg>