<svg xmlns="http://www.w3.org/2000/svg" xmlns:xlink="http://www.w3.org/1999/xlink" width="1080" zoomAndPan="magnify" viewBox="0 0 810 809.999993" height="1080" preserveAspectRatio="xMidYMid meet" version="1.0"><path fill="#ffffff" d="M 405 75.9375 C 399.613281 75.9375 394.234375 76.070312 388.855469 76.332031 C 383.476562 76.597656 378.105469 76.996094 372.746094 77.523438 C 367.386719 78.050781 362.042969 78.707031 356.714844 79.5 C 351.390625 80.289062 346.085938 81.210938 340.804688 82.261719 C 335.519531 83.3125 330.269531 84.492188 325.042969 85.800781 C 319.820312 87.109375 314.632812 88.542969 309.476562 90.105469 C 304.324219 91.671875 299.210938 93.359375 294.140625 95.171875 C 289.070312 96.988281 284.046875 98.925781 279.074219 100.984375 C 274.097656 103.046875 269.175781 105.226562 264.308594 107.53125 C 259.4375 109.832031 254.628906 112.253906 249.882812 114.792969 C 245.132812 117.332031 240.445312 119.984375 235.828125 122.753906 C 231.207031 125.523438 226.660156 128.402344 222.183594 131.394531 C 217.703125 134.386719 213.304688 137.488281 208.976562 140.695312 C 204.652344 143.902344 200.40625 147.214844 196.246094 150.632812 C 192.082031 154.046875 188.003906 157.5625 184.015625 161.179688 C 180.023438 164.796875 176.125 168.507812 172.316406 172.316406 C 168.507812 176.125 164.796875 180.023438 161.179688 184.015625 C 157.5625 188.003906 154.046875 192.082031 150.632812 196.246094 C 147.214844 200.40625 143.902344 204.652344 140.695312 208.976562 C 137.488281 213.304688 134.386719 217.703125 131.394531 222.183594 C 128.402344 226.660156 125.523438 231.207031 122.753906 235.828125 C 119.984375 240.445312 117.332031 245.132812 114.792969 249.882812 C 112.253906 254.628906 109.832031 259.4375 107.53125 264.308594 C 105.226562 269.175781 103.046875 274.097656 100.984375 279.074219 C 98.925781 284.046875 96.988281 289.070312 95.171875 294.140625 C 93.359375 299.210938 91.671875 304.324219 90.105469 309.476562 C 88.542969 314.632812 87.109375 319.820312 85.800781 325.042969 C 84.492188 330.269531 83.3125 335.519531 82.261719 340.804688 C 81.210938 346.085938 80.289062 351.390625 79.5 356.714844 C 78.707031 362.042969 78.050781 367.386719 77.523438 372.746094 C 76.996094 378.105469 76.597656 383.476562 76.332031 388.855469 C 76.070312 394.234375 75.9375 399.613281 75.9375 405 C 75.9375 410.386719 76.070312 415.765625 76.332031 421.144531 C 76.597656 426.523438 76.996094 431.894531 77.523438 437.253906 C 78.050781 442.613281 78.707031 447.957031 79.5 453.285156 C 80.289062 458.609375 81.210938 463.914062 82.261719 469.195312 C 83.3125 474.480469 84.492188 479.730469 85.800781 484.957031 C 87.109375 490.179688 88.542969 495.367188 90.105469 500.523438 C 91.671875 505.675781 93.359375 510.789062 95.171875 515.859375 C 96.988281 520.929688 98.925781 525.953125 100.984375 530.925781 C 103.046875 535.902344 105.226562 540.824219 107.53125 545.691406 C 109.832031 550.5625 112.253906 555.371094 114.792969 560.117188 C 117.332031 564.867188 119.984375 569.550781 122.753906 574.171875 C 125.523438 578.792969 128.402344 583.339844 131.394531 587.816406 C 134.386719 592.296875 137.488281 596.695312 140.695312 601.023438 C 143.902344 605.347656 147.214844 609.59375 150.632812 613.753906 C 154.046875 617.917969 157.5625 621.996094 161.179688 625.984375 C 164.796875 629.976562 168.507812 633.875 172.316406 637.683594 C 176.125 641.492188 180.023438 645.203125 184.015625 648.820312 C 188.003906 652.4375 192.082031 655.953125 196.246094 659.367188 C 200.40625 662.785156 204.652344 666.097656 208.976562 669.304688 C 213.304688 672.511719 217.703125 675.613281 222.183594 678.605469 C 226.660156 681.597656 231.207031 684.476562 235.828125 687.246094 C 240.445312 690.015625 245.132812 692.667969 249.882812 695.207031 C 254.628906 697.746094 259.4375 700.167969 264.308594 702.46875 C 269.175781 704.769531 274.097656 706.953125 279.074219 709.015625 C 284.046875 711.074219 289.070312 713.011719 294.140625 714.828125 C 299.210938 716.640625 304.324219 718.328125 309.476562 719.894531 C 314.632812 721.457031 319.820312 722.890625 325.042969 724.199219 C 330.269531 725.507812 335.519531 726.6875 340.804688 727.738281 C 346.085938 728.789062 351.390625 729.710938 356.714844 730.5 C 362.042969 731.292969 367.386719 731.949219 372.746094 732.476562 C 378.105469 733.003906 383.476562 733.402344 388.855469 733.667969 C 394.234375 733.929688 399.613281 734.0625 405 734.0625 C 473.058594 734.0625 544.535156 713.558594 596.203125 679.230469 C 596.894531 678.769531 597.558594 678.277344 598.199219 677.753906 C 598.84375 677.226562 599.457031 676.671875 600.042969 676.085938 C 600.628906 675.503906 601.1875 674.890625 601.714844 674.25 C 602.242188 673.609375 602.734375 672.945312 603.195312 672.257812 C 603.65625 671.570312 604.085938 670.859375 604.476562 670.128906 C 604.867188 669.398438 605.222656 668.652344 605.542969 667.886719 C 605.859375 667.121094 606.140625 666.34375 606.382812 665.550781 C 606.625 664.757812 606.828125 663.957031 606.992188 663.144531 C 607.15625 662.332031 607.277344 661.511719 607.359375 660.6875 C 607.445312 659.863281 607.484375 659.035156 607.488281 658.207031 C 607.488281 657.378906 607.449219 656.550781 607.371094 655.726562 C 607.292969 654.902344 607.171875 654.082031 607.011719 653.269531 C 606.851562 652.457031 606.652344 651.652344 606.414062 650.859375 C 606.175781 650.066406 605.898438 649.285156 605.582031 648.519531 C 605.265625 647.753906 604.914062 647.003906 604.527344 646.273438 C 604.136719 645.539062 603.710938 644.828125 603.253906 644.136719 C 602.796875 643.449219 602.304688 642.78125 601.78125 642.140625 C 601.253906 641.5 600.699219 640.882812 600.117188 640.296875 C 599.53125 639.707031 598.921875 639.152344 598.28125 638.625 C 597.640625 638.097656 596.976562 637.601562 596.289062 637.140625 C 595.601562 636.675781 594.894531 636.25 594.164062 635.855469 C 593.433594 635.464844 592.6875 635.109375 591.921875 634.789062 C 591.15625 634.46875 590.378906 634.1875 589.585938 633.945312 C 588.792969 633.703125 587.992188 633.5 587.179688 633.335938 C 586.367188 633.171875 585.546875 633.046875 584.722656 632.964844 C 583.898438 632.878906 583.074219 632.835938 582.242188 632.832031 C 581.414062 632.832031 580.589844 632.871094 579.761719 632.949219 C 578.9375 633.027344 578.117188 633.144531 577.304688 633.304688 C 576.492188 633.464844 575.6875 633.660156 574.894531 633.898438 C 574.101562 634.136719 573.320312 634.414062 572.554688 634.730469 C 571.785156 635.042969 571.039062 635.394531 570.304688 635.78125 C 569.574219 636.171875 568.863281 636.59375 568.171875 637.050781 C 525.234375 665.65625 462.617188 683.4375 405 683.4375 C 400.441406 683.4375 395.890625 683.324219 391.335938 683.101562 C 386.785156 682.878906 382.242188 682.542969 377.707031 682.097656 C 373.171875 681.648438 368.652344 681.09375 364.144531 680.421875 C 359.636719 679.753906 355.148438 678.976562 350.679688 678.085938 C 346.210938 677.199219 341.765625 676.199219 337.34375 675.09375 C 332.925781 673.984375 328.535156 672.769531 324.175781 671.449219 C 319.8125 670.125 315.488281 668.695312 311.195312 667.160156 C 306.90625 665.625 302.65625 663.988281 298.445312 662.242188 C 294.238281 660.5 290.070312 658.652344 285.953125 656.703125 C 281.832031 654.757812 277.765625 652.707031 273.746094 650.558594 C 269.726562 648.410156 265.761719 646.167969 261.855469 643.824219 C 257.945312 641.480469 254.097656 639.042969 250.308594 636.511719 C 246.519531 633.980469 242.796875 631.359375 239.136719 628.644531 C 235.476562 625.929688 231.882812 623.125 228.359375 620.234375 C 224.839844 617.34375 221.390625 614.367188 218.011719 611.308594 C 214.636719 608.25 211.335938 605.105469 208.113281 601.886719 C 204.894531 598.664062 201.75 595.363281 198.691406 591.988281 C 195.632812 588.609375 192.65625 585.160156 189.765625 581.640625 C 186.875 578.117188 184.070312 574.523438 181.355469 570.863281 C 178.640625 567.203125 176.019531 563.480469 173.488281 559.691406 C 170.957031 555.902344 168.519531 552.054688 166.175781 548.144531 C 163.832031 544.238281 161.589844 540.273438 159.441406 536.253906 C 157.292969 532.234375 155.242188 528.167969 153.296875 524.046875 C 151.347656 519.929688 149.5 515.761719 147.757812 511.554688 C 146.011719 507.34375 144.375 503.09375 142.839844 498.800781 C 141.304688 494.511719 139.875 490.1875 138.550781 485.824219 C 137.230469 481.464844 136.015625 477.074219 134.90625 472.65625 C 133.800781 468.234375 132.800781 463.789062 131.914062 459.320312 C 131.023438 454.851562 130.246094 450.363281 129.574219 445.855469 C 128.90625 441.347656 128.351562 436.828125 127.902344 432.292969 C 127.457031 427.757812 127.121094 423.214844 126.898438 418.664062 C 126.675781 414.109375 126.5625 409.558594 126.5625 405 C 126.5625 400.441406 126.675781 395.890625 126.898438 391.335938 C 127.121094 386.785156 127.457031 382.242188 127.902344 377.707031 C 128.351562 373.171875 128.90625 368.652344 129.574219 364.144531 C 130.246094 359.636719 131.023438 355.148438 131.914062 350.679688 C 132.800781 346.210938 133.800781 341.765625 134.90625 337.34375 C 136.015625 332.925781 137.230469 328.535156 138.550781 324.175781 C 139.875 319.8125 141.304688 315.488281 142.839844 311.195312 C 144.375 306.90625 146.011719 302.65625 147.757812 298.445312 C 149.5 294.238281 151.347656 290.070312 153.296875 285.953125 C 155.242188 281.832031 157.292969 277.765625 159.441406 273.746094 C 161.589844 269.726562 163.832031 265.761719 166.175781 261.855469 C 168.519531 257.945312 170.957031 254.097656 173.488281 250.308594 C 176.019531 246.519531 178.640625 242.796875 181.355469 239.136719 C 184.070312 235.476562 186.875 231.882812 189.765625 228.359375 C 192.65625 224.839844 195.632812 221.390625 198.691406 218.011719 C 201.75 214.636719 204.894531 211.335938 208.113281 208.113281 C 211.335938 204.894531 214.636719 201.75 218.011719 198.691406 C 221.390625 195.632812 224.839844 192.65625 228.359375 189.765625 C 231.882812 186.875 235.476562 184.070312 239.136719 181.355469 C 242.796875 178.640625 246.519531 176.019531 250.308594 173.488281 C 254.097656 170.957031 257.945312 168.519531 261.855469 166.175781 C 265.761719 163.832031 269.726562 161.589844 273.746094 159.441406 C 277.765625 157.292969 281.832031 155.242188 285.953125 153.296875 C 290.070312 151.347656 294.238281 149.5 298.445312 147.757812 C 302.65625 146.011719 306.90625 144.375 311.195312 142.839844 C 315.488281 141.304688 319.8125 139.875 324.175781 138.550781 C 328.535156 137.230469 332.925781 136.015625 337.34375 134.90625 C 341.765625 133.800781 346.210938 132.800781 350.679688 131.914062 C 355.148438 131.023438 359.636719 130.246094 364.144531 129.578125 C 368.652344 128.90625 373.171875 128.351562 377.707031 127.902344 C 382.242188 127.457031 386.785156 127.121094 391.335938 126.898438 C 395.890625 126.675781 400.441406 126.5625 405 126.5625 C 409.558594 126.5625 414.109375 126.675781 418.664062 126.898438 C 423.214844 127.121094 427.757812 127.457031 432.292969 127.902344 C 436.828125 128.351562 441.347656 128.90625 445.855469 129.578125 C 450.363281 130.246094 454.851562 131.023438 459.320312 131.914062 C 463.789062 132.800781 468.234375 133.800781 472.65625 134.90625 C 477.074219 136.015625 481.464844 137.230469 485.824219 138.550781 C 490.1875 139.875 494.511719 141.304688 498.800781 142.839844 C 503.09375 144.375 507.34375 146.011719 511.554688 147.757812 C 515.761719 149.5 519.929688 151.347656 524.046875 153.296875 C 528.167969 155.242188 532.234375 157.292969 536.253906 159.441406 C 540.273438 161.589844 544.238281 163.832031 548.144531 166.175781 C 552.054688 168.519531 555.902344 170.957031 559.691406 173.488281 C 563.480469 176.019531 567.203125 178.640625 570.863281 181.355469 C 574.523438 184.070312 578.117188 186.875 581.640625 189.765625 C 585.160156 192.65625 588.609375 195.632812 591.988281 198.691406 C 595.363281 201.75 598.664062 204.894531 601.886719 208.113281 C 605.105469 211.335938 608.25 214.636719 611.308594 218.011719 C 614.367188 221.390625 617.34375 224.839844 620.234375 228.359375 C 623.125 231.882812 625.929688 235.476562 628.644531 239.136719 C 631.359375 242.796875 633.980469 246.519531 636.511719 250.308594 C 639.042969 254.097656 641.480469 257.945312 643.824219 261.855469 C 646.167969 265.761719 648.410156 269.726562 650.558594 273.746094 C 652.707031 277.765625 654.757812 281.832031 656.703125 285.953125 C 658.652344 290.070312 660.5 294.238281 662.242188 298.445312 C 663.988281 302.65625 665.625 306.90625 667.160156 311.195312 C 668.695312 315.488281 670.125 319.8125 671.449219 324.175781 C 672.769531 328.535156 673.984375 332.925781 675.09375 337.34375 C 676.199219 341.765625 677.199219 346.210938 678.085938 350.679688 C 678.976562 355.148438 679.753906 359.636719 680.425781 364.144531 C 681.09375 368.652344 681.648438 373.171875 682.097656 377.707031 C 682.542969 382.242188 682.878906 386.785156 683.101562 391.335938 C 683.324219 395.890625 683.4375 400.441406 683.4375 405 C 683.4375 488.6875 649.011719 506.25 620.15625 506.25 C 591.300781 506.25 556.875 488.6875 556.875 405 L 556.875 278.4375 C 556.875 277.609375 556.835938 276.78125 556.753906 275.957031 C 556.671875 275.132812 556.550781 274.3125 556.386719 273.5 C 556.226562 272.6875 556.027344 271.882812 555.785156 271.089844 C 555.542969 270.296875 555.265625 269.515625 554.949219 268.75 C 554.632812 267.984375 554.277344 267.238281 553.886719 266.503906 C 553.496094 265.773438 553.070312 265.0625 552.609375 264.375 C 552.148438 263.683594 551.65625 263.019531 551.128906 262.378906 C 550.601562 261.738281 550.046875 261.125 549.460938 260.539062 C 548.875 259.953125 548.261719 259.398438 547.621094 258.871094 C 546.980469 258.34375 546.316406 257.851562 545.625 257.390625 C 544.9375 256.929688 544.226562 256.503906 543.496094 256.113281 C 542.761719 255.722656 542.015625 255.367188 541.25 255.050781 C 540.484375 254.734375 539.703125 254.457031 538.910156 254.214844 C 538.117188 253.972656 537.3125 253.773438 536.5 253.613281 C 535.6875 253.449219 534.867188 253.328125 534.042969 253.246094 C 533.21875 253.164062 532.390625 253.125 531.5625 253.125 C 530.734375 253.125 529.90625 253.164062 529.082031 253.246094 C 528.257812 253.328125 527.4375 253.449219 526.625 253.613281 C 525.8125 253.773438 525.007812 253.972656 524.214844 254.214844 C 523.421875 254.457031 522.640625 254.734375 521.875 255.050781 C 521.109375 255.367188 520.363281 255.722656 519.628906 256.113281 C 518.898438 256.503906 518.1875 256.929688 517.5 257.390625 C 516.808594 257.851562 516.144531 258.34375 515.503906 258.871094 C 514.863281 259.398438 514.25 259.953125 513.664062 260.539062 C 513.078125 261.125 512.523438 261.738281 511.996094 262.378906 C 511.46875 263.019531 510.976562 263.683594 510.515625 264.375 C 510.054688 265.0625 509.628906 265.773438 509.238281 266.503906 C 508.847656 267.238281 508.492188 267.984375 508.175781 268.75 C 507.859375 269.515625 507.582031 270.296875 507.339844 271.089844 C 507.097656 271.882812 506.898438 272.6875 506.734375 273.5 C 506.574219 274.3125 506.453125 275.132812 506.371094 275.957031 C 506.289062 276.78125 506.25 277.609375 506.25 278.4375 L 506.25 291.917969 C 504.371094 290.230469 502.449219 288.59375 500.488281 287.003906 C 498.527344 285.417969 496.53125 283.878906 494.492188 282.386719 C 492.453125 280.898438 490.382812 279.460938 488.273438 278.074219 C 486.164062 276.6875 484.019531 275.355469 481.84375 274.074219 C 479.667969 272.796875 477.460938 271.574219 475.226562 270.402344 C 472.988281 269.234375 470.726562 268.121094 468.433594 267.066406 C 466.140625 266.007812 463.824219 265.007812 461.480469 264.070312 C 459.140625 263.128906 456.777344 262.246094 454.390625 261.421875 C 452.003906 260.601562 449.597656 259.835938 447.175781 259.132812 C 444.75 258.429688 442.308594 257.789062 439.855469 257.207031 C 437.398438 256.625 434.929688 256.105469 432.449219 255.648438 C 429.964844 255.1875 427.472656 254.792969 424.972656 254.457031 C 422.46875 254.125 419.960938 253.851562 417.445312 253.644531 C 414.929688 253.433594 412.414062 253.289062 409.890625 253.203125 C 407.367188 253.121094 404.84375 253.101562 402.320312 253.144531 C 399.796875 253.183594 397.277344 253.289062 394.757812 253.457031 C 392.238281 253.625 389.726562 253.855469 387.21875 254.148438 C 384.714844 254.441406 382.214844 254.796875 379.726562 255.214844 C 377.238281 255.632812 374.761719 256.113281 372.292969 256.65625 C 369.828125 257.195312 367.378906 257.796875 364.945312 258.460938 C 362.507812 259.125 360.09375 259.847656 357.691406 260.632812 C 355.292969 261.417969 352.914062 262.261719 350.558594 263.164062 C 348.203125 264.066406 345.867188 265.027344 343.558594 266.042969 C 341.25 267.0625 338.96875 268.140625 336.710938 269.273438 C 334.457031 270.402344 332.230469 271.59375 330.035156 272.835938 C 327.839844 274.078125 325.675781 275.375 323.542969 276.726562 C 321.410156 278.078125 319.3125 279.484375 317.253906 280.941406 C 315.191406 282.394531 313.167969 283.902344 311.179688 285.457031 C 309.195312 287.015625 307.246094 288.621094 305.339844 290.273438 C 303.433594 291.929688 301.570312 293.628906 299.75 295.375 C 297.925781 297.121094 296.148438 298.914062 294.417969 300.75 C 292.683594 302.585938 291 304.460938 289.359375 306.382812 C 287.722656 308.300781 286.132812 310.261719 284.589844 312.257812 C 283.050781 314.257812 281.558594 316.292969 280.121094 318.367188 C 278.679688 320.441406 277.292969 322.546875 275.957031 324.691406 C 274.625 326.832031 273.34375 329.007812 272.117188 331.210938 C 270.890625 333.417969 269.71875 335.652344 268.605469 337.917969 C 267.492188 340.183594 266.433594 342.472656 265.433594 344.789062 C 264.433594 347.109375 263.492188 349.449219 262.605469 351.8125 C 261.722656 354.175781 260.898438 356.5625 260.132812 358.964844 C 259.367188 361.371094 258.664062 363.792969 258.019531 366.234375 C 257.375 368.675781 256.792969 371.128906 256.269531 373.597656 C 255.75 376.070312 255.289062 378.550781 254.890625 381.042969 C 254.492188 383.535156 254.15625 386.035156 253.882812 388.542969 C 253.609375 391.054688 253.398438 393.566406 253.25 396.085938 C 253.101562 398.605469 253.019531 401.128906 252.996094 403.652344 C 252.972656 406.175781 253.015625 408.699219 253.117188 411.21875 C 253.222656 413.742188 253.386719 416.261719 253.617188 418.773438 C 253.84375 421.289062 254.136719 423.792969 254.492188 426.292969 C 254.84375 428.792969 255.261719 431.28125 255.738281 433.757812 C 256.214844 436.238281 256.753906 438.703125 257.355469 441.152344 C 257.957031 443.605469 258.617188 446.039062 259.339844 448.457031 C 260.0625 450.875 260.84375 453.273438 261.6875 455.652344 C 262.527344 458.035156 263.429688 460.390625 264.390625 462.726562 C 265.347656 465.058594 266.367188 467.367188 267.441406 469.652344 C 268.515625 471.9375 269.644531 474.191406 270.832031 476.417969 C 272.019531 478.644531 273.261719 480.84375 274.558594 483.007812 C 275.855469 485.175781 277.203125 487.304688 278.605469 489.402344 C 280.007812 491.503906 281.460938 493.5625 282.96875 495.589844 C 284.472656 497.617188 286.027344 499.601562 287.632812 501.550781 C 289.238281 503.5 290.890625 505.40625 292.589844 507.273438 C 294.289062 509.136719 296.035156 510.960938 297.824219 512.738281 C 299.617188 514.519531 301.449219 516.25 303.324219 517.9375 C 305.203125 519.625 307.121094 521.265625 309.078125 522.855469 C 311.039062 524.449219 313.035156 525.992188 315.070312 527.484375 C 317.105469 528.976562 319.179688 530.417969 321.285156 531.804688 C 323.390625 533.195312 325.53125 534.53125 327.707031 535.8125 C 329.882812 537.09375 332.085938 538.320312 334.320312 539.492188 C 336.554688 540.664062 338.820312 541.78125 341.109375 542.839844 C 343.398438 543.902344 345.714844 544.902344 348.058594 545.847656 C 350.398438 546.789062 352.761719 547.675781 355.144531 548.503906 C 357.53125 549.328125 359.933594 550.09375 362.355469 550.800781 C 364.78125 551.507812 367.21875 552.152344 369.675781 552.738281 C 372.128906 553.324219 374.597656 553.847656 377.078125 554.308594 C 379.558594 554.769531 382.050781 555.167969 384.554688 555.507812 C 387.054688 555.84375 389.5625 556.121094 392.078125 556.332031 C 394.59375 556.542969 397.109375 556.695312 399.632812 556.78125 C 402.15625 556.867188 404.679688 556.890625 407.203125 556.851562 C 409.726562 556.816406 412.246094 556.710938 414.765625 556.546875 C 417.285156 556.382812 419.796875 556.15625 422.304688 555.867188 C 424.8125 555.578125 427.308594 555.226562 429.800781 554.808594 C 432.289062 554.394531 434.765625 553.921875 437.234375 553.382812 C 439.699219 552.84375 442.148438 552.246094 444.585938 551.585938 C 447.023438 550.925781 449.441406 550.203125 451.839844 549.425781 C 454.242188 548.644531 456.621094 547.804688 458.976562 546.902344 C 461.335938 546.003906 463.671875 545.046875 465.980469 544.03125 C 468.292969 543.015625 470.574219 541.941406 472.832031 540.8125 C 475.089844 539.683594 477.316406 538.5 479.515625 537.257812 C 481.714844 536.019531 483.878906 534.722656 486.011719 533.375 C 488.144531 532.027344 490.246094 530.625 492.308594 529.171875 C 494.371094 527.71875 496.398438 526.214844 498.386719 524.660156 C 500.375 523.105469 502.324219 521.503906 504.234375 519.851562 C 506.140625 518.203125 508.007812 516.503906 509.832031 514.757812 C 511.65625 513.015625 513.433594 511.226562 515.171875 509.394531 C 516.90625 507.558594 518.59375 505.683594 520.234375 503.769531 C 521.875 501.851562 523.46875 499.894531 525.011719 497.898438 C 543.996094 535.867188 576.746094 556.875 620.15625 556.875 C 691.472656 556.875 734.0625 500.113281 734.0625 405 C 734.058594 399.617188 733.917969 394.234375 733.648438 388.859375 C 733.378906 383.480469 732.980469 378.113281 732.445312 372.757812 C 731.914062 367.398438 731.25 362.058594 730.457031 356.734375 C 729.660156 351.410156 728.738281 346.105469 727.683594 340.828125 C 726.628906 335.546875 725.445312 330.296875 724.132812 325.074219 C 722.820312 319.855469 721.382812 314.667969 719.816406 309.515625 C 718.25 304.367188 716.558594 299.257812 714.742188 294.1875 C 712.925781 289.121094 710.984375 284.101562 708.921875 279.128906 C 706.859375 274.15625 704.675781 269.234375 702.371094 264.371094 C 700.066406 259.503906 697.644531 254.695312 695.105469 249.949219 C 692.566406 245.203125 689.910156 240.519531 687.140625 235.902344 C 684.371094 231.285156 681.492188 226.742188 678.5 222.265625 C 675.507812 217.789062 672.40625 213.390625 669.199219 209.066406 C 665.992188 204.742188 662.679688 200.5 659.261719 196.339844 C 655.847656 192.175781 652.332031 188.101562 648.714844 184.113281 C 645.097656 180.125 641.386719 176.226562 637.582031 172.417969 C 633.773438 168.613281 629.875 164.902344 625.886719 161.285156 C 621.898438 157.667969 617.824219 154.152344 613.660156 150.738281 C 609.5 147.320312 605.257812 144.007812 600.933594 140.800781 C 596.609375 137.59375 592.210938 134.492188 587.734375 131.5 C 583.257812 128.507812 578.714844 125.628906 574.097656 122.859375 C 569.480469 120.089844 564.796875 117.433594 560.050781 114.894531 C 555.304688 112.355469 550.496094 109.933594 545.632812 107.628906 C 540.765625 105.324219 535.84375 103.140625 530.871094 101.078125 C 525.898438 99.015625 520.878906 97.074219 515.8125 95.257812 C 510.742188 93.441406 505.632812 91.75 500.484375 90.183594 C 495.332031 88.617188 490.144531 87.179688 484.925781 85.867188 C 479.703125 84.554688 474.453125 83.371094 469.171875 82.316406 C 463.894531 81.261719 458.589844 80.339844 453.265625 79.542969 C 447.941406 78.75 442.601562 78.085938 437.242188 77.554688 C 431.886719 77.019531 426.519531 76.621094 421.140625 76.351562 C 415.765625 76.082031 410.382812 75.941406 405 75.9375 Z M 405 506.25 C 403.34375 506.25 401.6875 506.210938 400.03125 506.128906 C 398.375 506.046875 396.726562 505.925781 395.074219 505.761719 C 393.425781 505.601562 391.78125 505.398438 390.144531 505.152344 C 388.503906 504.910156 386.871094 504.628906 385.246094 504.304688 C 383.621094 503.980469 382.003906 503.617188 380.398438 503.214844 C 378.789062 502.8125 377.195312 502.371094 375.609375 501.890625 C 374.023438 501.410156 372.449219 500.890625 370.890625 500.332031 C 369.328125 499.773438 367.785156 499.175781 366.253906 498.542969 C 364.722656 497.910156 363.207031 497.238281 361.710938 496.527344 C 360.210938 495.820312 358.730469 495.074219 357.269531 494.292969 C 355.808594 493.511719 354.367188 492.695312 352.945312 491.84375 C 351.527344 490.992188 350.125 490.105469 348.75 489.1875 C 347.371094 488.265625 346.015625 487.3125 344.683594 486.324219 C 343.355469 485.335938 342.046875 484.320312 340.769531 483.265625 C 339.488281 482.214844 338.230469 481.132812 337.003906 480.019531 C 335.777344 478.910156 334.578125 477.765625 333.40625 476.59375 C 332.234375 475.421875 331.089844 474.222656 329.980469 472.996094 C 328.867188 471.765625 327.785156 470.511719 326.734375 469.230469 C 325.679688 467.953125 324.664062 466.644531 323.675781 465.316406 C 322.6875 463.984375 321.734375 462.628906 320.8125 461.25 C 319.894531 459.875 319.007812 458.472656 318.15625 457.054688 C 317.304688 455.632812 316.488281 454.191406 315.707031 452.730469 C 314.925781 451.265625 314.179688 449.789062 313.472656 448.289062 C 312.761719 446.792969 312.089844 445.277344 311.457031 443.746094 C 310.824219 442.214844 310.226562 440.671875 309.667969 439.109375 C 309.109375 437.550781 308.589844 435.976562 308.109375 434.390625 C 307.628906 432.804688 307.1875 431.210938 306.785156 429.601562 C 306.382812 427.996094 306.019531 426.378906 305.695312 424.753906 C 305.371094 423.128906 305.089844 421.496094 304.847656 419.855469 C 304.601562 418.21875 304.398438 416.574219 304.238281 414.925781 C 304.074219 413.273438 303.953125 411.625 303.871094 409.96875 C 303.789062 408.3125 303.75 406.65625 303.75 405 C 303.75 403.34375 303.789062 401.6875 303.871094 400.03125 C 303.953125 398.375 304.074219 396.726562 304.238281 395.074219 C 304.398438 393.425781 304.601562 391.78125 304.847656 390.144531 C 305.089844 388.503906 305.371094 386.871094 305.695312 385.246094 C 306.019531 383.621094 306.382812 382.003906 306.785156 380.398438 C 307.1875 378.789062 307.628906 377.195312 308.109375 375.609375 C 308.589844 374.023438 309.109375 372.449219 309.667969 370.890625 C 310.226562 369.328125 310.824219 367.785156 311.457031 366.253906 C 312.089844 364.722656 312.761719 363.207031 313.472656 361.710938 C 314.179688 360.210938 314.925781 358.730469 315.707031 357.269531 C 316.488281 355.808594 317.304688 354.367188 318.15625 352.945312 C 319.007812 351.527344 319.894531 350.125 320.8125 348.75 C 321.734375 347.371094 322.6875 346.015625 323.675781 344.683594 C 324.664062 343.355469 325.679688 342.046875 326.734375 340.769531 C 327.785156 339.488281 328.867188 338.230469 329.980469 337.003906 C 331.089844 335.777344 332.234375 334.578125 333.40625 333.40625 C 334.578125 332.234375 335.777344 331.089844 337.003906 329.980469 C 338.230469 328.867188 339.488281 327.785156 340.769531 326.734375 C 342.046875 325.679688 343.355469 324.664062 344.683594 323.675781 C 346.015625 322.6875 347.371094 321.734375 348.75 320.8125 C 350.125 319.894531 351.527344 319.007812 352.945312 318.15625 C 354.367188 317.304688 355.808594 316.488281 357.269531 315.707031 C 358.730469 314.925781 360.210938 314.179688 361.710938 313.472656 C 363.207031 312.761719 364.722656 312.089844 366.253906 311.457031 C 367.785156 310.824219 369.328125 310.226562 370.890625 309.667969 C 372.449219 309.109375 374.023438 308.589844 375.609375 308.109375 C 377.195312 307.628906 378.789062 307.1875 380.398438 306.785156 C 382.003906 306.382812 383.621094 306.019531 385.246094 305.695312 C 386.871094 305.371094 388.503906 305.089844 390.144531 304.847656 C 391.78125 304.601562 393.425781 304.398438 395.074219 304.238281 C 396.726562 304.074219 398.375 303.953125 400.03125 303.871094 C 401.6875 303.789062 403.34375 303.75 405 303.75 C 406.65625 303.75 408.3125 303.789062 409.96875 303.871094 C 411.625 303.953125 413.273438 304.074219 414.925781 304.238281 C 416.574219 304.398438 418.21875 304.601562 419.855469 304.847656 C 421.496094 305.089844 423.128906 305.371094 424.753906 305.695312 C 426.378906 306.019531 427.996094 306.382812 429.601562 306.785156 C 431.210938 307.1875 432.804688 307.628906 434.390625 308.109375 C 435.976562 308.589844 437.550781 309.109375 439.109375 309.667969 C 440.671875 310.226562 442.214844 310.824219 443.746094 311.457031 C 445.277344 312.089844 446.792969 312.761719 448.289062 313.472656 C 449.789062 314.179688 451.265625 314.925781 452.730469 315.707031 C 454.191406 316.488281 455.632812 317.304688 457.054688 318.15625 C 458.472656 319.007812 459.875 319.894531 461.25 320.8125 C 462.628906 321.734375 463.984375 322.6875 465.316406 323.675781 C 466.644531 324.664062 467.953125 325.679688 469.230469 326.734375 C 470.511719 327.785156 471.765625 328.867188 472.996094 329.980469 C 474.222656 331.089844 475.421875 332.234375 476.59375 333.40625 C 477.765625 334.578125 478.910156 335.777344 480.019531 337.003906 C 481.132812 338.234375 482.214844 339.488281 483.265625 340.769531 C 484.320312 342.046875 485.335938 343.355469 486.324219 344.683594 C 487.3125 346.015625 488.265625 347.371094 489.1875 348.75 C 490.105469 350.125 490.992188 351.527344 491.84375 352.945312 C 492.695312 354.367188 493.511719 355.808594 494.292969 357.269531 C 495.074219 358.730469 495.820312 360.210938 496.527344 361.710938 C 497.238281 363.207031 497.910156 364.722656 498.542969 366.253906 C 499.175781 367.785156 499.773438 369.328125 500.332031 370.890625 C 500.890625 372.449219 501.410156 374.023438 501.890625 375.609375 C 502.371094 377.195312 502.8125 378.789062 503.214844 380.398438 C 503.617188 382.003906 503.980469 383.621094 504.304688 385.246094 C 504.628906 386.871094 504.910156 388.503906 505.152344 390.144531 C 505.398438 391.78125 505.601562 393.425781 505.761719 395.074219 C 505.925781 396.726562 506.046875 398.375 506.128906 400.03125 C 506.210938 401.6875 506.25 403.34375 506.25 405 C 506.25 406.65625 506.210938 408.3125 506.128906 409.96875 C 506.046875 411.625 505.925781 413.273438 505.761719 414.925781 C 505.601562 416.574219 505.398438 418.21875 505.152344 419.855469 C 504.910156 421.496094 504.628906 423.128906 504.304688 424.753906 C 503.980469 426.378906 503.617188 427.996094 503.214844 429.601562 C 502.8125 431.210938 502.371094 432.804688 501.890625 434.390625 C 501.410156 435.976562 500.890625 437.550781 500.332031 439.109375 C 499.773438 440.671875 499.175781 442.214844 498.542969 443.746094 C 497.910156 445.277344 497.238281 446.792969 496.527344 448.289062 C 495.820312 449.789062 495.074219 451.265625 494.292969 452.730469 C 493.511719 454.191406 492.695312 455.632812 491.84375 457.054688 C 490.992188 458.472656 490.105469 459.875 489.1875 461.25 C 488.265625 462.628906 487.3125 463.984375 486.324219 465.316406 C 485.335938 466.644531 484.320312 467.953125 483.265625 469.230469 C 482.214844 470.511719 481.132812 471.765625 480.019531 472.996094 C 478.910156 474.222656 477.765625 475.421875 476.59375 476.59375 C 475.421875 477.765625 474.222656 478.910156 472.996094 480.019531 C 471.765625 481.132812 470.511719 482.214844 469.230469 483.265625 C 467.953125 484.320312 466.644531 485.335938 465.316406 486.324219 C 463.984375 487.3125 462.628906 488.265625 461.25 489.1875 C 459.875 490.105469 458.472656 490.992188 457.054688 491.84375 C 455.632812 492.695312 454.191406 493.511719 452.730469 494.292969 C 451.265625 495.074219 449.789062 495.820312 448.289062 496.527344 C 446.792969 497.238281 445.277344 497.910156 443.746094 498.542969 C 442.214844 499.175781 440.671875 499.773438 439.109375 500.332031 C 437.550781 500.890625 435.976562 501.410156 434.390625 501.890625 C 432.804688 502.371094 431.210938 502.8125 429.601562 503.214844 C 427.996094 503.617188 426.378906 503.980469 424.753906 504.304688 C 423.128906 504.628906 421.496094 504.910156 419.855469 505.152344 C 418.21875 505.398438 416.574219 505.601562 414.925781 505.761719 C 413.273438 505.925781 411.625 506.046875 409.96875 506.128906 C 408.3125 506.210938 406.65625 506.25 405 506.25 Z M 405 506.25 " fill-opacity="1" fill-rule="nonzero"/></svg>