<svg xmlns="http://www.w3.org/2000/svg" xmlns:xlink="http://www.w3.org/1999/xlink" width="1080" zoomAndPan="magnify" viewBox="0 0 810 809.999993" height="1080" preserveAspectRatio="xMidYMid meet" version="1.0"><path fill="#ffffff" d="M 593.515625 458.28125 L 492.265625 407.65625 C 491.273438 407.164062 490.253906 406.734375 489.203125 406.375 C 488.15625 406.015625 487.089844 405.726562 486.003906 405.503906 C 484.917969 405.285156 483.820312 405.136719 482.714844 405.058594 C 481.609375 404.984375 480.503906 404.980469 479.394531 405.050781 C 478.289062 405.117188 477.191406 405.261719 476.105469 405.472656 C 475.015625 405.6875 473.949219 405.96875 472.898438 406.324219 C 471.847656 406.675781 470.824219 407.097656 469.828125 407.585938 C 468.835938 408.074219 467.875 408.625 466.953125 409.238281 L 420.472656 440.246094 C 415.164062 437.328125 410.089844 434.054688 405.246094 430.417969 C 400.402344 426.78125 395.839844 422.820312 391.558594 418.539062 C 387.273438 414.253906 383.316406 409.691406 379.679688 404.847656 C 376.042969 400.003906 372.765625 394.929688 369.847656 389.621094 L 400.855469 343.140625 C 401.46875 342.21875 402.019531 341.261719 402.507812 340.265625 C 402.996094 339.269531 403.417969 338.246094 403.769531 337.195312 C 404.125 336.148438 404.40625 335.078125 404.621094 333.988281 C 404.835938 332.902344 404.976562 331.804688 405.046875 330.699219 C 405.113281 329.59375 405.109375 328.488281 405.035156 327.378906 C 404.957031 326.273438 404.808594 325.179688 404.589844 324.09375 C 404.371094 323.007812 404.078125 321.9375 403.71875 320.890625 C 403.359375 319.84375 402.929688 318.820312 402.4375 317.828125 L 351.8125 216.582031 C 351.289062 215.527344 350.699219 214.511719 350.035156 213.542969 C 349.371094 212.570312 348.644531 211.648438 347.851562 210.777344 C 347.058594 209.910156 346.210938 209.097656 345.308594 208.34375 C 344.402344 207.59375 343.449219 206.90625 342.449219 206.289062 C 341.449219 205.667969 340.410156 205.121094 339.335938 204.648438 C 338.257812 204.175781 337.152344 203.777344 336.019531 203.457031 C 334.890625 203.136719 333.742188 202.894531 332.574219 202.734375 C 331.410156 202.574219 330.238281 202.496094 329.0625 202.5 C 326.992188 202.5 324.921875 202.550781 322.851562 202.652344 C 320.785156 202.753906 318.71875 202.90625 316.65625 203.109375 C 314.597656 203.3125 312.539062 203.566406 310.492188 203.871094 C 308.441406 204.171875 306.402344 204.527344 304.371094 204.933594 C 302.339844 205.335938 300.320312 205.789062 298.308594 206.292969 C 296.300781 206.796875 294.304688 207.347656 292.324219 207.949219 C 290.339844 208.550781 288.375 209.199219 286.425781 209.898438 C 284.476562 210.597656 282.542969 211.339844 280.628906 212.132812 C 278.714844 212.925781 276.824219 213.765625 274.949219 214.652344 C 273.078125 215.535156 271.226562 216.46875 269.402344 217.445312 C 267.574219 218.421875 265.773438 219.441406 263.996094 220.507812 C 262.21875 221.570312 260.46875 222.679688 258.75 223.828125 C 257.027344 224.980469 255.332031 226.171875 253.667969 227.40625 C 252.003906 228.640625 250.375 229.914062 248.773438 231.226562 C 247.171875 232.542969 245.601562 233.894531 244.066406 235.285156 C 242.535156 236.675781 241.035156 238.105469 239.570312 239.570312 C 238.105469 241.035156 236.675781 242.535156 235.285156 244.066406 C 233.894531 245.601562 232.542969 247.171875 231.226562 248.773438 C 229.914062 250.375 228.640625 252.003906 227.40625 253.667969 C 226.171875 255.332031 224.980469 257.027344 223.828125 258.75 C 222.679688 260.46875 221.570312 262.21875 220.507812 263.996094 C 219.441406 265.773438 218.421875 267.574219 217.445312 269.402344 C 216.46875 271.226562 215.535156 273.078125 214.652344 274.949219 C 213.765625 276.824219 212.925781 278.714844 212.132812 280.628906 C 211.339844 282.542969 210.597656 284.476562 209.898438 286.425781 C 209.199219 288.375 208.550781 290.339844 207.949219 292.324219 C 207.347656 294.304688 206.796875 296.300781 206.292969 298.308594 C 205.789062 300.320312 205.335938 302.339844 204.933594 304.371094 C 204.527344 306.402344 204.171875 308.441406 203.871094 310.492188 C 203.566406 312.539062 203.3125 314.597656 203.109375 316.65625 C 202.90625 318.71875 202.753906 320.785156 202.652344 322.851562 C 202.550781 324.921875 202.5 326.992188 202.5 329.0625 C 202.503906 333.617188 202.621094 338.171875 202.851562 342.71875 C 203.078125 347.269531 203.417969 351.8125 203.871094 356.34375 C 204.320312 360.878906 204.882812 365.398438 205.554688 369.902344 C 206.226562 374.40625 207.011719 378.894531 207.902344 383.359375 C 208.792969 387.828125 209.796875 392.269531 210.90625 396.6875 C 212.015625 401.105469 213.234375 405.496094 214.558594 409.851562 C 215.886719 414.210938 217.316406 418.535156 218.855469 422.824219 C 220.390625 427.109375 222.035156 431.359375 223.777344 435.566406 C 225.523438 439.773438 227.371094 443.9375 229.324219 448.054688 C 231.273438 452.171875 233.320312 456.238281 235.46875 460.253906 C 237.621094 464.269531 239.867188 468.234375 242.210938 472.140625 C 244.550781 476.046875 246.992188 479.890625 249.523438 483.679688 C 252.054688 487.464844 254.675781 491.1875 257.390625 494.847656 C 260.105469 498.507812 262.910156 502.09375 265.800781 505.617188 C 268.691406 509.136719 271.664062 512.585938 274.722656 515.960938 C 277.785156 519.335938 280.921875 522.632812 284.144531 525.855469 C 287.367188 529.078125 290.664062 532.214844 294.039062 535.277344 C 297.414062 538.335938 300.863281 541.308594 304.382812 544.199219 C 307.90625 547.089844 311.496094 549.894531 315.152344 552.609375 C 318.8125 555.324219 322.535156 557.945312 326.320312 560.476562 C 330.109375 563.007812 333.953125 565.449219 337.859375 567.789062 C 341.765625 570.132812 345.730469 572.378906 349.746094 574.53125 C 353.761719 576.679688 357.828125 578.726562 361.945312 580.675781 C 366.0625 582.628906 370.226562 584.476562 374.433594 586.222656 C 378.640625 587.964844 382.890625 589.609375 387.175781 591.144531 C 391.464844 592.683594 395.789062 594.113281 400.148438 595.441406 C 404.503906 596.765625 408.894531 597.984375 413.3125 599.09375 C 417.730469 600.203125 422.171875 601.207031 426.640625 602.097656 C 431.105469 602.988281 435.59375 603.773438 440.097656 604.445312 C 444.601562 605.117188 449.121094 605.679688 453.65625 606.128906 C 458.1875 606.582031 462.730469 606.921875 467.28125 607.148438 C 471.828125 607.378906 476.382812 607.496094 480.9375 607.5 C 483.007812 607.5 485.078125 607.449219 487.148438 607.347656 C 489.214844 607.246094 491.28125 607.09375 493.34375 606.890625 C 495.402344 606.6875 497.460938 606.433594 499.507812 606.128906 C 501.558594 605.824219 503.597656 605.472656 505.628906 605.066406 C 507.660156 604.664062 509.679688 604.210938 511.691406 603.707031 C 513.699219 603.203125 515.695312 602.652344 517.675781 602.050781 C 519.660156 601.449219 521.625 600.800781 523.574219 600.101562 C 525.523438 599.402344 527.457031 598.660156 529.371094 597.867188 C 531.285156 597.074219 533.175781 596.234375 535.050781 595.347656 C 536.921875 594.464844 538.773438 593.53125 540.597656 592.554688 C 542.425781 591.578125 544.226562 590.558594 546.003906 589.492188 C 547.78125 588.429688 549.53125 587.320312 551.25 586.171875 C 552.972656 585.019531 554.667969 583.828125 556.332031 582.59375 C 557.996094 581.359375 559.625 580.085938 561.226562 578.773438 C 562.828125 577.457031 564.398438 576.105469 565.929688 574.714844 C 567.464844 573.324219 568.964844 571.894531 570.429688 570.429688 C 571.894531 568.964844 573.324219 567.464844 574.714844 565.933594 C 576.105469 564.398438 577.457031 562.828125 578.773438 561.226562 C 580.085938 559.625 581.359375 557.996094 582.59375 556.332031 C 583.828125 554.667969 585.019531 552.972656 586.171875 551.25 C 587.320312 549.53125 588.429688 547.78125 589.492188 546.003906 C 590.558594 544.226562 591.578125 542.425781 592.554688 540.597656 C 593.53125 538.773438 594.464844 536.921875 595.347656 535.050781 C 596.234375 533.175781 597.074219 531.285156 597.867188 529.371094 C 598.660156 527.457031 599.402344 525.523438 600.101562 523.574219 C 600.800781 521.625 601.449219 519.660156 602.050781 517.675781 C 602.652344 515.695312 603.203125 513.699219 603.707031 511.691406 C 604.210938 509.679688 604.664062 507.660156 605.066406 505.628906 C 605.472656 503.597656 605.824219 501.558594 606.128906 499.507812 C 606.433594 497.460938 606.6875 495.402344 606.890625 493.34375 C 607.09375 491.28125 607.246094 489.214844 607.347656 487.148438 C 607.449219 485.078125 607.5 483.007812 607.5 480.9375 C 607.5 479.765625 607.421875 478.601562 607.261719 477.445312 C 607.101562 476.285156 606.859375 475.144531 606.539062 474.015625 C 606.222656 472.890625 605.828125 471.792969 605.355469 470.722656 C 604.882812 469.652344 604.339844 468.617188 603.726562 467.621094 C 603.113281 466.628906 602.429688 465.679688 601.683594 464.777344 C 600.9375 463.875 600.132812 463.03125 599.269531 462.242188 C 598.40625 461.453125 597.496094 460.726562 596.53125 460.0625 C 595.566406 459.398438 594.5625 458.804688 593.515625 458.28125 Z M 480.9375 556.875 C 477.210938 556.871094 473.484375 556.773438 469.761719 556.589844 C 466.039062 556.402344 462.324219 556.125 458.617188 555.753906 C 454.90625 555.386719 451.210938 554.925781 447.523438 554.375 C 443.835938 553.828125 440.164062 553.1875 436.511719 552.457031 C 432.855469 551.726562 429.222656 550.90625 425.605469 549.996094 C 421.992188 549.089844 418.402344 548.09375 414.835938 547.007812 C 411.269531 545.925781 407.730469 544.753906 404.222656 543.496094 C 400.714844 542.238281 397.238281 540.894531 393.796875 539.464844 C 390.355469 538.039062 386.949219 536.527344 383.578125 534.929688 C 380.210938 533.335938 376.882812 531.660156 373.597656 529.902344 C 370.3125 528.140625 367.070312 526.304688 363.875 524.386719 C 360.675781 522.46875 357.53125 520.476562 354.429688 518.402344 C 351.332031 516.332031 348.285156 514.1875 345.292969 511.964844 C 342.300781 509.746094 339.363281 507.453125 336.484375 505.085938 C 333.601562 502.722656 330.78125 500.289062 328.019531 497.785156 C 325.257812 495.28125 322.558594 492.710938 319.921875 490.078125 C 317.289062 487.441406 314.71875 484.742188 312.214844 481.980469 C 309.710938 479.21875 307.277344 476.398438 304.914062 473.515625 C 302.546875 470.636719 300.253906 467.699219 298.035156 464.707031 C 295.8125 461.714844 293.667969 458.667969 291.597656 455.570312 C 289.523438 452.46875 287.53125 449.324219 285.613281 446.125 C 283.695312 442.929688 281.859375 439.6875 280.097656 436.402344 C 278.339844 433.117188 276.664062 429.789062 275.070312 426.421875 C 273.472656 423.050781 271.960938 419.644531 270.535156 416.203125 C 269.105469 412.761719 267.761719 409.285156 266.503906 405.777344 C 265.246094 402.269531 264.074219 398.730469 262.992188 395.164062 C 261.90625 391.597656 260.910156 388.007812 260.003906 384.394531 C 259.09375 380.777344 258.273438 377.144531 257.542969 373.488281 C 256.8125 369.835938 256.171875 366.164062 255.625 362.476562 C 255.074219 358.789062 254.613281 355.09375 254.246094 351.382812 C 253.875 347.675781 253.597656 343.960938 253.410156 340.238281 C 253.222656 336.515625 253.128906 332.789062 253.125 329.0625 C 253.125 326.886719 253.21875 324.71875 253.402344 322.550781 C 253.589844 320.386719 253.867188 318.230469 254.238281 316.089844 C 254.609375 313.945312 255.070312 311.824219 255.625 309.71875 C 256.175781 307.617188 256.820312 305.542969 257.550781 303.496094 C 258.28125 301.445312 259.101562 299.433594 260.003906 297.457031 C 260.910156 295.480469 261.898438 293.546875 262.96875 291.652344 C 264.039062 289.761719 265.1875 287.917969 266.417969 286.125 C 267.644531 284.328125 268.949219 282.589844 270.328125 280.910156 C 271.703125 279.226562 273.152344 277.609375 274.671875 276.050781 C 276.1875 274.492188 277.769531 273.003906 279.414062 271.582031 C 281.058594 270.160156 282.761719 268.8125 284.523438 267.539062 C 286.285156 266.261719 288.097656 265.066406 289.960938 263.945312 C 291.824219 262.824219 293.734375 261.789062 295.6875 260.832031 C 297.640625 259.875 299.628906 259.007812 301.65625 258.222656 C 303.683594 257.4375 305.742188 256.742188 307.832031 256.132812 C 309.917969 255.523438 312.027344 255.007812 314.160156 254.582031 L 350.484375 327.355469 L 319.570312 373.359375 C 318.414062 375.09375 317.488281 376.9375 316.789062 378.898438 C 316.089844 380.863281 315.640625 382.878906 315.4375 384.949219 C 315.238281 387.023438 315.289062 389.089844 315.597656 391.148438 C 315.90625 393.207031 316.460938 395.199219 317.261719 397.121094 C 319.496094 402.4375 321.988281 407.636719 324.726562 412.710938 C 327.46875 417.789062 330.445312 422.71875 333.664062 427.507812 C 336.882812 432.292969 340.324219 436.914062 343.992188 441.371094 C 347.65625 445.824219 351.53125 450.089844 355.609375 454.167969 C 359.6875 458.25 363.953125 462.121094 368.410156 465.785156 C 372.863281 469.453125 377.484375 472.894531 382.269531 476.113281 C 387.058594 479.332031 391.992188 482.3125 397.066406 485.050781 C 402.144531 487.792969 407.339844 490.28125 412.65625 492.519531 C 414.585938 493.351562 416.585938 493.9375 418.660156 494.277344 C 420.734375 494.613281 422.820312 494.691406 424.914062 494.507812 C 427.007812 494.324219 429.046875 493.890625 431.03125 493.199219 C 433.015625 492.507812 434.886719 491.585938 436.640625 490.429688 L 482.867188 459.613281 L 555.640625 495.933594 C 555.210938 498.070312 554.691406 500.179688 554.078125 502.269531 C 553.464844 504.359375 552.765625 506.421875 551.976562 508.449219 C 551.1875 510.480469 550.3125 512.472656 549.355469 514.425781 C 548.394531 516.378906 547.351562 518.289062 546.226562 520.152344 C 545.101562 522.019531 543.902344 523.832031 542.621094 525.59375 C 541.339844 527.351562 539.984375 529.054688 538.558594 530.699219 C 537.132812 532.34375 535.636719 533.925781 534.074219 535.441406 C 532.511719 536.957031 530.886719 538.402344 529.199219 539.78125 C 527.511719 541.15625 525.769531 542.457031 523.972656 543.683594 C 522.171875 544.910156 520.324219 546.058594 518.425781 547.125 C 516.527344 548.191406 514.585938 549.175781 512.605469 550.078125 C 510.621094 550.976562 508.605469 551.789062 506.554688 552.519531 C 504.5 553.246094 502.421875 553.882812 500.3125 554.429688 C 498.207031 554.976562 496.078125 555.433594 493.933594 555.800781 C 491.785156 556.164062 489.628906 556.4375 487.457031 556.617188 C 485.289062 556.796875 483.113281 556.882812 480.9375 556.875 Z M 405 75.9375 C 397.933594 75.9375 390.878906 76.160156 383.828125 76.613281 C 376.777344 77.066406 369.75 77.746094 362.742188 78.652344 C 355.738281 79.558594 348.765625 80.6875 341.832031 82.042969 C 334.898438 83.398438 328.015625 84.972656 321.183594 86.773438 C 314.351562 88.570312 307.585938 90.585938 300.882812 92.820312 C 294.183594 95.054688 287.558594 97.5 281.015625 100.160156 C 274.46875 102.820312 268.015625 105.6875 261.65625 108.765625 C 255.296875 111.839844 249.042969 115.117188 242.894531 118.597656 C 236.746094 122.074219 230.714844 125.746094 224.800781 129.613281 C 218.890625 133.480469 213.109375 137.535156 207.457031 141.773438 C 201.804688 146.015625 196.296875 150.429688 190.929688 155.027344 C 185.5625 159.621094 180.351562 164.382812 175.289062 169.3125 C 170.230469 174.242188 165.335938 179.328125 160.601562 184.574219 C 155.871094 189.820312 151.3125 195.214844 146.925781 200.753906 C 142.542969 206.292969 138.339844 211.964844 134.320312 217.773438 C 130.300781 223.585938 126.472656 229.519531 122.835938 235.574219 C 119.195312 241.628906 115.757812 247.796875 112.519531 254.074219 C 109.277344 260.351562 106.242188 266.726562 103.414062 273.203125 C 100.582031 279.675781 97.964844 286.230469 95.558594 292.875 C 93.152344 299.515625 90.960938 306.226562 88.984375 313.011719 C 87.011719 319.792969 85.253906 326.632812 83.722656 333.53125 C 82.1875 340.425781 80.875 347.363281 79.789062 354.34375 C 78.699219 361.324219 77.839844 368.332031 77.203125 375.367188 C 76.566406 382.40625 76.15625 389.453125 75.976562 396.515625 C 75.792969 403.578125 75.839844 410.640625 76.109375 417.699219 C 76.382812 424.757812 76.882812 431.800781 77.609375 438.828125 C 78.335938 445.855469 79.285156 452.851562 80.464844 459.816406 C 81.640625 466.785156 83.039062 473.703125 84.664062 480.582031 C 86.285156 487.457031 88.128906 494.273438 90.191406 501.03125 C 92.25 507.785156 94.527344 514.46875 97.019531 521.082031 C 99.511719 527.691406 102.214844 534.214844 105.125 540.652344 C 108.039062 547.085938 111.15625 553.421875 114.476562 559.660156 L 78.5625 667.394531 C 77.824219 669.613281 77.238281 671.875 76.8125 674.175781 C 76.386719 676.476562 76.121094 678.792969 76.015625 681.128906 C 75.910156 683.46875 75.964844 685.800781 76.183594 688.128906 C 76.402344 690.460938 76.78125 692.761719 77.316406 695.039062 C 77.855469 697.316406 78.546875 699.546875 79.390625 701.726562 C 80.238281 703.90625 81.230469 706.019531 82.371094 708.0625 C 83.511719 710.105469 84.785156 712.0625 86.195312 713.925781 C 87.605469 715.792969 89.136719 717.554688 90.792969 719.207031 C 92.445312 720.863281 94.207031 722.394531 96.074219 723.804688 C 97.9375 725.214844 99.894531 726.488281 101.9375 727.628906 C 103.980469 728.769531 106.09375 729.761719 108.273438 730.605469 C 110.453125 731.453125 112.683594 732.144531 114.960938 732.683594 C 117.238281 733.21875 119.539062 733.597656 121.871094 733.816406 C 124.199219 734.035156 126.53125 734.089844 128.871094 733.984375 C 131.207031 733.878906 133.523438 733.613281 135.824219 733.1875 C 138.125 732.761719 140.386719 732.175781 142.605469 731.4375 L 250.339844 695.523438 C 255.835938 698.445312 261.40625 701.210938 267.058594 703.816406 C 272.710938 706.421875 278.429688 708.867188 284.21875 711.148438 C 290.007812 713.429688 295.859375 715.546875 301.769531 717.496094 C 307.679688 719.445312 313.636719 721.226562 319.648438 722.835938 C 325.660156 724.449219 331.710938 725.886719 337.804688 727.15625 C 343.894531 728.425781 350.019531 729.519531 356.175781 730.441406 C 362.328125 731.359375 368.503906 732.105469 374.703125 732.675781 C 380.898438 733.246094 387.105469 733.640625 393.324219 733.859375 C 399.542969 734.078125 405.765625 734.121094 411.988281 733.984375 C 418.207031 733.851562 424.421875 733.539062 430.625 733.050781 C 436.828125 732.566406 443.015625 731.902344 449.179688 731.066406 C 455.347656 730.226562 461.484375 729.214844 467.59375 728.027344 C 473.703125 726.84375 479.773438 725.484375 485.804688 723.953125 C 491.835938 722.421875 497.820312 720.722656 503.753906 718.851562 C 509.691406 716.980469 515.566406 714.945312 521.386719 712.742188 C 527.207031 710.539062 532.960938 708.171875 538.644531 705.640625 C 544.332031 703.109375 549.941406 700.421875 555.472656 697.574219 C 561.007812 694.726562 566.453125 691.722656 571.816406 688.566406 C 577.179688 685.40625 582.449219 682.101562 587.625 678.644531 C 592.796875 675.1875 597.871094 671.589844 602.84375 667.84375 C 607.8125 664.101562 612.671875 660.21875 617.421875 656.199219 C 622.175781 652.179688 626.808594 648.027344 631.320312 643.746094 C 635.835938 639.460938 640.226562 635.054688 644.492188 630.523438 C 648.757812 625.992188 652.890625 621.34375 656.890625 616.578125 C 660.890625 611.8125 664.753906 606.933594 668.480469 601.949219 C 672.203125 596.964844 675.785156 591.878906 679.222656 586.6875 C 682.65625 581.5 685.941406 576.21875 689.078125 570.84375 C 692.214844 565.46875 695.195312 560.011719 698.023438 554.464844 C 700.851562 548.921875 703.515625 543.300781 706.023438 537.605469 C 708.53125 531.910156 710.878906 526.148438 713.058594 520.320312 C 715.238281 514.492188 717.253906 508.605469 719.101562 502.664062 C 720.945312 496.722656 722.625 490.730469 724.132812 484.695312 C 725.636719 478.65625 726.972656 472.582031 728.136719 466.46875 C 729.296875 460.355469 730.285156 454.210938 731.101562 448.042969 C 731.914062 441.875 732.554688 435.6875 733.015625 429.480469 C 733.480469 423.273438 733.765625 417.058594 733.875 410.839844 C 733.984375 404.617188 733.921875 398.394531 733.675781 392.175781 C 733.433594 385.960938 733.015625 379.753906 732.421875 373.558594 C 731.828125 367.363281 731.058594 361.191406 730.113281 355.039062 C 729.167969 348.890625 728.050781 342.769531 726.757812 336.683594 C 725.464844 330.59375 724.003906 324.550781 722.367188 318.546875 C 720.730469 312.539062 718.929688 306.585938 716.957031 300.683594 C 714.984375 294.78125 712.84375 288.941406 710.539062 283.160156 C 708.234375 277.378906 705.769531 271.667969 703.140625 266.027344 C 700.515625 260.386719 697.726562 254.824219 694.785156 249.34375 C 691.839844 243.859375 688.742188 238.464844 685.492188 233.160156 C 682.246094 227.851562 678.847656 222.640625 675.300781 217.527344 C 671.757812 212.414062 668.070312 207.402344 664.238281 202.496094 C 660.410156 197.59375 656.445312 192.800781 652.34375 188.121094 C 648.242188 183.4375 644.011719 178.878906 639.648438 174.4375 C 635.289062 170 630.808594 165.6875 626.203125 161.5 C 621.597656 157.316406 616.878906 153.261719 612.042969 149.34375 C 607.207031 145.425781 602.265625 141.648438 597.214844 138.011719 C 592.167969 134.375 587.019531 130.882812 581.773438 127.535156 C 576.523438 124.191406 571.1875 120.996094 565.757812 117.953125 C 560.328125 114.910156 554.820312 112.023438 549.226562 109.292969 C 543.636719 106.566406 537.96875 103.996094 532.230469 101.585938 C 526.496094 99.179688 520.691406 96.933594 514.828125 94.855469 C 508.960938 92.773438 503.042969 90.863281 497.070312 89.121094 C 491.09375 87.375 485.078125 85.800781 479.015625 84.402344 C 472.949219 83 466.851562 81.769531 460.71875 80.710938 C 454.585938 79.65625 448.429688 78.773438 442.246094 78.066406 C 436.0625 77.359375 429.867188 76.828125 423.652344 76.472656 C 417.441406 76.117188 411.222656 75.941406 405 75.9375 Z M 405 683.4375 C 392.816406 683.445312 380.683594 682.65625 368.601562 681.070312 C 356.523438 679.484375 344.597656 677.113281 332.828125 673.957031 C 321.058594 670.804688 309.546875 666.890625 298.292969 662.222656 C 287.039062 657.554688 276.136719 652.171875 265.589844 646.070312 C 264.039062 645.171875 262.410156 644.445312 260.707031 643.890625 C 259 643.335938 257.257812 642.96875 255.472656 642.785156 C 253.6875 642.601562 251.90625 642.609375 250.125 642.804688 C 248.339844 643.003906 246.601562 643.382812 244.898438 643.949219 L 126.5625 683.4375 L 166.019531 565.101562 C 166.585938 563.402344 166.972656 561.660156 167.167969 559.878906 C 167.367188 558.097656 167.378906 556.3125 167.199219 554.53125 C 167.019531 552.746094 166.652344 551.003906 166.101562 549.296875 C 165.550781 547.589844 164.828125 545.960938 163.929688 544.410156 C 161.394531 540.023438 158.980469 535.574219 156.6875 531.058594 C 154.394531 526.546875 152.226562 521.972656 150.183594 517.335938 C 148.140625 512.703125 146.226562 508.019531 144.4375 503.28125 C 142.652344 498.542969 140.992188 493.757812 139.46875 488.929688 C 137.941406 484.101562 136.546875 479.234375 135.285156 474.332031 C 134.027344 469.425781 132.898438 464.492188 131.90625 459.523438 C 130.914062 454.558594 130.058594 449.570312 129.339844 444.558594 C 128.621094 439.542969 128.039062 434.515625 127.59375 429.472656 C 127.148438 424.425781 126.84375 419.375 126.671875 414.3125 C 126.503906 409.253906 126.472656 404.191406 126.578125 399.128906 C 126.683594 394.0625 126.929688 389.007812 127.3125 383.957031 C 127.695312 378.910156 128.214844 373.875 128.875 368.851562 C 129.53125 363.832031 130.324219 358.832031 131.253906 353.855469 C 132.183594 348.875 133.25 343.925781 134.449219 339.007812 C 135.652344 334.089844 136.984375 329.203125 138.449219 324.359375 C 139.917969 319.511719 141.515625 314.707031 143.242188 309.949219 C 144.972656 305.1875 146.828125 300.480469 148.816406 295.820312 C 150.800781 291.160156 152.910156 286.5625 155.148438 282.019531 C 157.386719 277.472656 159.746094 272.996094 162.226562 268.582031 C 164.707031 264.167969 167.304688 259.824219 170.023438 255.550781 C 172.742188 251.277344 175.574219 247.082031 178.523438 242.964844 C 181.46875 238.84375 184.527344 234.8125 187.691406 230.859375 C 190.859375 226.90625 194.132812 223.046875 197.511719 219.273438 C 200.886719 215.5 204.367188 211.824219 207.945312 208.238281 C 211.523438 204.65625 215.195312 201.171875 218.964844 197.789062 C 222.734375 194.410156 226.59375 191.132812 230.539062 187.957031 C 234.488281 184.785156 238.519531 181.722656 242.632812 178.773438 C 246.746094 175.820312 250.9375 172.980469 255.207031 170.257812 C 259.476562 167.535156 263.816406 164.929688 268.230469 162.445312 C 272.640625 159.957031 277.117188 157.59375 281.65625 155.351562 C 286.195312 153.109375 290.796875 150.992188 295.449219 149 C 300.105469 147.007812 304.8125 145.144531 309.570312 143.410156 C 314.328125 141.675781 319.128906 140.070312 323.976562 138.597656 C 328.820312 137.125 333.703125 135.785156 338.621094 134.578125 C 343.539062 133.375 348.484375 132.300781 353.460938 131.363281 C 358.4375 130.429688 363.4375 129.628906 368.457031 128.964844 C 373.476562 128.300781 378.511719 127.773438 383.5625 127.386719 C 388.609375 126.996094 393.667969 126.746094 398.730469 126.632812 C 403.792969 126.519531 408.855469 126.542969 413.914062 126.707031 C 418.976562 126.871094 424.03125 127.171875 429.074219 127.609375 C 434.121094 128.046875 439.148438 128.625 444.164062 129.335938 C 449.175781 130.050781 454.167969 130.898438 459.132812 131.882812 C 464.101562 132.871094 469.039062 133.988281 473.945312 135.246094 C 478.851562 136.5 483.71875 137.886719 488.546875 139.40625 C 493.378906 140.929688 498.164062 142.578125 502.90625 144.359375 C 507.644531 146.140625 512.332031 148.050781 516.96875 150.089844 C 521.605469 152.125 526.183594 154.289062 530.699219 156.574219 C 535.21875 158.863281 539.671875 161.269531 544.058594 163.800781 C 548.445312 166.328125 552.757812 168.976562 557 171.742188 C 561.242188 174.507812 565.40625 177.386719 569.492188 180.378906 C 573.578125 183.371094 577.578125 186.472656 581.496094 189.683594 C 585.410156 192.894531 589.238281 196.210938 592.972656 199.628906 C 596.707031 203.050781 600.347656 206.566406 603.890625 210.1875 C 607.433594 213.804688 610.875 217.515625 614.214844 221.320312 C 617.554688 225.128906 620.789062 229.023438 623.917969 233.003906 C 627.046875 236.988281 630.0625 241.050781 632.96875 245.199219 C 635.875 249.34375 638.667969 253.566406 641.34375 257.867188 C 644.019531 262.167969 646.574219 266.535156 649.011719 270.972656 C 651.449219 275.414062 653.765625 279.914062 655.957031 284.480469 C 658.148438 289.046875 660.214844 293.667969 662.15625 298.34375 C 664.09375 303.023438 665.90625 307.75 667.585938 312.527344 C 669.269531 317.300781 670.820312 322.121094 672.238281 326.980469 C 673.65625 331.84375 674.941406 336.738281 676.09375 341.671875 C 677.246094 346.601562 678.261719 351.5625 679.144531 356.546875 C 680.023438 361.535156 680.769531 366.542969 681.378906 371.570312 C 681.984375 376.597656 682.457031 381.636719 682.789062 386.691406 C 683.121094 391.742188 683.316406 396.800781 683.375 401.863281 C 683.429688 406.929688 683.351562 411.988281 683.132812 417.050781 C 682.910156 422.109375 682.554688 427.15625 682.058594 432.199219 C 681.566406 437.238281 680.933594 442.261719 680.164062 447.265625 C 679.394531 452.269531 678.492188 457.25 677.453125 462.207031 C 676.410156 467.164062 675.234375 472.085938 673.925781 476.980469 C 672.617188 481.871094 671.175781 486.722656 669.601562 491.535156 C 668.027344 496.351562 666.324219 501.117188 664.492188 505.835938 C 662.65625 510.558594 660.695312 515.222656 658.605469 519.835938 C 656.519531 524.449219 654.304688 529.003906 651.96875 533.496094 C 649.632812 537.988281 647.175781 542.414062 644.597656 546.773438 C 642.015625 551.128906 639.320312 555.414062 636.511719 559.625 C 633.699219 563.839844 630.773438 567.96875 627.734375 572.019531 C 624.699219 576.074219 621.550781 580.039062 618.296875 583.917969 C 615.042969 587.800781 611.6875 591.585938 608.226562 595.285156 C 604.765625 598.980469 601.207031 602.582031 597.546875 606.085938 C 593.890625 609.585938 590.140625 612.988281 586.300781 616.285156 C 582.457031 619.582031 578.527344 622.773438 574.507812 625.859375 C 570.492188 628.941406 566.394531 631.914062 562.214844 634.773438 C 558.039062 637.632812 553.785156 640.378906 549.453125 643.007812 C 545.125 645.632812 540.730469 648.144531 536.261719 650.53125 C 531.796875 652.917969 527.269531 655.183594 522.679688 657.324219 C 518.09375 659.464844 513.449219 661.480469 508.75 663.367188 C 504.050781 665.253906 499.304688 667.015625 494.507812 668.644531 C 489.714844 670.269531 484.878906 671.769531 480 673.132812 C 475.125 674.5 470.214844 675.730469 465.269531 676.824219 C 460.328125 677.921875 455.355469 678.882812 450.359375 679.710938 C 445.363281 680.535156 440.351562 681.226562 435.316406 681.777344 C 430.28125 682.328125 425.238281 682.742188 420.179688 683.019531 C 415.125 683.296875 410.0625 683.4375 405 683.4375 Z M 405 683.4375 " fill-opacity="1" fill-rule="nonzero"/></svg>