<svg xmlns="http://www.w3.org/2000/svg" xmlns:xlink="http://www.w3.org/1999/xlink" width="1080" zoomAndPan="magnify" viewBox="0 0 810 809.999993" height="1080" preserveAspectRatio="xMidYMid meet" version="1.0"><path fill="#ffffff" d="M 708.75 151.875 L 101.25 151.875 C 100.421875 151.875 99.59375 151.914062 98.769531 151.996094 C 97.945312 152.078125 97.125 152.199219 96.3125 152.363281 C 95.5 152.523438 94.695312 152.722656 93.902344 152.964844 C 93.109375 153.207031 92.328125 153.484375 91.5625 153.800781 C 90.796875 154.117188 90.050781 154.472656 89.316406 154.863281 C 88.585938 155.253906 87.875 155.679688 87.1875 156.140625 C 86.496094 156.601562 85.832031 157.09375 85.191406 157.621094 C 84.550781 158.148438 83.9375 158.703125 83.351562 159.289062 C 82.765625 159.875 82.210938 160.488281 81.683594 161.128906 C 81.15625 161.769531 80.664062 162.433594 80.203125 163.125 C 79.742188 163.8125 79.316406 164.523438 78.925781 165.253906 C 78.535156 165.988281 78.179688 166.734375 77.863281 167.5 C 77.546875 168.265625 77.269531 169.046875 77.027344 169.839844 C 76.785156 170.632812 76.585938 171.4375 76.425781 172.25 C 76.261719 173.0625 76.140625 173.882812 76.058594 174.707031 C 75.976562 175.53125 75.9375 176.359375 75.9375 177.1875 L 75.9375 607.5 C 75.9375 609.15625 76.019531 610.8125 76.179688 612.460938 C 76.34375 614.113281 76.585938 615.75 76.910156 617.375 C 77.234375 619.003906 77.636719 620.609375 78.117188 622.195312 C 78.597656 623.78125 79.15625 625.339844 79.792969 626.875 C 80.425781 628.40625 81.132812 629.902344 81.914062 631.363281 C 82.695312 632.828125 83.546875 634.246094 84.46875 635.625 C 85.390625 637.003906 86.378906 638.335938 87.429688 639.617188 C 88.480469 640.898438 89.59375 642.125 90.765625 643.296875 C 91.9375 644.46875 93.164062 645.582031 94.445312 646.632812 C 95.726562 647.683594 97.058594 648.671875 98.4375 649.59375 C 99.816406 650.515625 101.234375 651.367188 102.699219 652.148438 C 104.160156 652.929688 105.65625 653.636719 107.1875 654.269531 C 108.722656 654.90625 110.28125 655.464844 111.867188 655.945312 C 113.453125 656.425781 115.058594 656.828125 116.6875 657.152344 C 118.3125 657.476562 119.949219 657.71875 121.601562 657.882812 C 123.25 658.042969 124.90625 658.125 126.5625 658.125 L 683.4375 658.125 C 685.09375 658.125 686.75 658.042969 688.398438 657.882812 C 690.050781 657.71875 691.6875 657.476562 693.3125 657.152344 C 694.941406 656.828125 696.546875 656.425781 698.132812 655.945312 C 699.71875 655.464844 701.277344 654.90625 702.8125 654.269531 C 704.34375 653.636719 705.839844 652.929688 707.300781 652.148438 C 708.765625 651.367188 710.183594 650.515625 711.5625 649.59375 C 712.941406 648.671875 714.273438 647.683594 715.554688 646.632812 C 716.835938 645.582031 718.0625 644.46875 719.234375 643.296875 C 720.40625 642.125 721.519531 640.898438 722.570312 639.617188 C 723.621094 638.335938 724.609375 637.003906 725.53125 635.625 C 726.453125 634.246094 727.304688 632.828125 728.085938 631.363281 C 728.867188 629.902344 729.574219 628.40625 730.207031 626.875 C 730.84375 625.339844 731.402344 623.78125 731.882812 622.195312 C 732.363281 620.609375 732.765625 619.003906 733.089844 617.375 C 733.414062 615.75 733.65625 614.113281 733.820312 612.460938 C 733.980469 610.8125 734.0625 609.15625 734.0625 607.5 L 734.0625 177.1875 C 734.0625 176.359375 734.023438 175.53125 733.941406 174.707031 C 733.859375 173.882812 733.738281 173.0625 733.574219 172.25 C 733.414062 171.4375 733.214844 170.632812 732.972656 169.839844 C 732.730469 169.046875 732.453125 168.265625 732.136719 167.5 C 731.820312 166.734375 731.464844 165.988281 731.074219 165.253906 C 730.683594 164.523438 730.257812 163.8125 729.796875 163.125 C 729.335938 162.433594 728.84375 161.769531 728.316406 161.128906 C 727.789062 160.488281 727.234375 159.875 726.648438 159.289062 C 726.0625 158.703125 725.449219 158.148438 724.808594 157.621094 C 724.167969 157.09375 723.503906 156.601562 722.8125 156.140625 C 722.125 155.679688 721.414062 155.253906 720.683594 154.863281 C 719.949219 154.472656 719.203125 154.117188 718.4375 153.800781 C 717.671875 153.484375 716.890625 153.207031 716.097656 152.964844 C 715.304688 152.722656 714.5 152.523438 713.6875 152.363281 C 712.875 152.199219 712.054688 152.078125 711.230469 151.996094 C 710.40625 151.914062 709.578125 151.875 708.75 151.875 Z M 643.664062 202.5 L 405 421.292969 L 166.335938 202.5 Z M 683.4375 607.5 L 126.5625 607.5 L 126.5625 234.742188 L 387.882812 474.292969 C 388.460938 474.824219 389.0625 475.324219 389.683594 475.800781 C 390.308594 476.273438 390.953125 476.71875 391.617188 477.132812 C 392.285156 477.546875 392.96875 477.929688 393.667969 478.28125 C 394.367188 478.632812 395.085938 478.949219 395.816406 479.234375 C 396.546875 479.519531 397.289062 479.769531 398.042969 479.984375 C 398.796875 480.199219 399.558594 480.378906 400.328125 480.523438 C 401.097656 480.667969 401.875 480.777344 402.652344 480.847656 C 403.433594 480.921875 404.214844 480.957031 405 480.957031 C 405.785156 480.957031 406.566406 480.921875 407.347656 480.847656 C 408.125 480.777344 408.902344 480.667969 409.671875 480.523438 C 410.441406 480.378906 411.203125 480.199219 411.957031 479.984375 C 412.710938 479.769531 413.453125 479.519531 414.183594 479.234375 C 414.914062 478.949219 415.628906 478.632812 416.332031 478.28125 C 417.03125 477.929688 417.714844 477.546875 418.382812 477.132812 C 419.046875 476.71875 419.691406 476.273438 420.316406 475.800781 C 420.9375 475.324219 421.539062 474.824219 422.117188 474.292969 L 683.4375 234.742188 Z M 683.4375 607.5 " fill-opacity="1" fill-rule="nonzero"/></svg>