<svg xmlns="http://www.w3.org/2000/svg" xmlns:xlink="http://www.w3.org/1999/xlink" width="1080" zoomAndPan="magnify" viewBox="0 0 810 809.999993" height="1080" preserveAspectRatio="xMidYMid meet" version="1.0"><path fill="#ffffff" d="M 683.4375 75.9375 L 126.5625 75.9375 C 124.90625 75.9375 123.25 76.019531 121.601562 76.179688 C 119.949219 76.34375 118.3125 76.585938 116.6875 76.910156 C 115.058594 77.234375 113.453125 77.636719 111.867188 78.117188 C 110.28125 78.597656 108.722656 79.15625 107.1875 79.792969 C 105.65625 80.425781 104.160156 81.132812 102.699219 81.914062 C 101.234375 82.695312 99.816406 83.546875 98.4375 84.46875 C 97.058594 85.390625 95.726562 86.378906 94.445312 87.429688 C 93.164062 88.480469 91.9375 89.59375 90.765625 90.765625 C 89.59375 91.9375 88.480469 93.164062 87.429688 94.445312 C 86.378906 95.726562 85.390625 97.058594 84.46875 98.4375 C 83.546875 99.816406 82.695312 101.234375 81.914062 102.699219 C 81.132812 104.160156 80.425781 105.65625 79.792969 107.1875 C 79.15625 108.722656 78.597656 110.28125 78.117188 111.867188 C 77.636719 113.453125 77.234375 115.058594 76.910156 116.6875 C 76.585938 118.3125 76.34375 119.949219 76.179688 121.601562 C 76.019531 123.25 75.9375 124.90625 75.9375 126.5625 L 75.9375 683.4375 C 75.9375 685.09375 76.019531 686.75 76.179688 688.398438 C 76.34375 690.050781 76.585938 691.6875 76.910156 693.3125 C 77.234375 694.941406 77.636719 696.546875 78.117188 698.132812 C 78.597656 699.71875 79.15625 701.277344 79.792969 702.8125 C 80.425781 704.34375 81.132812 705.839844 81.914062 707.300781 C 82.695312 708.765625 83.546875 710.183594 84.46875 711.5625 C 85.390625 712.941406 86.378906 714.273438 87.429688 715.554688 C 88.480469 716.835938 89.59375 718.0625 90.765625 719.234375 C 91.9375 720.40625 93.164062 721.519531 94.445312 722.570312 C 95.726562 723.621094 97.058594 724.609375 98.4375 725.53125 C 99.816406 726.453125 101.234375 727.304688 102.699219 728.085938 C 104.160156 728.867188 105.65625 729.574219 107.1875 730.207031 C 108.722656 730.84375 110.28125 731.402344 111.867188 731.882812 C 113.453125 732.363281 115.058594 732.765625 116.6875 733.089844 C 118.3125 733.414062 119.949219 733.65625 121.601562 733.820312 C 123.25 733.980469 124.90625 734.0625 126.5625 734.0625 L 683.4375 734.0625 C 685.09375 734.0625 686.75 733.980469 688.398438 733.820312 C 690.050781 733.65625 691.6875 733.414062 693.3125 733.089844 C 694.941406 732.765625 696.546875 732.363281 698.132812 731.882812 C 699.71875 731.402344 701.277344 730.84375 702.8125 730.207031 C 704.34375 729.574219 705.839844 728.867188 707.300781 728.085938 C 708.765625 727.304688 710.183594 726.453125 711.5625 725.53125 C 712.941406 724.609375 714.273438 723.621094 715.554688 722.570312 C 716.835938 721.519531 718.0625 720.40625 719.234375 719.234375 C 720.40625 718.0625 721.519531 716.835938 722.570312 715.554688 C 723.621094 714.273438 724.609375 712.941406 725.53125 711.5625 C 726.453125 710.183594 727.304688 708.765625 728.085938 707.300781 C 728.867188 705.839844 729.574219 704.34375 730.207031 702.8125 C 730.84375 701.277344 731.402344 699.71875 731.882812 698.132812 C 732.363281 696.546875 732.765625 694.941406 733.089844 693.3125 C 733.414062 691.6875 733.65625 690.050781 733.820312 688.398438 C 733.980469 686.75 734.0625 685.09375 734.0625 683.4375 L 734.0625 126.5625 C 734.0625 124.90625 733.980469 123.25 733.820312 121.601562 C 733.65625 119.949219 733.414062 118.3125 733.089844 116.6875 C 732.765625 115.058594 732.363281 113.453125 731.882812 111.867188 C 731.402344 110.28125 730.84375 108.722656 730.207031 107.1875 C 729.574219 105.65625 728.867188 104.160156 728.085938 102.699219 C 727.304688 101.234375 726.453125 99.816406 725.53125 98.4375 C 724.609375 97.058594 723.621094 95.726562 722.570312 94.445312 C 721.519531 93.164062 720.40625 91.9375 719.234375 90.765625 C 718.0625 89.59375 716.835938 88.480469 715.554688 87.429688 C 714.273438 86.378906 712.941406 85.390625 711.5625 84.46875 C 710.183594 83.546875 708.765625 82.695312 707.300781 81.914062 C 705.839844 81.132812 704.34375 80.425781 702.8125 79.792969 C 701.277344 79.15625 699.71875 78.597656 698.132812 78.117188 C 696.546875 77.636719 694.941406 77.234375 693.3125 76.910156 C 691.6875 76.585938 690.050781 76.34375 688.398438 76.179688 C 686.75 76.019531 685.09375 75.9375 683.4375 75.9375 Z M 683.4375 683.4375 L 126.5625 683.4375 L 126.5625 126.5625 L 683.4375 126.5625 Z M 303.75 354.375 L 303.75 556.875 C 303.75 557.703125 303.710938 558.53125 303.628906 559.355469 C 303.546875 560.179688 303.425781 561 303.261719 561.8125 C 303.101562 562.625 302.902344 563.429688 302.660156 564.222656 C 302.417969 565.015625 302.140625 565.796875 301.824219 566.5625 C 301.507812 567.328125 301.152344 568.074219 300.761719 568.808594 C 300.371094 569.539062 299.945312 570.25 299.484375 570.9375 C 299.023438 571.628906 298.53125 572.292969 298.003906 572.933594 C 297.476562 573.574219 296.921875 574.1875 296.335938 574.773438 C 295.75 575.359375 295.136719 575.914062 294.496094 576.441406 C 293.855469 576.96875 293.191406 577.460938 292.5 577.921875 C 291.8125 578.382812 291.101562 578.808594 290.371094 579.199219 C 289.636719 579.589844 288.890625 579.945312 288.125 580.261719 C 287.359375 580.578125 286.578125 580.855469 285.785156 581.097656 C 284.992188 581.339844 284.1875 581.539062 283.375 581.699219 C 282.5625 581.863281 281.742188 581.984375 280.917969 582.066406 C 280.09375 582.148438 279.265625 582.1875 278.4375 582.1875 C 277.609375 582.1875 276.78125 582.148438 275.957031 582.066406 C 275.132812 581.984375 274.3125 581.863281 273.5 581.699219 C 272.6875 581.539062 271.882812 581.339844 271.089844 581.097656 C 270.296875 580.855469 269.515625 580.578125 268.75 580.261719 C 267.984375 579.945312 267.238281 579.589844 266.503906 579.199219 C 265.773438 578.808594 265.0625 578.382812 264.375 577.921875 C 263.683594 577.460938 263.019531 576.96875 262.378906 576.441406 C 261.738281 575.914062 261.125 575.359375 260.539062 574.773438 C 259.953125 574.1875 259.398438 573.574219 258.871094 572.933594 C 258.34375 572.292969 257.851562 571.628906 257.390625 570.9375 C 256.929688 570.25 256.503906 569.539062 256.113281 568.808594 C 255.722656 568.074219 255.367188 567.328125 255.050781 566.5625 C 254.734375 565.796875 254.457031 565.015625 254.214844 564.222656 C 253.972656 563.429688 253.773438 562.625 253.613281 561.8125 C 253.449219 561 253.328125 560.179688 253.246094 559.355469 C 253.164062 558.53125 253.125 557.703125 253.125 556.875 L 253.125 354.375 C 253.125 353.546875 253.164062 352.71875 253.246094 351.894531 C 253.328125 351.070312 253.449219 350.25 253.613281 349.4375 C 253.773438 348.625 253.972656 347.820312 254.214844 347.027344 C 254.457031 346.234375 254.734375 345.453125 255.050781 344.6875 C 255.367188 343.921875 255.722656 343.175781 256.113281 342.441406 C 256.503906 341.710938 256.929688 341 257.390625 340.3125 C 257.851562 339.621094 258.34375 338.957031 258.871094 338.316406 C 259.398438 337.675781 259.953125 337.0625 260.539062 336.476562 C 261.125 335.890625 261.738281 335.335938 262.378906 334.808594 C 263.019531 334.28125 263.683594 333.789062 264.375 333.328125 C 265.0625 332.867188 265.773438 332.441406 266.503906 332.050781 C 267.238281 331.660156 267.984375 331.304688 268.75 330.988281 C 269.515625 330.671875 270.296875 330.394531 271.089844 330.152344 C 271.882812 329.910156 272.6875 329.710938 273.5 329.550781 C 274.3125 329.386719 275.132812 329.265625 275.957031 329.183594 C 276.78125 329.101562 277.609375 329.0625 278.4375 329.0625 C 279.265625 329.0625 280.09375 329.101562 280.917969 329.183594 C 281.742188 329.265625 282.5625 329.386719 283.375 329.550781 C 284.1875 329.710938 284.992188 329.910156 285.785156 330.152344 C 286.578125 330.394531 287.359375 330.671875 288.125 330.988281 C 288.890625 331.304688 289.636719 331.660156 290.371094 332.050781 C 291.101562 332.441406 291.8125 332.867188 292.5 333.328125 C 293.191406 333.789062 293.855469 334.28125 294.496094 334.808594 C 295.136719 335.335938 295.75 335.890625 296.335938 336.476562 C 296.921875 337.0625 297.476562 337.675781 298.003906 338.316406 C 298.53125 338.957031 299.023438 339.621094 299.484375 340.3125 C 299.945312 341 300.371094 341.710938 300.761719 342.441406 C 301.152344 343.175781 301.507812 343.921875 301.824219 344.6875 C 302.140625 345.453125 302.417969 346.234375 302.660156 347.027344 C 302.902344 347.820312 303.101562 348.625 303.261719 349.4375 C 303.425781 350.25 303.546875 351.070312 303.628906 351.894531 C 303.710938 352.71875 303.75 353.546875 303.75 354.375 Z M 582.1875 442.96875 L 582.1875 556.875 C 582.1875 557.703125 582.148438 558.53125 582.066406 559.355469 C 581.984375 560.179688 581.863281 561 581.699219 561.8125 C 581.539062 562.625 581.339844 563.429688 581.097656 564.222656 C 580.855469 565.015625 580.578125 565.796875 580.261719 566.5625 C 579.945312 567.328125 579.589844 568.074219 579.199219 568.808594 C 578.808594 569.539062 578.382812 570.25 577.921875 570.9375 C 577.460938 571.628906 576.96875 572.292969 576.441406 572.933594 C 575.914062 573.574219 575.359375 574.1875 574.773438 574.773438 C 574.1875 575.359375 573.574219 575.914062 572.933594 576.441406 C 572.292969 576.96875 571.628906 577.460938 570.9375 577.921875 C 570.25 578.382812 569.539062 578.808594 568.808594 579.199219 C 568.074219 579.589844 567.328125 579.945312 566.5625 580.261719 C 565.796875 580.578125 565.015625 580.855469 564.222656 581.097656 C 563.429688 581.339844 562.625 581.539062 561.8125 581.699219 C 561 581.863281 560.179688 581.984375 559.355469 582.066406 C 558.53125 582.148438 557.703125 582.1875 556.875 582.1875 C 556.046875 582.1875 555.21875 582.148438 554.394531 582.066406 C 553.570312 581.984375 552.75 581.863281 551.9375 581.699219 C 551.125 581.539062 550.320312 581.339844 549.527344 581.097656 C 548.734375 580.855469 547.953125 580.578125 547.1875 580.261719 C 546.421875 579.945312 545.671875 579.589844 544.941406 579.199219 C 544.210938 578.808594 543.5 578.382812 542.8125 577.921875 C 542.121094 577.460938 541.457031 576.96875 540.816406 576.441406 C 540.175781 575.914062 539.5625 575.359375 538.976562 574.773438 C 538.390625 574.1875 537.835938 573.574219 537.308594 572.933594 C 536.78125 572.292969 536.289062 571.628906 535.828125 570.9375 C 535.367188 570.25 534.941406 569.539062 534.550781 568.808594 C 534.160156 568.074219 533.804688 567.328125 533.488281 566.5625 C 533.171875 565.796875 532.894531 565.015625 532.652344 564.222656 C 532.410156 563.429688 532.210938 562.625 532.046875 561.8125 C 531.886719 561 531.765625 560.179688 531.683594 559.355469 C 531.601562 558.53125 531.5625 557.703125 531.5625 556.875 L 531.5625 442.96875 C 531.5625 440.894531 531.460938 438.828125 531.257812 436.765625 C 531.054688 434.703125 530.75 432.65625 530.347656 430.625 C 529.941406 428.589844 529.4375 426.582031 528.835938 424.597656 C 528.234375 422.617188 527.539062 420.667969 526.746094 418.753906 C 525.953125 416.835938 525.066406 414.964844 524.089844 413.136719 C 523.113281 411.308594 522.050781 409.535156 520.898438 407.8125 C 519.746094 406.089844 518.511719 404.425781 517.199219 402.824219 C 515.882812 401.222656 514.492188 399.6875 513.027344 398.222656 C 511.5625 396.757812 510.027344 395.367188 508.425781 394.050781 C 506.824219 392.738281 505.160156 391.503906 503.4375 390.351562 C 501.714844 389.199219 499.941406 388.136719 498.113281 387.160156 C 496.285156 386.183594 494.414062 385.296875 492.496094 384.503906 C 490.582031 383.710938 488.632812 383.015625 486.652344 382.414062 C 484.667969 381.8125 482.660156 381.308594 480.625 380.902344 C 478.59375 380.5 476.546875 380.195312 474.484375 379.992188 C 472.421875 379.789062 470.355469 379.6875 468.28125 379.6875 C 466.207031 379.6875 464.140625 379.789062 462.078125 379.992188 C 460.015625 380.195312 457.96875 380.5 455.9375 380.902344 C 453.902344 381.308594 451.894531 381.8125 449.910156 382.414062 C 447.929688 383.015625 445.980469 383.710938 444.066406 384.503906 C 442.148438 385.296875 440.277344 386.183594 438.449219 387.160156 C 436.621094 388.136719 434.847656 389.199219 433.125 390.351562 C 431.402344 391.503906 429.738281 392.738281 428.136719 394.050781 C 426.535156 395.367188 425 396.757812 423.535156 398.222656 C 422.070312 399.6875 420.679688 401.222656 419.363281 402.824219 C 418.050781 404.425781 416.816406 406.089844 415.664062 407.8125 C 414.511719 409.535156 413.449219 411.308594 412.472656 413.136719 C 411.496094 414.964844 410.609375 416.835938 409.816406 418.753906 C 409.023438 420.667969 408.328125 422.617188 407.726562 424.597656 C 407.125 426.582031 406.621094 428.589844 406.214844 430.625 C 405.8125 432.65625 405.507812 434.703125 405.304688 436.765625 C 405.101562 438.828125 405 440.894531 405 442.96875 L 405 556.875 C 405 557.703125 404.960938 558.53125 404.878906 559.355469 C 404.796875 560.179688 404.675781 561 404.511719 561.8125 C 404.351562 562.625 404.152344 563.429688 403.910156 564.222656 C 403.667969 565.015625 403.390625 565.796875 403.074219 566.5625 C 402.757812 567.328125 402.402344 568.074219 402.011719 568.808594 C 401.621094 569.539062 401.195312 570.25 400.734375 570.9375 C 400.273438 571.628906 399.78125 572.292969 399.253906 572.933594 C 398.726562 573.574219 398.171875 574.1875 397.585938 574.773438 C 397 575.359375 396.386719 575.914062 395.746094 576.441406 C 395.105469 576.96875 394.441406 577.460938 393.75 577.921875 C 393.0625 578.382812 392.351562 578.808594 391.621094 579.199219 C 390.886719 579.589844 390.140625 579.945312 389.375 580.261719 C 388.609375 580.578125 387.828125 580.855469 387.035156 581.097656 C 386.242188 581.339844 385.4375 581.539062 384.625 581.699219 C 383.8125 581.863281 382.992188 581.984375 382.167969 582.066406 C 381.34375 582.148438 380.515625 582.1875 379.6875 582.1875 C 378.859375 582.1875 378.03125 582.148438 377.207031 582.066406 C 376.382812 581.984375 375.5625 581.863281 374.75 581.699219 C 373.9375 581.539062 373.132812 581.339844 372.339844 581.097656 C 371.546875 580.855469 370.765625 580.578125 370 580.261719 C 369.234375 579.945312 368.488281 579.589844 367.753906 579.199219 C 367.023438 578.808594 366.3125 578.382812 365.625 577.921875 C 364.933594 577.460938 364.269531 576.96875 363.628906 576.441406 C 362.988281 575.914062 362.375 575.359375 361.789062 574.773438 C 361.203125 574.1875 360.648438 573.574219 360.121094 572.933594 C 359.59375 572.292969 359.101562 571.628906 358.640625 570.9375 C 358.179688 570.25 357.753906 569.539062 357.363281 568.808594 C 356.972656 568.074219 356.617188 567.328125 356.300781 566.5625 C 355.984375 565.796875 355.707031 565.015625 355.464844 564.222656 C 355.222656 563.429688 355.023438 562.625 354.859375 561.8125 C 354.699219 561 354.578125 560.179688 354.496094 559.355469 C 354.414062 558.53125 354.375 557.703125 354.375 556.875 L 354.375 354.375 C 354.378906 353.609375 354.417969 352.84375 354.492188 352.078125 C 354.5625 351.316406 354.671875 350.558594 354.816406 349.804688 C 354.957031 349.050781 355.132812 348.304688 355.34375 347.566406 C 355.554688 346.828125 355.796875 346.101562 356.074219 345.386719 C 356.347656 344.671875 356.65625 343.96875 356.996094 343.28125 C 357.335938 342.59375 357.707031 341.925781 358.109375 341.269531 C 358.511719 340.617188 358.941406 339.980469 359.398438 339.367188 C 359.855469 338.753906 360.34375 338.160156 360.855469 337.589844 C 361.367188 337.019531 361.90625 336.472656 362.46875 335.949219 C 363.03125 335.429688 363.613281 334.933594 364.222656 334.464844 C 364.828125 333.996094 365.457031 333.554688 366.101562 333.144531 C 366.75 332.734375 367.414062 332.351562 368.097656 332 C 368.777344 331.648438 369.476562 331.328125 370.1875 331.042969 C 370.898438 330.753906 371.621094 330.5 372.351562 330.277344 C 373.085938 330.054688 373.832031 329.867188 374.582031 329.710938 C 375.332031 329.554688 376.089844 329.4375 376.851562 329.351562 C 377.613281 329.265625 378.378906 329.214844 379.144531 329.195312 C 379.910156 329.179688 380.679688 329.199219 381.441406 329.25 C 382.207031 329.304688 382.96875 329.394531 383.726562 329.515625 C 384.484375 329.636719 385.234375 329.792969 385.976562 329.984375 C 386.71875 330.175781 387.453125 330.398438 388.175781 330.65625 C 388.898438 330.914062 389.605469 331.203125 390.304688 331.523438 C 391 331.847656 391.679688 332.199219 392.34375 332.582031 C 393.007812 332.964844 393.652344 333.378906 394.28125 333.820312 C 394.90625 334.261719 395.511719 334.734375 396.097656 335.230469 C 396.679688 335.726562 397.242188 336.25 397.777344 336.796875 C 398.3125 337.347656 398.824219 337.917969 399.308594 338.511719 C 399.792969 339.105469 400.25 339.722656 400.679688 340.359375 C 401.105469 340.996094 401.507812 341.648438 401.875 342.320312 C 402.246094 342.992188 402.582031 343.679688 402.890625 344.382812 C 403.195312 345.085938 403.46875 345.800781 403.710938 346.53125 C 403.953125 347.257812 404.160156 347.996094 404.335938 348.742188 C 406.464844 347.300781 408.636719 345.929688 410.859375 344.632812 C 413.082031 343.335938 415.34375 342.117188 417.644531 340.972656 C 419.949219 339.832031 422.289062 338.765625 424.664062 337.78125 C 427.039062 336.796875 429.445312 335.894531 431.882812 335.070312 C 434.320312 334.25 436.78125 333.511719 439.269531 332.855469 C 441.753906 332.203125 444.261719 331.632812 446.785156 331.144531 C 449.3125 330.660156 451.851562 330.261719 454.402344 329.949219 C 456.957031 329.636719 459.515625 329.410156 462.085938 329.269531 C 464.652344 329.128906 467.222656 329.074219 469.792969 329.109375 C 472.363281 329.144531 474.933594 329.265625 477.496094 329.472656 C 480.058594 329.679688 482.613281 329.976562 485.15625 330.355469 C 487.699219 330.738281 490.226562 331.203125 492.738281 331.757812 C 495.25 332.308594 497.738281 332.945312 500.207031 333.664062 C 502.675781 334.386719 505.117188 335.191406 507.53125 336.074219 C 509.945312 336.960938 512.328125 337.929688 514.675781 338.976562 C 517.023438 340.023438 519.335938 341.148438 521.605469 342.351562 C 523.878906 343.558594 526.109375 344.835938 528.292969 346.191406 C 530.480469 347.546875 532.617188 348.972656 534.707031 350.472656 C 536.796875 351.972656 538.832031 353.542969 540.8125 355.179688 C 542.796875 356.816406 544.722656 358.519531 546.589844 360.289062 C 548.457031 362.054688 550.261719 363.882812 552.007812 365.773438 C 553.75 367.664062 555.429688 369.613281 557.039062 371.617188 C 558.652344 373.621094 560.195312 375.675781 561.667969 377.785156 C 563.136719 379.894531 564.539062 382.046875 565.863281 384.25 C 567.191406 386.453125 568.441406 388.699219 569.617188 390.988281 C 570.789062 393.277344 571.886719 395.601562 572.902344 397.960938 C 573.917969 400.324219 574.855469 402.71875 575.710938 405.144531 C 576.566406 407.570312 577.335938 410.019531 578.027344 412.5 C 578.714844 414.976562 579.320312 417.472656 579.839844 419.992188 C 580.359375 422.511719 580.792969 425.042969 581.140625 427.59375 C 581.488281 430.140625 581.75 432.695312 581.925781 435.261719 C 582.097656 437.828125 582.1875 440.398438 582.1875 442.96875 Z M 316.40625 265.78125 C 316.40625 267.023438 316.34375 268.265625 316.222656 269.503906 C 316.101562 270.742188 315.917969 271.96875 315.675781 273.1875 C 315.433594 274.410156 315.132812 275.613281 314.769531 276.804688 C 314.410156 277.992188 313.992188 279.164062 313.515625 280.3125 C 313.039062 281.460938 312.507812 282.582031 311.921875 283.679688 C 311.335938 284.777344 310.699219 285.839844 310.007812 286.875 C 309.316406 287.910156 308.578125 288.90625 307.789062 289.867188 C 307 290.828125 306.164062 291.75 305.285156 292.628906 C 304.40625 293.507812 303.484375 294.34375 302.523438 295.132812 C 301.5625 295.921875 300.566406 296.660156 299.53125 297.351562 C 298.496094 298.042969 297.433594 298.679688 296.335938 299.265625 C 295.238281 299.851562 294.117188 300.382812 292.96875 300.859375 C 291.820312 301.335938 290.648438 301.753906 289.460938 302.113281 C 288.269531 302.476562 287.0625 302.777344 285.84375 303.019531 C 284.625 303.261719 283.398438 303.445312 282.160156 303.566406 C 280.921875 303.6875 279.679688 303.75 278.4375 303.75 C 277.195312 303.75 275.953125 303.6875 274.714844 303.566406 C 273.476562 303.445312 272.25 303.261719 271.03125 303.019531 C 269.808594 302.777344 268.605469 302.476562 267.414062 302.113281 C 266.226562 301.753906 265.054688 301.335938 263.90625 300.859375 C 262.757812 300.382812 261.636719 299.851562 260.539062 299.265625 C 259.441406 298.679688 258.378906 298.042969 257.34375 297.351562 C 256.308594 296.660156 255.3125 295.921875 254.351562 295.132812 C 253.390625 294.34375 252.46875 293.507812 251.589844 292.628906 C 250.710938 291.75 249.875 290.828125 249.085938 289.867188 C 248.296875 288.90625 247.558594 287.910156 246.867188 286.875 C 246.175781 285.839844 245.539062 284.777344 244.953125 283.679688 C 244.367188 282.582031 243.835938 281.460938 243.359375 280.3125 C 242.882812 279.164062 242.464844 277.992188 242.105469 276.804688 C 241.742188 275.613281 241.441406 274.410156 241.199219 273.1875 C 240.957031 271.96875 240.773438 270.742188 240.652344 269.503906 C 240.53125 268.265625 240.46875 267.023438 240.46875 265.78125 C 240.46875 264.539062 240.53125 263.296875 240.652344 262.058594 C 240.773438 260.820312 240.957031 259.59375 241.199219 258.375 C 241.441406 257.152344 241.742188 255.949219 242.105469 254.757812 C 242.464844 253.570312 242.882812 252.398438 243.359375 251.25 C 243.835938 250.101562 244.367188 248.980469 244.953125 247.882812 C 245.539062 246.785156 246.175781 245.722656 246.867188 244.6875 C 247.558594 243.652344 248.296875 242.65625 249.085938 241.695312 C 249.875 240.734375 250.710938 239.8125 251.589844 238.933594 C 252.46875 238.054688 253.390625 237.21875 254.351562 236.429688 C 255.3125 235.640625 256.308594 234.902344 257.34375 234.210938 C 258.378906 233.519531 259.441406 232.882812 260.539062 232.296875 C 261.636719 231.710938 262.757812 231.179688 263.90625 230.703125 C 265.054688 230.226562 266.226562 229.808594 267.414062 229.449219 C 268.605469 229.085938 269.808594 228.785156 271.03125 228.542969 C 272.25 228.300781 273.476562 228.117188 274.714844 227.996094 C 275.953125 227.875 277.195312 227.8125 278.4375 227.8125 C 279.679688 227.8125 280.921875 227.875 282.160156 227.996094 C 283.398438 228.117188 284.625 228.300781 285.84375 228.542969 C 287.066406 228.785156 288.269531 229.085938 289.460938 229.449219 C 290.648438 229.808594 291.820312 230.226562 292.96875 230.703125 C 294.117188 231.179688 295.238281 231.710938 296.335938 232.296875 C 297.433594 232.882812 298.496094 233.519531 299.53125 234.210938 C 300.566406 234.902344 301.5625 235.640625 302.523438 236.429688 C 303.484375 237.21875 304.40625 238.054688 305.285156 238.933594 C 306.164062 239.8125 307 240.734375 307.789062 241.695312 C 308.578125 242.65625 309.316406 243.652344 310.007812 244.6875 C 310.699219 245.722656 311.335938 246.785156 311.921875 247.882812 C 312.507812 248.980469 313.039062 250.101562 313.515625 251.25 C 313.992188 252.398438 314.410156 253.570312 314.769531 254.757812 C 315.132812 255.949219 315.433594 257.15625 315.675781 258.375 C 315.917969 259.59375 316.101562 260.820312 316.222656 262.058594 C 316.34375 263.296875 316.40625 264.539062 316.40625 265.78125 Z M 316.40625 265.78125 " fill-opacity="1" fill-rule="nonzero"/></svg>