<svg xmlns="http://www.w3.org/2000/svg" xmlns:xlink="http://www.w3.org/1999/xlink" width="1080" zoomAndPan="magnify" viewBox="0 0 810 809.999993" height="1080" preserveAspectRatio="xMidYMid meet" version="1.0"><path fill="#ffffff" d="M 405 253.125 C 402.515625 253.125 400.03125 253.1875 397.546875 253.308594 C 395.066406 253.429688 392.585938 253.613281 390.113281 253.855469 C 387.640625 254.101562 385.175781 254.402344 382.714844 254.769531 C 380.257812 255.132812 377.808594 255.558594 375.371094 256.042969 C 372.933594 256.527344 370.507812 257.074219 368.097656 257.675781 C 365.6875 258.28125 363.292969 258.941406 360.914062 259.664062 C 358.535156 260.386719 356.175781 261.164062 353.835938 262.003906 C 351.496094 262.839844 349.175781 263.734375 346.878906 264.6875 C 344.582031 265.636719 342.3125 266.644531 340.066406 267.707031 C 337.816406 268.769531 335.597656 269.886719 333.40625 271.058594 C 331.214844 272.230469 329.050781 273.453125 326.921875 274.734375 C 324.789062 276.011719 322.6875 277.339844 320.621094 278.71875 C 318.554688 280.101562 316.523438 281.53125 314.527344 283.011719 C 312.53125 284.492188 310.574219 286.023438 308.652344 287.597656 C 306.730469 289.175781 304.847656 290.800781 303.007812 292.46875 C 301.164062 294.136719 299.367188 295.851562 297.609375 297.609375 C 295.851562 299.367188 294.136719 301.164062 292.46875 303.007812 C 290.796875 304.847656 289.175781 306.730469 287.597656 308.652344 C 286.023438 310.574219 284.492188 312.53125 283.011719 314.527344 C 281.53125 316.523438 280.101562 318.554688 278.71875 320.621094 C 277.339844 322.6875 276.011719 324.789062 274.730469 326.921875 C 273.453125 329.050781 272.230469 331.214844 271.058594 333.40625 C 269.886719 335.597656 268.769531 337.816406 267.707031 340.066406 C 266.644531 342.3125 265.636719 344.582031 264.6875 346.878906 C 263.734375 349.175781 262.839844 351.496094 262.003906 353.835938 C 261.164062 356.175781 260.386719 358.535156 259.664062 360.914062 C 258.941406 363.292969 258.28125 365.6875 257.675781 368.097656 C 257.074219 370.507812 256.527344 372.933594 256.042969 375.371094 C 255.558594 377.808594 255.132812 380.257812 254.769531 382.714844 C 254.402344 385.175781 254.101562 387.640625 253.855469 390.113281 C 253.613281 392.585938 253.429688 395.066406 253.308594 397.546875 C 253.1875 400.03125 253.125 402.515625 253.125 405 C 253.125 407.484375 253.1875 409.96875 253.308594 412.453125 C 253.429688 414.933594 253.613281 417.414062 253.855469 419.886719 C 254.101562 422.359375 254.402344 424.824219 254.769531 427.285156 C 255.132812 429.742188 255.558594 432.191406 256.042969 434.628906 C 256.527344 437.066406 257.074219 439.492188 257.675781 441.902344 C 258.28125 444.3125 258.941406 446.707031 259.664062 449.085938 C 260.386719 451.464844 261.164062 453.824219 262.003906 456.164062 C 262.839844 458.503906 263.734375 460.824219 264.6875 463.121094 C 265.636719 465.417969 266.644531 467.6875 267.707031 469.933594 C 268.769531 472.183594 269.886719 474.402344 271.058594 476.59375 C 272.230469 478.785156 273.453125 480.949219 274.730469 483.078125 C 276.011719 485.210938 277.339844 487.308594 278.71875 489.378906 C 280.101562 491.445312 281.53125 493.476562 283.011719 495.472656 C 284.492188 497.46875 286.023438 499.425781 287.597656 501.347656 C 289.175781 503.269531 290.796875 505.152344 292.46875 506.992188 C 294.136719 508.835938 295.851562 510.632812 297.609375 512.390625 C 299.367188 514.148438 301.164062 515.863281 303.007812 517.53125 C 304.847656 519.199219 306.730469 520.824219 308.652344 522.402344 C 310.574219 523.976562 312.53125 525.507812 314.527344 526.988281 C 316.523438 528.46875 318.554688 529.898438 320.621094 531.28125 C 322.6875 532.660156 324.789062 533.988281 326.921875 535.265625 C 329.050781 536.546875 331.214844 537.769531 333.40625 538.941406 C 335.597656 540.113281 337.816406 541.230469 340.066406 542.292969 C 342.3125 543.355469 344.582031 544.363281 346.878906 545.3125 C 349.175781 546.265625 351.496094 547.160156 353.835938 547.996094 C 356.175781 548.835938 358.535156 549.613281 360.914062 550.335938 C 363.292969 551.058594 365.6875 551.71875 368.097656 552.324219 C 370.507812 552.925781 372.933594 553.472656 375.371094 553.957031 C 377.808594 554.441406 380.257812 554.867188 382.714844 555.230469 C 385.175781 555.597656 387.640625 555.898438 390.113281 556.144531 C 392.585938 556.386719 395.066406 556.570312 397.546875 556.691406 C 400.03125 556.8125 402.515625 556.875 405 556.875 C 407.484375 556.875 409.96875 556.8125 412.453125 556.691406 C 414.933594 556.570312 417.414062 556.386719 419.886719 556.144531 C 422.359375 555.898438 424.824219 555.597656 427.285156 555.230469 C 429.742188 554.867188 432.191406 554.441406 434.628906 553.957031 C 437.066406 553.472656 439.492188 552.925781 441.902344 552.324219 C 444.3125 551.71875 446.707031 551.058594 449.085938 550.335938 C 451.464844 549.613281 453.824219 548.835938 456.164062 547.996094 C 458.503906 547.160156 460.824219 546.265625 463.121094 545.3125 C 465.417969 544.363281 467.6875 543.355469 469.933594 542.292969 C 472.183594 541.230469 474.402344 540.113281 476.59375 538.941406 C 478.785156 537.769531 480.949219 536.546875 483.078125 535.265625 C 485.210938 533.988281 487.308594 532.660156 489.378906 531.28125 C 491.445312 529.898438 493.476562 528.46875 495.472656 526.988281 C 497.46875 525.507812 499.425781 523.976562 501.347656 522.402344 C 503.269531 520.824219 505.152344 519.199219 506.992188 517.53125 C 508.835938 515.863281 510.632812 514.148438 512.390625 512.390625 C 514.148438 510.632812 515.863281 508.835938 517.53125 506.992188 C 519.199219 505.152344 520.824219 503.269531 522.402344 501.347656 C 523.976562 499.425781 525.507812 497.46875 526.988281 495.472656 C 528.46875 493.476562 529.898438 491.445312 531.28125 489.378906 C 532.660156 487.308594 533.988281 485.210938 535.265625 483.078125 C 536.546875 480.949219 537.769531 478.785156 538.941406 476.59375 C 540.113281 474.402344 541.230469 472.183594 542.292969 469.933594 C 543.355469 467.6875 544.363281 465.417969 545.3125 463.121094 C 546.265625 460.824219 547.160156 458.503906 547.996094 456.164062 C 548.835938 453.824219 549.613281 451.464844 550.335938 449.085938 C 551.058594 446.707031 551.71875 444.3125 552.324219 441.902344 C 552.925781 439.492188 553.472656 437.066406 553.957031 434.628906 C 554.441406 432.191406 554.867188 429.742188 555.230469 427.285156 C 555.597656 424.824219 555.898438 422.359375 556.144531 419.886719 C 556.386719 417.414062 556.570312 414.933594 556.691406 412.453125 C 556.8125 409.96875 556.875 407.484375 556.875 405 C 556.871094 402.515625 556.808594 400.03125 556.683594 397.550781 C 556.558594 395.070312 556.375 392.589844 556.128906 390.117188 C 555.882812 387.644531 555.578125 385.179688 555.210938 382.722656 C 554.84375 380.265625 554.417969 377.816406 553.929688 375.382812 C 553.445312 372.945312 552.898438 370.523438 552.292969 368.113281 C 551.6875 365.703125 551.023438 363.308594 550.300781 360.929688 C 549.578125 358.554688 548.796875 356.195312 547.957031 353.855469 C 547.121094 351.515625 546.222656 349.199219 545.273438 346.90625 C 544.320312 344.609375 543.3125 342.339844 542.25 340.09375 C 541.183594 337.847656 540.066406 335.628906 538.894531 333.4375 C 537.722656 331.246094 536.496094 329.085938 535.21875 326.953125 C 533.941406 324.824219 532.613281 322.726562 531.230469 320.660156 C 529.851562 318.59375 528.417969 316.5625 526.9375 314.566406 C 525.457031 312.574219 523.929688 310.613281 522.351562 308.695312 C 520.777344 306.773438 519.152344 304.890625 517.484375 303.050781 C 515.816406 301.210938 514.101562 299.410156 512.34375 297.65625 C 510.589844 295.898438 508.789062 294.183594 506.949219 292.515625 C 505.109375 290.847656 503.226562 289.222656 501.304688 287.648438 C 499.386719 286.070312 497.425781 284.542969 495.433594 283.0625 C 493.4375 281.582031 491.40625 280.148438 489.339844 278.769531 C 487.273438 277.386719 485.175781 276.058594 483.046875 274.78125 C 480.914062 273.503906 478.753906 272.277344 476.5625 271.105469 C 474.371094 269.933594 472.152344 268.816406 469.90625 267.75 C 467.660156 266.6875 465.390625 265.679688 463.09375 264.726562 C 460.800781 263.777344 458.484375 262.878906 456.144531 262.042969 C 453.804688 261.203125 451.445312 260.421875 449.070312 259.699219 C 446.691406 258.976562 444.296875 258.3125 441.886719 257.707031 C 439.476562 257.101562 437.054688 256.554688 434.617188 256.070312 C 432.183594 255.582031 429.734375 255.15625 427.277344 254.789062 C 424.820312 254.421875 422.355469 254.117188 419.882812 253.871094 C 417.410156 253.625 414.929688 253.441406 412.449219 253.316406 C 409.96875 253.191406 407.484375 253.128906 405 253.125 Z M 405 506.25 C 403.34375 506.25 401.6875 506.210938 400.03125 506.128906 C 398.375 506.046875 396.726562 505.925781 395.074219 505.761719 C 393.425781 505.601562 391.78125 505.398438 390.144531 505.152344 C 388.503906 504.910156 386.871094 504.628906 385.246094 504.304688 C 383.621094 503.980469 382.003906 503.617188 380.398438 503.214844 C 378.789062 502.8125 377.195312 502.371094 375.609375 501.890625 C 374.023438 501.410156 372.449219 500.890625 370.890625 500.332031 C 369.328125 499.773438 367.785156 499.175781 366.253906 498.542969 C 364.722656 497.910156 363.207031 497.238281 361.710938 496.527344 C 360.210938 495.820312 358.730469 495.074219 357.269531 494.292969 C 355.808594 493.511719 354.367188 492.695312 352.945312 491.84375 C 351.527344 490.992188 350.125 490.105469 348.75 489.1875 C 347.371094 488.265625 346.015625 487.3125 344.683594 486.324219 C 343.355469 485.335938 342.046875 484.320312 340.769531 483.265625 C 339.488281 482.214844 338.230469 481.132812 337.003906 480.019531 C 335.777344 478.910156 334.578125 477.765625 333.40625 476.59375 C 332.234375 475.421875 331.089844 474.222656 329.980469 472.996094 C 328.867188 471.765625 327.785156 470.511719 326.734375 469.230469 C 325.679688 467.953125 324.664062 466.644531 323.675781 465.316406 C 322.6875 463.984375 321.734375 462.628906 320.8125 461.25 C 319.894531 459.875 319.007812 458.472656 318.15625 457.054688 C 317.304688 455.632812 316.488281 454.191406 315.707031 452.730469 C 314.925781 451.265625 314.179688 449.789062 313.472656 448.289062 C 312.761719 446.792969 312.089844 445.277344 311.457031 443.746094 C 310.824219 442.214844 310.226562 440.671875 309.667969 439.109375 C 309.109375 437.550781 308.589844 435.976562 308.109375 434.390625 C 307.628906 432.804688 307.1875 431.210938 306.785156 429.601562 C 306.382812 427.996094 306.019531 426.378906 305.695312 424.753906 C 305.371094 423.128906 305.089844 421.496094 304.847656 419.855469 C 304.601562 418.21875 304.398438 416.574219 304.238281 414.925781 C 304.074219 413.273438 303.953125 411.625 303.871094 409.96875 C 303.789062 408.3125 303.75 406.65625 303.75 405 C 303.75 403.34375 303.789062 401.6875 303.871094 400.03125 C 303.953125 398.375 304.074219 396.726562 304.238281 395.074219 C 304.398438 393.425781 304.601562 391.78125 304.847656 390.144531 C 305.089844 388.503906 305.371094 386.871094 305.695312 385.246094 C 306.019531 383.621094 306.382812 382.003906 306.785156 380.398438 C 307.1875 378.789062 307.628906 377.195312 308.109375 375.609375 C 308.589844 374.023438 309.109375 372.449219 309.667969 370.890625 C 310.226562 369.328125 310.824219 367.785156 311.457031 366.253906 C 312.089844 364.722656 312.761719 363.207031 313.472656 361.710938 C 314.179688 360.210938 314.925781 358.730469 315.707031 357.269531 C 316.488281 355.808594 317.304688 354.367188 318.15625 352.945312 C 319.007812 351.527344 319.894531 350.125 320.8125 348.75 C 321.734375 347.371094 322.6875 346.015625 323.675781 344.683594 C 324.664062 343.355469 325.679688 342.046875 326.734375 340.769531 C 327.785156 339.488281 328.867188 338.230469 329.980469 337.003906 C 331.089844 335.777344 332.234375 334.578125 333.40625 333.40625 C 334.578125 332.234375 335.777344 331.089844 337.003906 329.980469 C 338.230469 328.867188 339.488281 327.785156 340.769531 326.734375 C 342.046875 325.679688 343.355469 324.664062 344.683594 323.675781 C 346.015625 322.6875 347.371094 321.734375 348.75 320.8125 C 350.125 319.894531 351.527344 319.007812 352.945312 318.15625 C 354.367188 317.304688 355.808594 316.488281 357.269531 315.707031 C 358.730469 314.925781 360.210938 314.179688 361.710938 313.472656 C 363.207031 312.761719 364.722656 312.089844 366.253906 311.457031 C 367.785156 310.824219 369.328125 310.226562 370.890625 309.667969 C 372.449219 309.109375 374.023438 308.589844 375.609375 308.109375 C 377.195312 307.628906 378.789062 307.1875 380.398438 306.785156 C 382.003906 306.382812 383.621094 306.019531 385.246094 305.695312 C 386.871094 305.371094 388.503906 305.089844 390.144531 304.847656 C 391.78125 304.601562 393.425781 304.398438 395.074219 304.238281 C 396.726562 304.074219 398.375 303.953125 400.03125 303.871094 C 401.6875 303.789062 403.34375 303.75 405 303.75 C 406.65625 303.75 408.3125 303.789062 409.96875 303.871094 C 411.625 303.953125 413.273438 304.074219 414.925781 304.238281 C 416.574219 304.398438 418.21875 304.601562 419.855469 304.847656 C 421.496094 305.089844 423.128906 305.371094 424.753906 305.695312 C 426.378906 306.019531 427.996094 306.382812 429.601562 306.785156 C 431.210938 307.1875 432.804688 307.628906 434.390625 308.109375 C 435.976562 308.589844 437.550781 309.109375 439.109375 309.667969 C 440.671875 310.226562 442.214844 310.824219 443.746094 311.457031 C 445.277344 312.089844 446.792969 312.761719 448.289062 313.472656 C 449.789062 314.179688 451.265625 314.925781 452.730469 315.707031 C 454.191406 316.488281 455.632812 317.304688 457.054688 318.15625 C 458.472656 319.007812 459.875 319.894531 461.25 320.8125 C 462.628906 321.734375 463.984375 322.6875 465.316406 323.675781 C 466.644531 324.664062 467.953125 325.679688 469.230469 326.734375 C 470.511719 327.785156 471.765625 328.867188 472.996094 329.980469 C 474.222656 331.089844 475.421875 332.234375 476.59375 333.40625 C 477.765625 334.578125 478.910156 335.777344 480.019531 337.003906 C 481.132812 338.234375 482.214844 339.488281 483.265625 340.769531 C 484.320312 342.046875 485.335938 343.355469 486.324219 344.683594 C 487.3125 346.015625 488.265625 347.371094 489.1875 348.75 C 490.105469 350.125 490.992188 351.527344 491.84375 352.945312 C 492.695312 354.367188 493.511719 355.808594 494.292969 357.269531 C 495.074219 358.730469 495.820312 360.210938 496.527344 361.710938 C 497.238281 363.207031 497.910156 364.722656 498.542969 366.253906 C 499.175781 367.785156 499.773438 369.328125 500.332031 370.890625 C 500.890625 372.449219 501.410156 374.023438 501.890625 375.609375 C 502.371094 377.195312 502.8125 378.789062 503.214844 380.398438 C 503.617188 382.003906 503.980469 383.621094 504.304688 385.246094 C 504.628906 386.871094 504.910156 388.503906 505.152344 390.144531 C 505.398438 391.78125 505.601562 393.425781 505.761719 395.074219 C 505.925781 396.726562 506.046875 398.375 506.128906 400.03125 C 506.210938 401.6875 506.25 403.34375 506.25 405 C 506.25 406.65625 506.210938 408.3125 506.128906 409.96875 C 506.046875 411.625 505.925781 413.273438 505.761719 414.925781 C 505.601562 416.574219 505.398438 418.21875 505.152344 419.855469 C 504.910156 421.496094 504.628906 423.128906 504.304688 424.753906 C 503.980469 426.378906 503.617188 427.996094 503.214844 429.601562 C 502.8125 431.210938 502.371094 432.804688 501.890625 434.390625 C 501.410156 435.976562 500.890625 437.550781 500.332031 439.109375 C 499.773438 440.671875 499.175781 442.214844 498.542969 443.746094 C 497.910156 445.277344 497.238281 446.792969 496.527344 448.289062 C 495.820312 449.789062 495.074219 451.265625 494.292969 452.730469 C 493.511719 454.191406 492.695312 455.632812 491.84375 457.054688 C 490.992188 458.472656 490.105469 459.875 489.1875 461.25 C 488.265625 462.628906 487.3125 463.984375 486.324219 465.316406 C 485.335938 466.644531 484.320312 467.953125 483.265625 469.230469 C 482.214844 470.511719 481.132812 471.765625 480.019531 472.996094 C 478.910156 474.222656 477.765625 475.421875 476.59375 476.59375 C 475.421875 477.765625 474.222656 478.910156 472.996094 480.019531 C 471.765625 481.132812 470.511719 482.214844 469.230469 483.265625 C 467.953125 484.320312 466.644531 485.335938 465.316406 486.324219 C 463.984375 487.3125 462.628906 488.265625 461.25 489.1875 C 459.875 490.105469 458.472656 490.992188 457.054688 491.84375 C 455.632812 492.695312 454.191406 493.511719 452.730469 494.292969 C 451.265625 495.074219 449.789062 495.820312 448.289062 496.527344 C 446.792969 497.238281 445.277344 497.910156 443.746094 498.542969 C 442.214844 499.175781 440.671875 499.773438 439.109375 500.332031 C 437.550781 500.890625 435.976562 501.410156 434.390625 501.890625 C 432.804688 502.371094 431.210938 502.8125 429.601562 503.214844 C 427.996094 503.617188 426.378906 503.980469 424.753906 504.304688 C 423.128906 504.628906 421.496094 504.910156 419.855469 505.152344 C 418.21875 505.398438 416.574219 505.601562 414.925781 505.761719 C 413.273438 505.925781 411.625 506.046875 409.96875 506.128906 C 408.3125 506.210938 406.65625 506.25 405 506.25 Z M 556.875 75.9375 L 253.125 75.9375 C 250.226562 75.941406 247.328125 76.015625 244.433594 76.160156 C 241.539062 76.304688 238.648438 76.519531 235.761719 76.808594 C 232.878906 77.09375 230.003906 77.453125 227.136719 77.878906 C 224.269531 78.308594 221.414062 78.804688 218.570312 79.375 C 215.726562 79.941406 212.902344 80.578125 210.089844 81.285156 C 207.277344 81.992188 204.484375 82.765625 201.710938 83.609375 C 198.9375 84.453125 196.1875 85.363281 193.457031 86.34375 C 190.730469 87.320312 188.027344 88.363281 185.347656 89.476562 C 182.671875 90.585938 180.019531 91.761719 177.402344 93.003906 C 174.78125 94.242188 172.191406 95.546875 169.636719 96.914062 C 167.082031 98.28125 164.558594 99.710938 162.074219 101.203125 C 159.585938 102.695312 157.140625 104.246094 154.730469 105.855469 C 152.320312 107.46875 149.949219 109.136719 147.621094 110.863281 C 145.292969 112.59375 143.011719 114.375 140.769531 116.214844 C 138.527344 118.054688 136.335938 119.949219 134.1875 121.894531 C 132.039062 123.839844 129.941406 125.839844 127.890625 127.890625 C 125.839844 129.941406 123.839844 132.039062 121.894531 134.1875 C 119.949219 136.335938 118.054688 138.527344 116.214844 140.769531 C 114.375 143.011719 112.59375 145.292969 110.863281 147.621094 C 109.136719 149.949219 107.46875 152.320312 105.855469 154.730469 C 104.246094 157.140625 102.695312 159.585938 101.203125 162.074219 C 99.710938 164.558594 98.28125 167.082031 96.914062 169.636719 C 95.546875 172.191406 94.242188 174.78125 93.003906 177.402344 C 91.761719 180.019531 90.585938 182.671875 89.476562 185.347656 C 88.363281 188.027344 87.320312 190.730469 86.34375 193.457031 C 85.363281 196.1875 84.453125 198.9375 83.609375 201.710938 C 82.765625 204.484375 81.992188 207.277344 81.285156 210.089844 C 80.578125 212.902344 79.941406 215.726562 79.375 218.570312 C 78.804688 221.414062 78.308594 224.269531 77.878906 227.136719 C 77.453125 230.003906 77.09375 232.878906 76.808594 235.761719 C 76.519531 238.648438 76.304688 241.539062 76.160156 244.433594 C 76.015625 247.328125 75.941406 250.226562 75.9375 253.125 L 75.9375 556.875 C 75.941406 559.773438 76.015625 562.671875 76.160156 565.566406 C 76.304688 568.460938 76.519531 571.351562 76.808594 574.238281 C 77.09375 577.121094 77.453125 579.996094 77.878906 582.863281 C 78.308594 585.730469 78.804688 588.585938 79.375 591.429688 C 79.941406 594.273438 80.578125 597.097656 81.285156 599.910156 C 81.992188 602.722656 82.765625 605.515625 83.609375 608.289062 C 84.453125 611.0625 85.363281 613.8125 86.34375 616.542969 C 87.320312 619.269531 88.363281 621.972656 89.476562 624.652344 C 90.585938 627.328125 91.761719 629.980469 93.003906 632.597656 C 94.242188 635.21875 95.546875 637.808594 96.914062 640.363281 C 98.28125 642.917969 99.710938 645.441406 101.203125 647.925781 C 102.695312 650.414062 104.246094 652.859375 105.855469 655.269531 C 107.46875 657.679688 109.136719 660.050781 110.863281 662.378906 C 112.59375 664.707031 114.375 666.988281 116.214844 669.230469 C 118.054688 671.472656 119.949219 673.664062 121.894531 675.8125 C 123.839844 677.960938 125.839844 680.058594 127.890625 682.109375 C 129.941406 684.160156 132.039062 686.160156 134.1875 688.105469 C 136.335938 690.050781 138.527344 691.945312 140.769531 693.785156 C 143.011719 695.625 145.292969 697.40625 147.621094 699.136719 C 149.949219 700.863281 152.320312 702.53125 154.730469 704.144531 C 157.140625 705.753906 159.585938 707.304688 162.074219 708.796875 C 164.558594 710.289062 167.082031 711.71875 169.636719 713.085938 C 172.191406 714.453125 174.78125 715.757812 177.402344 716.996094 C 180.019531 718.238281 182.671875 719.414062 185.347656 720.523438 C 188.027344 721.636719 190.730469 722.679688 193.457031 723.65625 C 196.1875 724.636719 198.9375 725.546875 201.710938 726.390625 C 204.484375 727.234375 207.277344 728.007812 210.089844 728.714844 C 212.902344 729.421875 215.726562 730.058594 218.570312 730.625 C 221.414062 731.195312 224.269531 731.691406 227.136719 732.121094 C 230.003906 732.546875 232.878906 732.90625 235.761719 733.191406 C 238.648438 733.480469 241.539062 733.695312 244.433594 733.839844 C 247.328125 733.984375 250.226562 734.058594 253.125 734.0625 L 556.875 734.0625 C 559.773438 734.058594 562.671875 733.984375 565.566406 733.839844 C 568.460938 733.695312 571.351562 733.480469 574.238281 733.191406 C 577.121094 732.90625 579.996094 732.546875 582.863281 732.121094 C 585.730469 731.691406 588.585938 731.195312 591.429688 730.625 C 594.273438 730.058594 597.097656 729.421875 599.910156 728.714844 C 602.722656 728.007812 605.515625 727.234375 608.289062 726.390625 C 611.0625 725.546875 613.8125 724.636719 616.542969 723.65625 C 619.269531 722.679688 621.972656 721.636719 624.652344 720.523438 C 627.328125 719.414062 629.980469 718.238281 632.597656 716.996094 C 635.21875 715.757812 637.808594 714.453125 640.363281 713.085938 C 642.917969 711.71875 645.441406 710.289062 647.925781 708.796875 C 650.414062 707.304688 652.859375 705.753906 655.269531 704.144531 C 657.679688 702.53125 660.050781 700.863281 662.378906 699.136719 C 664.707031 697.40625 666.988281 695.625 669.230469 693.785156 C 671.472656 691.945312 673.664062 690.050781 675.8125 688.105469 C 677.960938 686.160156 680.058594 684.160156 682.109375 682.109375 C 684.160156 680.058594 686.160156 677.960938 688.105469 675.8125 C 690.050781 673.664062 691.945312 671.472656 693.785156 669.230469 C 695.625 666.988281 697.40625 664.707031 699.136719 662.378906 C 700.863281 660.050781 702.53125 657.679688 704.144531 655.269531 C 705.753906 652.859375 707.304688 650.414062 708.796875 647.925781 C 710.289062 645.441406 711.71875 642.917969 713.085938 640.363281 C 714.453125 637.808594 715.757812 635.21875 716.996094 632.597656 C 718.238281 629.980469 719.414062 627.328125 720.523438 624.652344 C 721.636719 621.972656 722.679688 619.269531 723.65625 616.542969 C 724.636719 613.8125 725.546875 611.0625 726.390625 608.289062 C 727.234375 605.515625 728.007812 602.722656 728.714844 599.910156 C 729.421875 597.097656 730.058594 594.273438 730.625 591.429688 C 731.195312 588.585938 731.691406 585.730469 732.121094 582.863281 C 732.546875 579.996094 732.90625 577.121094 733.191406 574.238281 C 733.480469 571.351562 733.695312 568.460938 733.839844 565.566406 C 733.984375 562.671875 734.058594 559.773438 734.0625 556.875 L 734.0625 253.125 C 734.058594 250.226562 733.984375 247.328125 733.839844 244.433594 C 733.695312 241.539062 733.480469 238.648438 733.191406 235.761719 C 732.90625 232.878906 732.546875 230.003906 732.121094 227.136719 C 731.691406 224.269531 731.195312 221.414062 730.625 218.570312 C 730.058594 215.726562 729.421875 212.902344 728.714844 210.089844 C 728.007812 207.277344 727.234375 204.484375 726.390625 201.710938 C 725.546875 198.9375 724.636719 196.1875 723.65625 193.457031 C 722.679688 190.730469 721.636719 188.027344 720.523438 185.347656 C 719.414062 182.671875 718.238281 180.019531 716.996094 177.402344 C 715.757812 174.78125 714.453125 172.191406 713.085938 169.636719 C 711.71875 167.082031 710.289062 164.558594 708.796875 162.074219 C 707.304688 159.585938 705.753906 157.140625 704.144531 154.730469 C 702.53125 152.320312 700.863281 149.949219 699.136719 147.621094 C 697.40625 145.292969 695.625 143.011719 693.785156 140.769531 C 691.945312 138.527344 690.050781 136.335938 688.105469 134.1875 C 686.160156 132.039062 684.160156 129.941406 682.109375 127.890625 C 680.058594 125.839844 677.960938 123.839844 675.8125 121.894531 C 673.664062 119.949219 671.472656 118.054688 669.230469 116.214844 C 666.988281 114.375 664.707031 112.59375 662.378906 110.863281 C 660.050781 109.136719 657.679688 107.46875 655.269531 105.855469 C 652.859375 104.246094 650.414062 102.695312 647.925781 101.203125 C 645.441406 99.710938 642.917969 98.28125 640.363281 96.914062 C 637.808594 95.546875 635.21875 94.242188 632.597656 93.003906 C 629.980469 91.761719 627.328125 90.585938 624.652344 89.476562 C 621.972656 88.363281 619.269531 87.320312 616.542969 86.34375 C 613.8125 85.363281 611.0625 84.453125 608.289062 83.609375 C 605.515625 82.765625 602.722656 81.992188 599.910156 81.285156 C 597.097656 80.578125 594.273438 79.941406 591.429688 79.375 C 588.585938 78.804688 585.730469 78.308594 582.863281 77.878906 C 579.996094 77.453125 577.121094 77.09375 574.238281 76.808594 C 571.351562 76.519531 568.460938 76.304688 565.566406 76.160156 C 562.671875 76.015625 559.773438 75.941406 556.875 75.9375 Z M 683.4375 556.875 C 683.4375 558.945312 683.386719 561.015625 683.285156 563.085938 C 683.183594 565.152344 683.03125 567.21875 682.828125 569.28125 C 682.625 571.339844 682.371094 573.398438 682.066406 575.445312 C 681.761719 577.496094 681.410156 579.535156 681.003906 581.566406 C 680.601562 583.597656 680.148438 585.617188 679.644531 587.628906 C 679.140625 589.636719 678.589844 591.632812 677.988281 593.613281 C 677.386719 595.597656 676.738281 597.5625 676.039062 599.511719 C 675.339844 601.460938 674.597656 603.394531 673.804688 605.308594 C 673.011719 607.222656 672.171875 609.113281 671.285156 610.988281 C 670.402344 612.859375 669.46875 614.710938 668.492188 616.535156 C 667.515625 618.363281 666.496094 620.164062 665.429688 621.941406 C 664.367188 623.71875 663.257812 625.46875 662.109375 627.1875 C 660.957031 628.910156 659.765625 630.605469 658.53125 632.269531 C 657.296875 633.933594 656.023438 635.5625 654.710938 637.164062 C 653.394531 638.765625 652.042969 640.335938 650.652344 641.867188 C 649.261719 643.402344 647.832031 644.902344 646.367188 646.367188 C 644.902344 647.832031 643.402344 649.261719 641.867188 650.652344 C 640.335938 652.042969 638.765625 653.394531 637.164062 654.710938 C 635.5625 656.023438 633.933594 657.296875 632.269531 658.53125 C 630.605469 659.765625 628.910156 660.957031 627.1875 662.109375 C 625.46875 663.257812 623.71875 664.367188 621.941406 665.429688 C 620.164062 666.496094 618.363281 667.515625 616.535156 668.492188 C 614.710938 669.46875 612.859375 670.402344 610.988281 671.285156 C 609.113281 672.171875 607.222656 673.011719 605.308594 673.804688 C 603.394531 674.597656 601.460938 675.339844 599.511719 676.039062 C 597.5625 676.738281 595.597656 677.386719 593.613281 677.988281 C 591.632812 678.589844 589.636719 679.140625 587.628906 679.644531 C 585.617188 680.148438 583.597656 680.601562 581.566406 681.003906 C 579.535156 681.410156 577.496094 681.761719 575.445312 682.066406 C 573.398438 682.371094 571.339844 682.625 569.28125 682.828125 C 567.21875 683.03125 565.152344 683.183594 563.085938 683.285156 C 561.015625 683.386719 558.945312 683.4375 556.875 683.4375 L 253.125 683.4375 C 251.054688 683.4375 248.984375 683.386719 246.914062 683.285156 C 244.847656 683.183594 242.78125 683.03125 240.71875 682.828125 C 238.660156 682.625 236.601562 682.371094 234.554688 682.066406 C 232.503906 681.761719 230.464844 681.410156 228.433594 681.003906 C 226.402344 680.601562 224.382812 680.148438 222.371094 679.644531 C 220.363281 679.140625 218.367188 678.589844 216.386719 677.988281 C 214.402344 677.386719 212.4375 676.738281 210.488281 676.039062 C 208.539062 675.339844 206.605469 674.597656 204.691406 673.804688 C 202.777344 673.011719 200.886719 672.171875 199.011719 671.285156 C 197.140625 670.402344 195.289062 669.46875 193.464844 668.492188 C 191.636719 667.515625 189.835938 666.496094 188.058594 665.429688 C 186.28125 664.367188 184.53125 663.257812 182.8125 662.109375 C 181.089844 660.957031 179.394531 659.765625 177.730469 658.53125 C 176.066406 657.296875 174.4375 656.023438 172.835938 654.710938 C 171.234375 653.394531 169.664062 652.042969 168.128906 650.652344 C 166.597656 649.261719 165.097656 647.832031 163.632812 646.367188 C 162.167969 644.902344 160.738281 643.402344 159.347656 641.867188 C 157.957031 640.335938 156.605469 638.765625 155.289062 637.164062 C 153.976562 635.5625 152.703125 633.933594 151.46875 632.269531 C 150.234375 630.605469 149.042969 628.910156 147.890625 627.1875 C 146.742188 625.46875 145.632812 623.71875 144.570312 621.941406 C 143.503906 620.164062 142.484375 618.363281 141.507812 616.535156 C 140.53125 614.710938 139.597656 612.859375 138.714844 610.988281 C 137.828125 609.113281 136.988281 607.222656 136.195312 605.308594 C 135.402344 603.394531 134.660156 601.460938 133.960938 599.511719 C 133.261719 597.5625 132.613281 595.597656 132.011719 593.613281 C 131.410156 591.632812 130.859375 589.636719 130.355469 587.628906 C 129.851562 585.617188 129.398438 583.597656 128.996094 581.566406 C 128.589844 579.535156 128.234375 577.496094 127.933594 575.445312 C 127.628906 573.398438 127.375 571.339844 127.171875 569.28125 C 126.96875 567.21875 126.816406 565.152344 126.714844 563.085938 C 126.613281 561.015625 126.5625 558.945312 126.5625 556.875 L 126.5625 253.125 C 126.5625 251.054688 126.613281 248.984375 126.714844 246.914062 C 126.816406 244.847656 126.96875 242.78125 127.171875 240.71875 C 127.375 238.660156 127.628906 236.601562 127.933594 234.554688 C 128.234375 232.503906 128.589844 230.464844 128.996094 228.433594 C 129.398438 226.402344 129.851562 224.382812 130.355469 222.371094 C 130.859375 220.363281 131.410156 218.367188 132.011719 216.386719 C 132.613281 214.402344 133.261719 212.4375 133.960938 210.488281 C 134.660156 208.539062 135.402344 206.605469 136.195312 204.691406 C 136.988281 202.777344 137.828125 200.886719 138.714844 199.011719 C 139.597656 197.140625 140.53125 195.289062 141.507812 193.464844 C 142.484375 191.636719 143.503906 189.835938 144.570312 188.058594 C 145.632812 186.28125 146.742188 184.53125 147.890625 182.8125 C 149.042969 181.089844 150.234375 179.394531 151.46875 177.730469 C 152.703125 176.066406 153.976562 174.4375 155.289062 172.835938 C 156.605469 171.234375 157.957031 169.664062 159.347656 168.128906 C 160.738281 166.597656 162.167969 165.097656 163.632812 163.632812 C 165.097656 162.167969 166.597656 160.738281 168.128906 159.347656 C 169.664062 157.957031 171.234375 156.605469 172.835938 155.289062 C 174.4375 153.976562 176.066406 152.703125 177.730469 151.46875 C 179.394531 150.234375 181.089844 149.042969 182.8125 147.890625 C 184.53125 146.742188 186.28125 145.632812 188.058594 144.570312 C 189.835938 143.503906 191.636719 142.484375 193.464844 141.507812 C 195.289062 140.53125 197.140625 139.597656 199.011719 138.714844 C 200.886719 137.828125 202.777344 136.988281 204.691406 136.195312 C 206.605469 135.402344 208.539062 134.660156 210.488281 133.960938 C 212.4375 133.261719 214.402344 132.613281 216.386719 132.011719 C 218.367188 131.410156 220.363281 130.859375 222.371094 130.355469 C 224.382812 129.851562 226.402344 129.398438 228.433594 128.996094 C 230.464844 128.589844 232.503906 128.234375 234.554688 127.933594 C 236.601562 127.628906 238.660156 127.375 240.71875 127.171875 C 242.78125 126.96875 244.847656 126.816406 246.914062 126.714844 C 248.984375 126.613281 251.054688 126.5625 253.125 126.5625 L 556.875 126.5625 C 558.945312 126.5625 561.015625 126.613281 563.085938 126.714844 C 565.152344 126.816406 567.21875 126.96875 569.28125 127.171875 C 571.339844 127.375 573.398438 127.628906 575.445312 127.933594 C 577.496094 128.234375 579.535156 128.589844 581.566406 128.996094 C 583.597656 129.398438 585.617188 129.851562 587.628906 130.355469 C 589.636719 130.859375 591.632812 131.410156 593.613281 132.011719 C 595.597656 132.613281 597.5625 133.261719 599.511719 133.960938 C 601.460938 134.660156 603.394531 135.402344 605.308594 136.195312 C 607.222656 136.988281 609.113281 137.828125 610.988281 138.714844 C 612.859375 139.597656 614.710938 140.53125 616.535156 141.507812 C 618.363281 142.484375 620.164062 143.503906 621.941406 144.570312 C 623.71875 145.632812 625.46875 146.742188 627.1875 147.890625 C 628.910156 149.042969 630.605469 150.234375 632.269531 151.46875 C 633.933594 152.703125 635.5625 153.976562 637.164062 155.289062 C 638.765625 156.605469 640.335938 157.957031 641.867188 159.347656 C 643.402344 160.738281 644.902344 162.167969 646.367188 163.632812 C 647.832031 165.097656 649.261719 166.597656 650.652344 168.128906 C 652.042969 169.664062 653.394531 171.234375 654.710938 172.835938 C 656.023438 174.4375 657.296875 176.066406 658.53125 177.730469 C 659.765625 179.394531 660.957031 181.089844 662.109375 182.8125 C 663.257812 184.53125 664.367188 186.28125 665.429688 188.058594 C 666.496094 189.835938 667.515625 191.636719 668.492188 193.464844 C 669.46875 195.289062 670.402344 197.140625 671.285156 199.011719 C 672.171875 200.886719 673.011719 202.777344 673.804688 204.691406 C 674.597656 206.605469 675.339844 208.539062 676.039062 210.488281 C 676.738281 212.4375 677.386719 214.402344 677.988281 216.386719 C 678.589844 218.367188 679.140625 220.363281 679.644531 222.371094 C 680.148438 224.382812 680.601562 226.402344 681.003906 228.433594 C 681.410156 230.464844 681.761719 232.503906 682.066406 234.554688 C 682.371094 236.601562 682.625 238.660156 682.828125 240.71875 C 683.03125 242.78125 683.183594 244.847656 683.285156 246.914062 C 683.386719 248.984375 683.4375 251.054688 683.4375 253.125 Z M 607.5 240.46875 C 607.5 241.710938 607.4375 242.953125 607.316406 244.191406 C 607.195312 245.429688 607.011719 246.65625 606.769531 247.875 C 606.527344 249.097656 606.226562 250.300781 605.863281 251.492188 C 605.503906 252.679688 605.085938 253.851562 604.609375 255 C 604.132812 256.148438 603.601562 257.269531 603.015625 258.367188 C 602.429688 259.464844 601.792969 260.527344 601.101562 261.5625 C 600.410156 262.597656 599.671875 263.59375 598.882812 264.554688 C 598.09375 265.515625 597.257812 266.4375 596.378906 267.316406 C 595.5 268.195312 594.578125 269.03125 593.617188 269.820312 C 592.65625 270.609375 591.660156 271.347656 590.625 272.039062 C 589.589844 272.730469 588.527344 273.367188 587.429688 273.953125 C 586.332031 274.539062 585.210938 275.070312 584.0625 275.546875 C 582.914062 276.023438 581.742188 276.441406 580.554688 276.800781 C 579.363281 277.164062 578.15625 277.464844 576.9375 277.707031 C 575.71875 277.949219 574.492188 278.132812 573.253906 278.253906 C 572.015625 278.375 570.773438 278.4375 569.53125 278.4375 C 568.289062 278.4375 567.046875 278.375 565.808594 278.253906 C 564.570312 278.132812 563.34375 277.949219 562.125 277.707031 C 560.902344 277.464844 559.699219 277.164062 558.507812 276.800781 C 557.320312 276.441406 556.148438 276.023438 555 275.546875 C 553.851562 275.070312 552.730469 274.539062 551.632812 273.953125 C 550.535156 273.367188 549.472656 272.730469 548.4375 272.039062 C 547.402344 271.347656 546.40625 270.609375 545.445312 269.820312 C 544.484375 269.03125 543.5625 268.195312 542.683594 267.316406 C 541.804688 266.4375 540.96875 265.515625 540.179688 264.554688 C 539.390625 263.59375 538.652344 262.597656 537.960938 261.5625 C 537.269531 260.527344 536.632812 259.464844 536.046875 258.367188 C 535.460938 257.269531 534.929688 256.148438 534.453125 255 C 533.976562 253.851562 533.558594 252.679688 533.199219 251.492188 C 532.835938 250.300781 532.535156 249.097656 532.292969 247.875 C 532.050781 246.65625 531.867188 245.429688 531.746094 244.191406 C 531.625 242.953125 531.5625 241.710938 531.5625 240.46875 C 531.5625 239.226562 531.625 237.984375 531.746094 236.746094 C 531.867188 235.507812 532.050781 234.28125 532.292969 233.0625 C 532.535156 231.839844 532.835938 230.636719 533.199219 229.445312 C 533.558594 228.257812 533.976562 227.085938 534.453125 225.9375 C 534.929688 224.789062 535.460938 223.667969 536.046875 222.570312 C 536.632812 221.472656 537.269531 220.410156 537.960938 219.375 C 538.652344 218.339844 539.390625 217.34375 540.179688 216.382812 C 540.96875 215.421875 541.804688 214.5 542.683594 213.621094 C 543.5625 212.742188 544.484375 211.90625 545.445312 211.117188 C 546.40625 210.328125 547.402344 209.589844 548.4375 208.898438 C 549.472656 208.207031 550.535156 207.570312 551.632812 206.984375 C 552.730469 206.398438 553.851562 205.867188 555 205.390625 C 556.148438 204.914062 557.320312 204.496094 558.507812 204.136719 C 559.699219 203.773438 560.902344 203.472656 562.125 203.230469 C 563.34375 202.988281 564.570312 202.804688 565.808594 202.683594 C 567.046875 202.5625 568.289062 202.5 569.53125 202.5 C 570.773438 202.5 572.015625 202.5625 573.253906 202.683594 C 574.492188 202.804688 575.71875 202.988281 576.9375 203.230469 C 578.15625 203.472656 579.363281 203.773438 580.554688 204.136719 C 581.742188 204.496094 582.914062 204.914062 584.0625 205.390625 C 585.210938 205.867188 586.332031 206.398438 587.429688 206.984375 C 588.527344 207.570312 589.589844 208.207031 590.625 208.898438 C 591.660156 209.589844 592.65625 210.328125 593.617188 211.117188 C 594.578125 211.90625 595.5 212.742188 596.378906 213.621094 C 597.257812 214.5 598.09375 215.421875 598.882812 216.382812 C 599.671875 217.34375 600.410156 218.339844 601.101562 219.375 C 601.792969 220.410156 602.429688 221.472656 603.015625 222.570312 C 603.601562 223.667969 604.132812 224.789062 604.609375 225.9375 C 605.085938 227.085938 605.503906 228.257812 605.863281 229.445312 C 606.226562 230.636719 606.527344 231.839844 606.769531 233.0625 C 607.011719 234.28125 607.195312 235.507812 607.316406 236.746094 C 607.4375 237.984375 607.5 239.226562 607.5 240.46875 Z M 607.5 240.46875 " fill-opacity="1" fill-rule="nonzero"/></svg>