<svg xmlns="http://www.w3.org/2000/svg" xmlns:xlink="http://www.w3.org/1999/xlink" width="1080" zoomAndPan="magnify" viewBox="0 0 810 809.999993" height="1080" preserveAspectRatio="xMidYMid meet" version="1.0"><path fill="#ffffff" d="M 659.105469 239.457031 C 661.035156 233.234375 662.636719 226.925781 663.914062 220.539062 C 665.191406 214.152344 666.136719 207.714844 666.75 201.226562 C 667.363281 194.742188 667.640625 188.238281 667.578125 181.726562 C 667.519531 175.210938 667.125 168.714844 666.394531 162.242188 C 665.664062 155.769531 664.601562 149.347656 663.207031 142.984375 C 661.816406 136.621094 660.097656 130.34375 658.054688 124.160156 C 656.011719 117.972656 653.65625 111.90625 650.988281 105.964844 C 648.320312 100.019531 645.351562 94.230469 642.082031 88.59375 C 641.53125 87.636719 640.917969 86.71875 640.242188 85.839844 C 639.570312 84.960938 638.839844 84.132812 638.058594 83.351562 C 637.277344 82.566406 636.445312 81.839844 635.570312 81.167969 C 634.691406 80.492188 633.773438 79.878906 632.816406 79.328125 C 631.859375 78.773438 630.867188 78.285156 629.84375 77.863281 C 628.824219 77.441406 627.777344 77.085938 626.710938 76.800781 C 625.640625 76.511719 624.558594 76.296875 623.460938 76.152344 C 622.363281 76.007812 621.261719 75.9375 620.15625 75.9375 C 616.488281 75.929688 612.820312 76.027344 609.15625 76.234375 C 605.492188 76.441406 601.835938 76.753906 598.191406 77.171875 C 594.546875 77.589844 590.914062 78.113281 587.300781 78.746094 C 583.683594 79.375 580.089844 80.109375 576.519531 80.949219 C 572.945312 81.789062 569.398438 82.730469 565.882812 83.777344 C 562.363281 84.824219 558.882812 85.96875 555.429688 87.21875 C 551.980469 88.46875 548.566406 89.816406 545.195312 91.261719 C 541.824219 92.710938 538.496094 94.253906 535.214844 95.894531 C 531.929688 97.535156 528.699219 99.273438 525.519531 101.101562 C 522.335938 102.929688 519.210938 104.851562 516.140625 106.863281 C 513.074219 108.875 510.0625 110.972656 507.117188 113.160156 C 504.167969 115.347656 501.289062 117.617188 498.472656 119.972656 C 495.660156 122.324219 492.914062 124.757812 490.242188 127.273438 C 487.566406 129.789062 484.96875 132.378906 482.449219 135.042969 C 479.925781 137.707031 477.484375 140.445312 475.121094 143.253906 C 472.757812 146.0625 470.476562 148.933594 468.28125 151.875 L 392.34375 151.875 C 390.148438 148.933594 387.867188 146.0625 385.503906 143.253906 C 383.140625 140.445312 380.699219 137.707031 378.175781 135.042969 C 375.65625 132.378906 373.058594 129.789062 370.382812 127.273438 C 367.710938 124.757812 364.964844 122.324219 362.152344 119.972656 C 359.335938 117.617188 356.457031 115.347656 353.507812 113.160156 C 350.5625 110.972656 347.550781 108.875 344.484375 106.863281 C 341.414062 104.851562 338.289062 102.929688 335.105469 101.101562 C 331.925781 99.273438 328.695312 97.535156 325.410156 95.894531 C 322.128906 94.253906 318.800781 92.710938 315.429688 91.261719 C 312.058594 89.816406 308.644531 88.46875 305.195312 87.21875 C 301.746094 85.96875 298.261719 84.824219 294.742188 83.777344 C 291.226562 82.730469 287.679688 81.789062 284.105469 80.949219 C 280.535156 80.109375 276.941406 79.375 273.324219 78.746094 C 269.710938 78.113281 266.078125 77.589844 262.433594 77.171875 C 258.789062 76.753906 255.132812 76.441406 251.46875 76.234375 C 247.804688 76.027344 244.136719 75.929688 240.46875 75.9375 C 239.363281 75.9375 238.261719 76.007812 237.164062 76.152344 C 236.066406 76.296875 234.984375 76.511719 233.914062 76.800781 C 232.847656 77.085938 231.800781 77.441406 230.78125 77.863281 C 229.757812 78.285156 228.765625 78.773438 227.808594 79.328125 C 226.851562 79.878906 225.933594 80.492188 225.054688 81.167969 C 224.175781 81.839844 223.347656 82.566406 222.566406 83.351562 C 221.78125 84.132812 221.054688 84.960938 220.382812 85.839844 C 219.707031 86.71875 219.09375 87.636719 218.542969 88.59375 C 215.273438 94.230469 212.304688 100.019531 209.636719 105.964844 C 206.96875 111.90625 204.613281 117.972656 202.570312 124.160156 C 200.527344 130.34375 198.808594 136.621094 197.417969 142.984375 C 196.023438 149.347656 194.960938 155.769531 194.230469 162.242188 C 193.5 168.714844 193.105469 175.210938 193.046875 181.726562 C 192.984375 188.238281 193.261719 194.742188 193.875 201.226562 C 194.488281 207.714844 195.433594 214.152344 196.710938 220.539062 C 197.988281 226.925781 199.589844 233.234375 201.519531 239.457031 C 197.625 246.253906 194.179688 253.269531 191.183594 260.503906 C 188.183594 267.742188 185.660156 275.140625 183.605469 282.699219 C 181.554688 290.257812 179.992188 297.917969 178.917969 305.675781 C 177.84375 313.433594 177.265625 321.230469 177.1875 329.0625 L 177.1875 354.375 C 177.191406 357.023438 177.253906 359.671875 177.375 362.316406 C 177.496094 364.960938 177.679688 367.605469 177.917969 370.242188 C 178.160156 372.878906 178.457031 375.511719 178.816406 378.132812 C 179.175781 380.757812 179.589844 383.375 180.066406 385.980469 C 180.539062 388.585938 181.074219 391.179688 181.664062 393.761719 C 182.257812 396.339844 182.90625 398.910156 183.613281 401.460938 C 184.320312 404.015625 185.082031 406.550781 185.902344 409.066406 C 186.722656 411.585938 187.597656 414.085938 188.53125 416.5625 C 189.460938 419.042969 190.449219 421.5 191.488281 423.9375 C 192.53125 426.371094 193.628906 428.78125 194.777344 431.167969 C 195.929688 433.554688 197.128906 435.910156 198.386719 438.242188 C 199.640625 440.574219 200.949219 442.878906 202.308594 445.152344 C 203.667969 447.425781 205.074219 449.667969 206.535156 451.878906 C 207.992188 454.089844 209.5 456.265625 211.058594 458.40625 C 212.613281 460.550781 214.21875 462.65625 215.871094 464.726562 C 217.519531 466.800781 219.21875 468.832031 220.960938 470.828125 C 222.703125 472.820312 224.488281 474.777344 226.316406 476.691406 C 228.148438 478.605469 230.019531 480.480469 231.933594 482.3125 C 233.847656 484.140625 235.800781 485.929688 237.792969 487.671875 C 239.785156 489.417969 241.820312 491.113281 243.886719 492.765625 C 245.957031 494.417969 248.0625 496.023438 250.207031 497.582031 C 252.347656 499.140625 254.523438 500.652344 256.730469 502.113281 C 258.941406 503.574219 261.183594 504.984375 263.453125 506.34375 C 265.726562 507.703125 268.027344 509.011719 270.359375 510.269531 C 272.691406 511.527344 275.050781 512.734375 277.433594 513.882812 C 279.820312 515.035156 282.230469 516.132812 284.664062 517.175781 C 287.097656 518.222656 289.554688 519.210938 292.03125 520.144531 C 294.511719 521.078125 297.007812 521.953125 299.527344 522.777344 C 302.042969 523.597656 304.578125 524.363281 307.132812 525.070312 C 309.683594 525.78125 312.25 526.429688 314.832031 527.023438 C 317.414062 527.617188 320.003906 528.152344 322.609375 528.628906 C 325.214844 529.105469 327.832031 529.527344 330.453125 529.886719 C 326.15625 535.386719 322.339844 541.207031 319.007812 547.34375 C 315.675781 553.480469 312.875 559.851562 310.601562 566.457031 C 308.328125 573.058594 306.617188 579.804688 305.46875 586.691406 C 304.320312 593.582031 303.746094 600.515625 303.75 607.5 L 303.75 632.8125 L 227.8125 632.8125 C 226.570312 632.8125 225.328125 632.78125 224.085938 632.722656 C 222.84375 632.660156 221.605469 632.570312 220.371094 632.445312 C 219.132812 632.324219 217.898438 632.171875 216.671875 631.992188 C 215.441406 631.808594 214.214844 631.597656 212.996094 631.351562 C 211.777344 631.109375 210.566406 630.839844 209.359375 630.535156 C 208.15625 630.234375 206.957031 629.902344 205.769531 629.542969 C 204.578125 629.183594 203.398438 628.792969 202.230469 628.375 C 201.058594 627.953125 199.902344 627.507812 198.753906 627.03125 C 197.605469 626.554688 196.46875 626.054688 195.34375 625.523438 C 194.222656 624.992188 193.113281 624.433594 192.015625 623.847656 C 190.917969 623.261719 189.839844 622.648438 188.773438 622.007812 C 187.707031 621.371094 186.65625 620.707031 185.625 620.015625 C 184.589844 619.324219 183.574219 618.609375 182.578125 617.867188 C 181.578125 617.128906 180.597656 616.363281 179.636719 615.574219 C 178.675781 614.789062 177.738281 613.976562 176.816406 613.140625 C 175.894531 612.304688 174.996094 611.449219 174.117188 610.570312 C 173.238281 609.691406 172.382812 608.792969 171.546875 607.871094 C 170.710938 606.949219 169.902344 606.011719 169.113281 605.050781 C 168.324219 604.089844 167.558594 603.109375 166.820312 602.109375 C 166.078125 601.113281 165.363281 600.097656 164.671875 599.0625 C 163.980469 598.03125 163.316406 596.980469 162.679688 595.914062 C 162.039062 594.847656 161.425781 593.769531 160.839844 592.671875 C 160.253906 591.574219 159.695312 590.464844 159.164062 589.34375 C 158.632812 588.21875 158.132812 587.082031 157.65625 585.933594 C 157.179688 584.785156 156.734375 583.628906 156.3125 582.457031 C 155.894531 581.289062 155.503906 580.109375 155.144531 578.917969 C 154.785156 577.730469 154.453125 576.53125 154.152344 575.328125 C 153.847656 574.121094 153.578125 572.910156 153.335938 571.691406 C 153.089844 570.472656 152.878906 569.246094 152.695312 568.015625 C 152.515625 566.789062 152.363281 565.554688 152.242188 564.316406 C 152.117188 563.082031 152.027344 561.84375 151.964844 560.601562 C 151.90625 559.359375 151.875 558.117188 151.875 556.875 C 151.875 554.804688 151.824219 552.734375 151.722656 550.664062 C 151.621094 548.597656 151.46875 546.53125 151.265625 544.46875 C 151.0625 542.410156 150.808594 540.351562 150.503906 538.304688 C 150.203125 536.253906 149.847656 534.214844 149.441406 532.183594 C 149.039062 530.152344 148.585938 528.132812 148.082031 526.121094 C 147.578125 524.113281 147.027344 522.117188 146.425781 520.136719 C 145.824219 518.152344 145.175781 516.1875 144.476562 514.238281 C 143.777344 512.285156 143.035156 510.355469 142.242188 508.441406 C 141.449219 506.527344 140.609375 504.636719 139.722656 502.761719 C 138.839844 500.890625 137.90625 499.039062 136.929688 497.214844 C 135.953125 495.386719 134.933594 493.585938 133.867188 491.808594 C 132.804688 490.03125 131.695312 488.28125 130.546875 486.558594 C 129.394531 484.839844 128.203125 483.144531 126.96875 481.480469 C 125.734375 479.816406 124.460938 478.1875 123.148438 476.585938 C 121.832031 474.984375 120.480469 473.414062 119.089844 471.878906 C 117.699219 470.347656 116.269531 468.847656 114.804688 467.382812 C 113.339844 465.917969 111.839844 464.488281 110.308594 463.097656 C 108.773438 461.707031 107.203125 460.355469 105.601562 459.039062 C 104 457.726562 102.371094 456.453125 100.707031 455.21875 C 99.042969 453.984375 97.347656 452.792969 95.625 451.640625 C 93.90625 450.492188 92.15625 449.382812 90.378906 448.320312 C 88.601562 447.253906 86.800781 446.234375 84.972656 445.257812 C 83.148438 444.28125 81.296875 443.347656 79.425781 442.464844 C 77.550781 441.578125 75.660156 440.738281 73.746094 439.945312 C 71.832031 439.152344 69.898438 438.410156 67.949219 437.710938 C 66 437.011719 64.035156 436.363281 62.050781 435.761719 C 60.070312 435.160156 58.074219 434.609375 56.066406 434.105469 C 54.054688 433.601562 52.035156 433.148438 50.003906 432.746094 C 47.972656 432.339844 45.933594 431.984375 43.882812 431.683594 C 41.835938 431.378906 39.777344 431.125 37.71875 430.921875 C 35.65625 430.71875 33.589844 430.566406 31.523438 430.464844 C 29.453125 430.363281 27.382812 430.3125 25.3125 430.3125 C 24.484375 430.3125 23.65625 430.351562 22.832031 430.433594 C 22.007812 430.515625 21.1875 430.636719 20.375 430.800781 C 19.5625 430.960938 18.757812 431.160156 17.964844 431.402344 C 17.171875 431.644531 16.390625 431.921875 15.625 432.238281 C 14.859375 432.554688 14.113281 432.910156 13.378906 433.300781 C 12.648438 433.691406 11.9375 434.117188 11.25 434.578125 C 10.558594 435.039062 9.894531 435.53125 9.253906 436.058594 C 8.613281 436.585938 8 437.140625 7.414062 437.726562 C 6.828125 438.3125 6.273438 438.925781 5.746094 439.566406 C 5.21875 440.207031 4.726562 440.871094 4.265625 441.5625 C 3.804688 442.25 3.378906 442.960938 2.988281 443.691406 C 2.597656 444.421875 2.242188 445.171875 1.925781 445.9375 C 1.609375 446.703125 1.332031 447.484375 1.089844 448.277344 C 0.847656 449.070312 0.648438 449.875 0.488281 450.6875 C 0.324219 451.5 0.203125 452.320312 0.121094 453.144531 C 0.0390625 453.96875 0 454.796875 0 455.625 C 0 456.453125 0.0390625 457.28125 0.121094 458.105469 C 0.203125 458.929688 0.324219 459.75 0.488281 460.5625 C 0.648438 461.375 0.847656 462.179688 1.089844 462.972656 C 1.332031 463.765625 1.609375 464.546875 1.925781 465.3125 C 2.242188 466.078125 2.597656 466.824219 2.988281 467.558594 C 3.378906 468.289062 3.804688 469 4.265625 469.6875 C 4.726562 470.378906 5.21875 471.042969 5.746094 471.683594 C 6.273438 472.324219 6.828125 472.9375 7.414062 473.523438 C 8 474.109375 8.613281 474.664062 9.253906 475.191406 C 9.894531 475.71875 10.558594 476.210938 11.25 476.671875 C 11.9375 477.132812 12.648438 477.558594 13.378906 477.949219 C 14.113281 478.339844 14.859375 478.691406 15.625 479.011719 C 16.390625 479.328125 17.171875 479.605469 17.964844 479.847656 C 18.757812 480.089844 19.5625 480.289062 20.375 480.449219 C 21.1875 480.613281 22.007812 480.734375 22.832031 480.816406 C 23.65625 480.898438 24.484375 480.9375 25.3125 480.9375 C 26.554688 480.9375 27.796875 480.96875 29.039062 481.027344 C 30.28125 481.089844 31.519531 481.179688 32.753906 481.304688 C 33.992188 481.425781 35.226562 481.578125 36.453125 481.757812 C 37.683594 481.941406 38.910156 482.152344 40.128906 482.398438 C 41.347656 482.640625 42.558594 482.910156 43.765625 483.214844 C 44.96875 483.515625 46.167969 483.847656 47.355469 484.207031 C 48.546875 484.566406 49.726562 484.957031 50.894531 485.375 C 52.066406 485.796875 53.222656 486.242188 54.371094 486.71875 C 55.519531 487.195312 56.65625 487.695312 57.78125 488.226562 C 58.902344 488.757812 60.011719 489.316406 61.109375 489.902344 C 62.207031 490.488281 63.285156 491.101562 64.351562 491.742188 C 65.417969 492.378906 66.46875 493.042969 67.5 493.734375 C 68.535156 494.425781 69.550781 495.140625 70.546875 495.882812 C 71.546875 496.621094 72.527344 497.386719 73.488281 498.175781 C 74.449219 498.960938 75.386719 499.773438 76.308594 500.609375 C 77.230469 501.445312 78.128906 502.300781 79.007812 503.179688 C 79.886719 504.058594 80.742188 504.957031 81.578125 505.878906 C 82.414062 506.800781 83.222656 507.738281 84.011719 508.699219 C 84.800781 509.660156 85.566406 510.640625 86.304688 511.640625 C 87.046875 512.636719 87.761719 513.652344 88.453125 514.6875 C 89.144531 515.71875 89.808594 516.769531 90.445312 517.835938 C 91.085938 518.902344 91.699219 519.980469 92.285156 521.078125 C 92.871094 522.175781 93.429688 523.285156 93.960938 524.40625 C 94.492188 525.53125 94.992188 526.667969 95.46875 527.816406 C 95.945312 528.964844 96.390625 530.121094 96.8125 531.292969 C 97.230469 532.460938 97.621094 533.640625 97.980469 534.832031 C 98.339844 536.019531 98.671875 537.21875 98.972656 538.421875 C 99.277344 539.628906 99.546875 540.839844 99.789062 542.058594 C 100.035156 543.277344 100.246094 544.503906 100.429688 545.734375 C 100.609375 546.960938 100.761719 548.195312 100.882812 549.433594 C 101.007812 550.667969 101.097656 551.90625 101.160156 553.148438 C 101.21875 554.390625 101.25 555.632812 101.25 556.875 C 101.25 558.945312 101.300781 561.015625 101.402344 563.085938 C 101.503906 565.152344 101.65625 567.21875 101.859375 569.28125 C 102.0625 571.339844 102.316406 573.398438 102.621094 575.445312 C 102.921875 577.496094 103.277344 579.535156 103.683594 581.566406 C 104.085938 583.597656 104.539062 585.617188 105.042969 587.628906 C 105.546875 589.636719 106.097656 591.632812 106.699219 593.613281 C 107.300781 595.597656 107.949219 597.5625 108.648438 599.511719 C 109.347656 601.460938 110.089844 603.394531 110.882812 605.308594 C 111.675781 607.222656 112.515625 609.113281 113.402344 610.988281 C 114.285156 612.859375 115.21875 614.710938 116.195312 616.535156 C 117.171875 618.363281 118.191406 620.164062 119.257812 621.941406 C 120.320312 623.71875 121.429688 625.46875 122.578125 627.1875 C 123.730469 628.910156 124.921875 630.605469 126.15625 632.269531 C 127.390625 633.933594 128.664062 635.5625 129.976562 637.164062 C 131.292969 638.765625 132.644531 640.335938 134.035156 641.867188 C 135.425781 643.402344 136.855469 644.902344 138.320312 646.367188 C 139.785156 647.832031 141.285156 649.261719 142.816406 650.652344 C 144.351562 652.042969 145.921875 653.394531 147.523438 654.710938 C 149.125 656.023438 150.753906 657.296875 152.417969 658.53125 C 154.082031 659.765625 155.777344 660.957031 157.5 662.109375 C 159.21875 663.257812 160.96875 664.367188 162.746094 665.429688 C 164.523438 666.496094 166.324219 667.515625 168.152344 668.492188 C 169.976562 669.46875 171.828125 670.402344 173.699219 671.285156 C 175.574219 672.171875 177.464844 673.011719 179.378906 673.804688 C 181.292969 674.597656 183.226562 675.339844 185.175781 676.039062 C 187.125 676.738281 189.089844 677.386719 191.074219 677.988281 C 193.054688 678.589844 195.050781 679.140625 197.058594 679.644531 C 199.070312 680.148438 201.089844 680.601562 203.121094 681.003906 C 205.152344 681.410156 207.191406 681.761719 209.242188 682.066406 C 211.289062 682.371094 213.347656 682.625 215.40625 682.828125 C 217.46875 683.03125 219.535156 683.183594 221.601562 683.285156 C 223.671875 683.386719 225.742188 683.4375 227.8125 683.4375 L 303.75 683.4375 L 303.75 734.0625 C 303.75 734.890625 303.789062 735.71875 303.871094 736.542969 C 303.953125 737.367188 304.074219 738.1875 304.234375 739 C 304.398438 739.8125 304.597656 740.617188 304.839844 741.410156 C 305.082031 742.203125 305.359375 742.984375 305.675781 743.75 C 305.992188 744.515625 306.347656 745.261719 306.738281 745.996094 C 307.128906 746.726562 307.554688 747.4375 308.015625 748.125 C 308.476562 748.816406 308.96875 749.480469 309.496094 750.121094 C 310.023438 750.761719 310.578125 751.375 311.164062 751.960938 C 311.75 752.546875 312.363281 753.101562 313.003906 753.628906 C 313.644531 754.15625 314.308594 754.648438 315 755.109375 C 315.6875 755.570312 316.398438 755.996094 317.128906 756.386719 C 317.863281 756.777344 318.609375 757.132812 319.375 757.449219 C 320.140625 757.765625 320.921875 758.042969 321.714844 758.285156 C 322.507812 758.527344 323.3125 758.726562 324.125 758.886719 C 324.9375 759.050781 325.757812 759.171875 326.582031 759.253906 C 327.40625 759.335938 328.234375 759.375 329.0625 759.375 C 329.890625 759.375 330.71875 759.335938 331.542969 759.253906 C 332.367188 759.171875 333.1875 759.050781 334 758.886719 C 334.8125 758.726562 335.617188 758.527344 336.410156 758.285156 C 337.203125 758.042969 337.984375 757.765625 338.75 757.449219 C 339.515625 757.132812 340.261719 756.777344 340.996094 756.386719 C 341.726562 755.996094 342.4375 755.570312 343.125 755.109375 C 343.816406 754.648438 344.480469 754.15625 345.121094 753.628906 C 345.761719 753.101562 346.375 752.546875 346.960938 751.960938 C 347.546875 751.375 348.101562 750.761719 348.628906 750.121094 C 349.15625 749.480469 349.648438 748.816406 350.109375 748.125 C 350.570312 747.4375 350.996094 746.726562 351.386719 745.996094 C 351.777344 745.261719 352.132812 744.515625 352.449219 743.75 C 352.765625 742.984375 353.042969 742.203125 353.285156 741.410156 C 353.527344 740.617188 353.726562 739.8125 353.886719 739 C 354.050781 738.1875 354.171875 737.367188 354.253906 736.542969 C 354.335938 735.71875 354.375 734.890625 354.375 734.0625 L 354.375 607.5 C 354.375 606.257812 354.40625 605.015625 354.464844 603.773438 C 354.527344 602.53125 354.617188 601.292969 354.742188 600.058594 C 354.863281 598.820312 355.015625 597.585938 355.195312 596.359375 C 355.378906 595.128906 355.589844 593.902344 355.835938 592.683594 C 356.078125 591.464844 356.347656 590.253906 356.652344 589.046875 C 356.953125 587.84375 357.285156 586.644531 357.644531 585.457031 C 358.003906 584.265625 358.394531 583.085938 358.8125 581.917969 C 359.234375 580.746094 359.679688 579.589844 360.15625 578.441406 C 360.632812 577.292969 361.132812 576.15625 361.664062 575.03125 C 362.195312 573.910156 362.753906 572.800781 363.339844 571.703125 C 363.925781 570.605469 364.539062 569.527344 365.179688 568.460938 C 365.816406 567.394531 366.480469 566.34375 367.171875 565.3125 C 367.863281 564.277344 368.578125 563.261719 369.320312 562.265625 C 370.058594 561.265625 370.824219 560.285156 371.613281 559.324219 C 372.398438 558.363281 373.210938 557.425781 374.046875 556.503906 C 374.882812 555.582031 375.738281 554.683594 376.617188 553.804688 C 377.496094 552.925781 378.394531 552.070312 379.316406 551.234375 C 380.238281 550.398438 381.175781 549.589844 382.136719 548.800781 C 383.097656 548.011719 384.078125 547.246094 385.078125 546.507812 C 386.074219 545.765625 387.089844 545.050781 388.125 544.359375 C 389.15625 543.667969 390.207031 543.003906 391.273438 542.367188 C 392.339844 541.726562 393.417969 541.113281 394.515625 540.527344 C 395.613281 539.941406 396.722656 539.382812 397.84375 538.851562 C 398.96875 538.320312 400.105469 537.820312 401.253906 537.34375 C 402.402344 536.867188 403.558594 536.421875 404.730469 536 C 405.898438 535.582031 407.078125 535.191406 408.269531 534.832031 C 409.457031 534.472656 410.65625 534.140625 411.859375 533.839844 C 413.066406 533.535156 414.277344 533.265625 415.496094 533.023438 C 416.714844 532.777344 417.941406 532.566406 419.171875 532.382812 C 420.398438 532.203125 421.632812 532.050781 422.871094 531.929688 C 424.105469 531.804688 425.34375 531.714844 426.585938 531.652344 C 427.828125 531.59375 429.070312 531.5625 430.3125 531.5625 C 431.554688 531.5625 432.796875 531.59375 434.039062 531.652344 C 435.28125 531.714844 436.519531 531.804688 437.753906 531.929688 C 438.992188 532.050781 440.226562 532.203125 441.453125 532.382812 C 442.683594 532.566406 443.910156 532.777344 445.128906 533.023438 C 446.347656 533.265625 447.558594 533.535156 448.765625 533.839844 C 449.96875 534.140625 451.167969 534.472656 452.355469 534.832031 C 453.546875 535.191406 454.726562 535.582031 455.894531 536 C 457.066406 536.421875 458.222656 536.867188 459.371094 537.34375 C 460.519531 537.820312 461.65625 538.320312 462.78125 538.851562 C 463.902344 539.382812 465.011719 539.941406 466.109375 540.527344 C 467.207031 541.113281 468.285156 541.726562 469.351562 542.367188 C 470.417969 543.003906 471.46875 543.667969 472.5 544.359375 C 473.535156 545.050781 474.550781 545.765625 475.546875 546.507812 C 476.546875 547.246094 477.527344 548.011719 478.488281 548.800781 C 479.449219 549.589844 480.386719 550.398438 481.308594 551.234375 C 482.230469 552.070312 483.128906 552.925781 484.007812 553.804688 C 484.886719 554.683594 485.742188 555.582031 486.578125 556.503906 C 487.414062 557.425781 488.222656 558.363281 489.011719 559.324219 C 489.800781 560.285156 490.566406 561.265625 491.304688 562.265625 C 492.046875 563.261719 492.761719 564.277344 493.453125 565.3125 C 494.140625 566.34375 494.808594 567.394531 495.445312 568.460938 C 496.085938 569.527344 496.699219 570.605469 497.285156 571.703125 C 497.871094 572.800781 498.429688 573.910156 498.960938 575.03125 C 499.492188 576.15625 499.992188 577.292969 500.46875 578.441406 C 500.945312 579.589844 501.390625 580.746094 501.8125 581.917969 C 502.230469 583.085938 502.621094 584.265625 502.980469 585.457031 C 503.339844 586.644531 503.671875 587.84375 503.972656 589.046875 C 504.277344 590.253906 504.546875 591.464844 504.789062 592.683594 C 505.035156 593.902344 505.246094 595.128906 505.429688 596.359375 C 505.609375 597.585938 505.761719 598.820312 505.882812 600.058594 C 506.007812 601.292969 506.097656 602.53125 506.160156 603.773438 C 506.21875 605.015625 506.25 606.257812 506.25 607.5 L 506.25 734.0625 C 506.25 734.890625 506.289062 735.71875 506.371094 736.542969 C 506.453125 737.367188 506.574219 738.1875 506.734375 739 C 506.898438 739.8125 507.097656 740.617188 507.339844 741.410156 C 507.582031 742.203125 507.859375 742.984375 508.175781 743.75 C 508.492188 744.515625 508.847656 745.261719 509.238281 745.996094 C 509.628906 746.726562 510.054688 747.4375 510.515625 748.125 C 510.976562 748.816406 511.46875 749.480469 511.996094 750.121094 C 512.523438 750.761719 513.078125 751.375 513.664062 751.960938 C 514.25 752.546875 514.863281 753.101562 515.503906 753.628906 C 516.144531 754.15625 516.808594 754.648438 517.5 755.109375 C 518.1875 755.570312 518.898438 755.996094 519.628906 756.386719 C 520.363281 756.777344 521.109375 757.132812 521.875 757.449219 C 522.640625 757.765625 523.421875 758.042969 524.214844 758.285156 C 525.007812 758.527344 525.8125 758.726562 526.625 758.886719 C 527.4375 759.050781 528.257812 759.171875 529.082031 759.253906 C 529.90625 759.335938 530.734375 759.375 531.5625 759.375 C 532.390625 759.375 533.21875 759.335938 534.042969 759.253906 C 534.867188 759.171875 535.6875 759.050781 536.5 758.886719 C 537.3125 758.726562 538.117188 758.527344 538.910156 758.285156 C 539.703125 758.042969 540.484375 757.765625 541.25 757.449219 C 542.015625 757.132812 542.761719 756.777344 543.496094 756.386719 C 544.226562 755.996094 544.9375 755.570312 545.625 755.109375 C 546.316406 754.648438 546.980469 754.15625 547.621094 753.628906 C 548.261719 753.101562 548.875 752.546875 549.460938 751.960938 C 550.046875 751.375 550.601562 750.761719 551.128906 750.121094 C 551.65625 749.480469 552.148438 748.816406 552.609375 748.125 C 553.070312 747.4375 553.496094 746.726562 553.886719 745.996094 C 554.277344 745.261719 554.632812 744.515625 554.949219 743.75 C 555.265625 742.984375 555.542969 742.203125 555.785156 741.410156 C 556.027344 740.617188 556.226562 739.8125 556.386719 739 C 556.550781 738.1875 556.671875 737.367188 556.753906 736.542969 C 556.835938 735.71875 556.875 734.890625 556.875 734.0625 L 556.875 607.5 C 556.878906 600.515625 556.304688 593.582031 555.15625 586.691406 C 554.007812 579.804688 552.296875 573.058594 550.023438 566.457031 C 547.75 559.851562 544.949219 553.480469 541.617188 547.34375 C 538.285156 541.207031 534.46875 535.386719 530.171875 529.886719 C 532.792969 529.527344 535.410156 529.105469 538.015625 528.628906 C 540.621094 528.152344 543.210938 527.617188 545.792969 527.023438 C 548.375 526.429688 550.941406 525.78125 553.492188 525.070312 C 556.046875 524.363281 558.582031 523.597656 561.097656 522.777344 C 563.617188 521.953125 566.113281 521.078125 568.59375 520.144531 C 571.070312 519.210938 573.527344 518.222656 575.960938 517.175781 C 578.394531 516.132812 580.804688 515.035156 583.191406 513.882812 C 585.574219 512.734375 587.933594 511.527344 590.265625 510.269531 C 592.597656 509.011719 594.898438 507.703125 597.171875 506.34375 C 599.441406 504.984375 601.683594 503.574219 603.894531 502.113281 C 606.101562 500.652344 608.277344 499.140625 610.417969 497.582031 C 612.5625 496.023438 614.667969 494.417969 616.738281 492.765625 C 618.804688 491.113281 620.839844 489.417969 622.832031 487.671875 C 624.824219 485.929688 626.777344 484.140625 628.691406 482.3125 C 630.605469 480.480469 632.476562 478.605469 634.308594 476.691406 C 636.136719 474.777344 637.921875 472.820312 639.664062 470.828125 C 641.40625 468.832031 643.105469 466.800781 644.753906 464.726562 C 646.40625 462.65625 648.011719 460.550781 649.566406 458.40625 C 651.125 456.265625 652.632812 454.089844 654.089844 451.878906 C 655.550781 449.667969 656.957031 447.425781 658.316406 445.152344 C 659.675781 442.878906 660.984375 440.574219 662.238281 438.242188 C 663.496094 435.910156 664.695312 433.554688 665.847656 431.167969 C 666.996094 428.78125 668.09375 426.371094 669.136719 423.9375 C 670.175781 421.5 671.164062 419.042969 672.09375 416.5625 C 673.027344 414.085938 673.902344 411.585938 674.722656 409.066406 C 675.542969 406.550781 676.304688 404.015625 677.011719 401.460938 C 677.71875 398.910156 678.367188 396.339844 678.960938 393.761719 C 679.550781 391.179688 680.085938 388.585938 680.558594 385.980469 C 681.035156 383.375 681.449219 380.757812 681.808594 378.132812 C 682.167969 375.511719 682.464844 372.878906 682.707031 370.242188 C 682.945312 367.605469 683.128906 364.960938 683.25 362.316406 C 683.371094 359.671875 683.433594 357.023438 683.4375 354.375 L 683.4375 329.0625 C 683.359375 321.230469 682.78125 313.433594 681.707031 305.675781 C 680.632812 297.917969 679.070312 290.257812 677.019531 282.699219 C 674.964844 275.140625 672.441406 267.742188 669.441406 260.503906 C 666.445312 253.269531 663 246.253906 659.105469 239.457031 Z M 632.8125 354.375 C 632.8125 356.445312 632.761719 358.515625 632.660156 360.585938 C 632.558594 362.652344 632.40625 364.71875 632.203125 366.78125 C 632 368.839844 631.746094 370.898438 631.441406 372.945312 C 631.136719 374.996094 630.785156 377.035156 630.378906 379.066406 C 629.976562 381.097656 629.523438 383.117188 629.019531 385.128906 C 628.515625 387.136719 627.964844 389.132812 627.363281 391.113281 C 626.761719 393.097656 626.113281 395.0625 625.414062 397.011719 C 624.714844 398.960938 623.972656 400.894531 623.179688 402.808594 C 622.386719 404.722656 621.546875 406.613281 620.660156 408.488281 C 619.777344 410.359375 618.84375 412.210938 617.867188 414.035156 C 616.890625 415.863281 615.871094 417.664062 614.804688 419.441406 C 613.742188 421.21875 612.632812 422.96875 611.484375 424.6875 C 610.332031 426.410156 609.140625 428.105469 607.90625 429.769531 C 606.671875 431.433594 605.398438 433.0625 604.085938 434.664062 C 602.769531 436.265625 601.417969 437.835938 600.027344 439.367188 C 598.636719 440.902344 597.207031 442.402344 595.742188 443.867188 C 594.277344 445.332031 592.777344 446.761719 591.242188 448.152344 C 589.710938 449.542969 588.140625 450.894531 586.539062 452.210938 C 584.9375 453.523438 583.308594 454.796875 581.644531 456.03125 C 579.980469 457.265625 578.285156 458.457031 576.5625 459.609375 C 574.84375 460.757812 573.09375 461.867188 571.316406 462.929688 C 569.539062 463.996094 567.738281 465.015625 565.910156 465.992188 C 564.085938 466.96875 562.234375 467.902344 560.363281 468.785156 C 558.488281 469.671875 556.597656 470.511719 554.683594 471.304688 C 552.769531 472.097656 550.835938 472.839844 548.886719 473.539062 C 546.9375 474.238281 544.972656 474.886719 542.988281 475.488281 C 541.007812 476.089844 539.011719 476.640625 537.003906 477.144531 C 534.992188 477.648438 532.972656 478.101562 530.941406 478.503906 C 528.910156 478.910156 526.871094 479.261719 524.820312 479.566406 C 522.773438 479.871094 520.714844 480.125 518.65625 480.328125 C 516.59375 480.53125 514.527344 480.683594 512.460938 480.785156 C 510.390625 480.886719 508.320312 480.9375 506.25 480.9375 L 354.375 480.9375 C 352.304688 480.9375 350.234375 480.886719 348.164062 480.785156 C 346.097656 480.683594 344.03125 480.53125 341.96875 480.328125 C 339.910156 480.125 337.851562 479.871094 335.804688 479.566406 C 333.753906 479.261719 331.714844 478.910156 329.683594 478.503906 C 327.652344 478.101562 325.632812 477.648438 323.621094 477.144531 C 321.613281 476.640625 319.617188 476.089844 317.636719 475.488281 C 315.652344 474.886719 313.6875 474.238281 311.738281 473.539062 C 309.789062 472.839844 307.855469 472.097656 305.941406 471.304688 C 304.027344 470.511719 302.136719 469.671875 300.261719 468.785156 C 298.390625 467.902344 296.539062 466.96875 294.714844 465.992188 C 292.886719 465.015625 291.085938 463.996094 289.308594 462.929688 C 287.53125 461.867188 285.78125 460.757812 284.0625 459.609375 C 282.339844 458.457031 280.644531 457.265625 278.980469 456.03125 C 277.316406 454.796875 275.6875 453.523438 274.085938 452.210938 C 272.484375 450.894531 270.914062 449.542969 269.378906 448.152344 C 267.847656 446.761719 266.347656 445.332031 264.882812 443.867188 C 263.417969 442.402344 261.988281 440.902344 260.597656 439.371094 C 259.207031 437.835938 257.855469 436.265625 256.539062 434.664062 C 255.226562 433.0625 253.953125 431.433594 252.71875 429.769531 C 251.484375 428.105469 250.292969 426.410156 249.140625 424.6875 C 247.992188 422.96875 246.882812 421.21875 245.820312 419.441406 C 244.753906 417.664062 243.734375 415.863281 242.757812 414.035156 C 241.78125 412.210938 240.847656 410.359375 239.964844 408.488281 C 239.078125 406.613281 238.238281 404.722656 237.445312 402.808594 C 236.652344 400.894531 235.910156 398.960938 235.210938 397.011719 C 234.511719 395.0625 233.863281 393.097656 233.261719 391.113281 C 232.660156 389.132812 232.109375 387.136719 231.605469 385.128906 C 231.101562 383.117188 230.648438 381.097656 230.246094 379.066406 C 229.839844 377.035156 229.484375 374.996094 229.183594 372.945312 C 228.878906 370.898438 228.625 368.839844 228.421875 366.78125 C 228.21875 364.71875 228.066406 362.652344 227.964844 360.585938 C 227.863281 358.515625 227.8125 356.445312 227.8125 354.375 L 227.8125 329.0625 C 227.890625 322.765625 228.414062 316.507812 229.386719 310.289062 C 230.359375 304.066406 231.769531 297.949219 233.617188 291.929688 C 235.464844 285.910156 237.730469 280.054688 240.414062 274.359375 C 243.101562 268.664062 246.175781 263.1875 249.644531 257.933594 C 250.945312 256.222656 252.007812 254.371094 252.835938 252.386719 C 253.664062 250.40625 254.230469 248.347656 254.535156 246.21875 C 254.839844 244.089844 254.875 241.957031 254.632812 239.820312 C 254.394531 237.683594 253.890625 235.613281 253.125 233.601562 C 251.480469 229.363281 250.046875 225.050781 248.828125 220.667969 C 247.609375 216.289062 246.605469 211.855469 245.824219 207.375 C 245.039062 202.894531 244.476562 198.386719 244.136719 193.851562 C 243.796875 189.316406 243.679688 184.777344 243.789062 180.230469 C 243.894531 175.683594 244.222656 171.152344 244.777344 166.636719 C 245.332031 162.121094 246.105469 157.644531 247.097656 153.207031 C 248.089844 148.769531 249.300781 144.390625 250.726562 140.070312 C 252.148438 135.75 253.78125 131.511719 255.625 127.355469 C 260.789062 127.910156 265.902344 128.75 270.96875 129.878906 C 276.039062 131.011719 281.027344 132.417969 285.9375 134.109375 C 290.847656 135.796875 295.648438 137.753906 300.339844 139.984375 C 305.027344 142.210938 309.578125 144.695312 313.992188 147.433594 C 318.402344 150.171875 322.648438 153.144531 326.726562 156.359375 C 330.804688 159.574219 334.6875 163.007812 338.382812 166.65625 C 342.074219 170.308594 345.550781 174.152344 348.8125 178.195312 C 352.074219 182.234375 355.097656 186.445312 357.886719 190.824219 C 359.027344 192.609375 360.371094 194.222656 361.914062 195.667969 C 363.460938 197.113281 365.160156 198.347656 367.015625 199.367188 C 368.871094 200.386719 370.820312 201.164062 372.871094 201.691406 C 374.917969 202.222656 377 202.492188 379.117188 202.5 L 481.476562 202.5 C 483.601562 202.5 485.691406 202.238281 487.75 201.710938 C 489.808594 201.183594 491.769531 200.410156 493.632812 199.390625 C 495.496094 198.371094 497.203125 197.136719 498.753906 195.683594 C 500.308594 194.234375 501.65625 192.613281 502.800781 190.824219 C 505.589844 186.445312 508.613281 182.234375 511.875 178.191406 C 515.136719 174.152344 518.613281 170.304688 522.304688 166.65625 C 526 163.003906 529.882812 159.574219 533.960938 156.359375 C 538.039062 153.144531 542.285156 150.167969 546.695312 147.429688 C 551.105469 144.691406 555.660156 142.207031 560.347656 139.980469 C 565.039062 137.753906 569.839844 135.792969 574.75 134.105469 C 579.660156 132.417969 584.648438 131.007812 589.71875 129.878906 C 594.785156 128.75 599.902344 127.910156 605.0625 127.355469 C 606.902344 131.511719 608.535156 135.753906 609.957031 140.074219 C 611.378906 144.394531 612.585938 148.773438 613.574219 153.210938 C 614.566406 157.652344 615.335938 162.128906 615.886719 166.644531 C 616.4375 171.15625 616.765625 175.6875 616.867188 180.234375 C 616.972656 184.78125 616.855469 189.324219 616.511719 193.859375 C 616.167969 198.394531 615.605469 202.902344 614.816406 207.382812 C 614.03125 211.859375 613.027344 216.292969 611.804688 220.671875 C 610.582031 225.054688 609.148438 229.363281 607.5 233.601562 C 606.734375 235.59375 606.226562 237.644531 605.972656 239.761719 C 605.722656 241.878906 605.734375 243.992188 606.011719 246.105469 C 606.285156 248.21875 606.820312 250.265625 607.605469 252.246094 C 608.394531 254.230469 609.414062 256.082031 610.664062 257.808594 C 614.167969 263.0625 617.277344 268.539062 619.992188 274.242188 C 622.707031 279.941406 625.003906 285.808594 626.878906 291.835938 C 628.753906 297.867188 630.1875 304 631.179688 310.238281 C 632.175781 316.472656 632.71875 322.75 632.8125 329.0625 Z M 632.8125 354.375 " fill-opacity="1" fill-rule="nonzero"/></svg>