<svg xmlns="http://www.w3.org/2000/svg" xmlns:xlink="http://www.w3.org/1999/xlink" width="1080" zoomAndPan="magnify" viewBox="0 0 810 809.999993" height="1080" preserveAspectRatio="xMidYMid meet" version="1.0"><path fill="#ffffff" d="M 405 202.5 C 402.929688 202.5 400.859375 202.550781 398.789062 202.652344 C 396.722656 202.753906 394.65625 202.90625 392.59375 203.109375 C 390.535156 203.3125 388.476562 203.566406 386.429688 203.871094 C 384.378906 204.171875 382.339844 204.527344 380.308594 204.933594 C 378.277344 205.335938 376.257812 205.789062 374.246094 206.292969 C 372.238281 206.796875 370.242188 207.347656 368.261719 207.949219 C 366.277344 208.550781 364.3125 209.199219 362.363281 209.898438 C 360.414062 210.597656 358.480469 211.339844 356.566406 212.132812 C 354.652344 212.925781 352.761719 213.765625 350.886719 214.652344 C 349.015625 215.535156 347.164062 216.46875 345.339844 217.445312 C 343.511719 218.421875 341.710938 219.441406 339.933594 220.507812 C 338.15625 221.570312 336.40625 222.679688 334.6875 223.828125 C 332.964844 224.980469 331.269531 226.171875 329.605469 227.40625 C 327.941406 228.640625 326.3125 229.914062 324.710938 231.226562 C 323.109375 232.542969 321.539062 233.894531 320.003906 235.285156 C 318.472656 236.675781 316.972656 238.105469 315.507812 239.570312 C 314.042969 241.035156 312.613281 242.535156 311.222656 244.066406 C 309.832031 245.601562 308.480469 247.171875 307.164062 248.773438 C 305.851562 250.375 304.578125 252.003906 303.34375 253.667969 C 302.109375 255.332031 300.917969 257.027344 299.765625 258.75 C 298.617188 260.46875 297.507812 262.21875 296.445312 263.996094 C 295.378906 265.773438 294.359375 267.574219 293.382812 269.402344 C 292.40625 271.226562 291.472656 273.078125 290.589844 274.949219 C 289.703125 276.824219 288.863281 278.714844 288.070312 280.628906 C 287.277344 282.542969 286.535156 284.476562 285.835938 286.425781 C 285.136719 288.375 284.488281 290.339844 283.886719 292.324219 C 283.285156 294.304688 282.734375 296.300781 282.230469 298.308594 C 281.726562 300.320312 281.273438 302.339844 280.871094 304.371094 C 280.464844 306.402344 280.109375 308.441406 279.808594 310.492188 C 279.503906 312.539062 279.25 314.597656 279.046875 316.65625 C 278.84375 318.71875 278.691406 320.785156 278.589844 322.851562 C 278.488281 324.921875 278.4375 326.992188 278.4375 329.0625 C 278.4375 331.132812 278.488281 333.203125 278.589844 335.273438 C 278.691406 337.339844 278.84375 339.40625 279.046875 341.46875 C 279.25 343.527344 279.503906 345.585938 279.808594 347.632812 C 280.109375 349.683594 280.464844 351.722656 280.871094 353.753906 C 281.273438 355.785156 281.726562 357.804688 282.230469 359.816406 C 282.734375 361.824219 283.285156 363.820312 283.886719 365.800781 C 284.488281 367.785156 285.136719 369.75 285.835938 371.699219 C 286.535156 373.648438 287.277344 375.582031 288.070312 377.496094 C 288.863281 379.410156 289.703125 381.300781 290.589844 383.175781 C 291.472656 385.046875 292.40625 386.898438 293.382812 388.722656 C 294.359375 390.550781 295.378906 392.351562 296.445312 394.128906 C 297.507812 395.90625 298.617188 397.65625 299.765625 399.375 C 300.917969 401.097656 302.109375 402.792969 303.34375 404.457031 C 304.578125 406.121094 305.851562 407.75 307.164062 409.351562 C 308.480469 410.953125 309.832031 412.523438 311.222656 414.054688 C 312.613281 415.589844 314.042969 417.089844 315.507812 418.554688 C 316.972656 420.019531 318.472656 421.449219 320.003906 422.839844 C 321.539062 424.230469 323.109375 425.582031 324.710938 426.898438 C 326.3125 428.210938 327.941406 429.484375 329.605469 430.71875 C 331.269531 431.953125 332.964844 433.144531 334.6875 434.296875 C 336.40625 435.445312 338.15625 436.554688 339.933594 437.617188 C 341.710938 438.683594 343.511719 439.703125 345.339844 440.679688 C 347.164062 441.65625 349.015625 442.589844 350.886719 443.472656 C 352.761719 444.359375 354.652344 445.199219 356.566406 445.992188 C 358.480469 446.785156 360.414062 447.527344 362.363281 448.226562 C 364.3125 448.925781 366.277344 449.574219 368.261719 450.175781 C 370.242188 450.777344 372.238281 451.328125 374.246094 451.832031 C 376.257812 452.335938 378.277344 452.789062 380.308594 453.191406 C 382.339844 453.597656 384.378906 453.949219 386.429688 454.253906 C 388.476562 454.558594 390.535156 454.8125 392.59375 455.015625 C 394.65625 455.21875 396.722656 455.371094 398.789062 455.472656 C 400.859375 455.574219 402.929688 455.625 405 455.625 C 407.070312 455.625 409.140625 455.574219 411.210938 455.472656 C 413.277344 455.371094 415.34375 455.21875 417.40625 455.015625 C 419.464844 454.8125 421.523438 454.558594 423.570312 454.253906 C 425.621094 453.949219 427.660156 453.597656 429.691406 453.191406 C 431.722656 452.789062 433.742188 452.335938 435.753906 451.832031 C 437.761719 451.328125 439.757812 450.777344 441.738281 450.175781 C 443.722656 449.574219 445.6875 448.925781 447.636719 448.226562 C 449.585938 447.527344 451.519531 446.785156 453.433594 445.992188 C 455.347656 445.199219 457.238281 444.359375 459.113281 443.472656 C 460.984375 442.589844 462.835938 441.65625 464.660156 440.679688 C 466.488281 439.703125 468.289062 438.683594 470.066406 437.617188 C 471.84375 436.554688 473.59375 435.445312 475.3125 434.296875 C 477.035156 433.144531 478.730469 431.953125 480.394531 430.71875 C 482.058594 429.484375 483.6875 428.210938 485.289062 426.898438 C 486.890625 425.582031 488.460938 424.230469 489.996094 422.839844 C 491.527344 421.449219 493.027344 420.019531 494.492188 418.554688 C 495.957031 417.089844 497.386719 415.589844 498.777344 414.058594 C 500.167969 412.523438 501.519531 410.953125 502.835938 409.351562 C 504.148438 407.75 505.421875 406.121094 506.65625 404.457031 C 507.890625 402.792969 509.082031 401.097656 510.234375 399.375 C 511.382812 397.65625 512.492188 395.90625 513.554688 394.128906 C 514.621094 392.351562 515.640625 390.550781 516.617188 388.722656 C 517.59375 386.898438 518.527344 385.046875 519.410156 383.175781 C 520.296875 381.300781 521.136719 379.410156 521.929688 377.496094 C 522.722656 375.582031 523.464844 373.648438 524.164062 371.699219 C 524.863281 369.75 525.511719 367.785156 526.113281 365.800781 C 526.714844 363.820312 527.265625 361.824219 527.769531 359.816406 C 528.273438 357.804688 528.726562 355.785156 529.128906 353.753906 C 529.535156 351.722656 529.886719 349.683594 530.191406 347.632812 C 530.496094 345.585938 530.75 343.527344 530.953125 341.46875 C 531.15625 339.40625 531.308594 337.339844 531.410156 335.273438 C 531.511719 333.203125 531.5625 331.132812 531.5625 329.0625 C 531.5625 326.992188 531.511719 324.921875 531.410156 322.851562 C 531.308594 320.785156 531.15625 318.71875 530.953125 316.65625 C 530.75 314.597656 530.496094 312.539062 530.191406 310.492188 C 529.890625 308.441406 529.535156 306.402344 529.128906 304.371094 C 528.726562 302.339844 528.273438 300.320312 527.769531 298.308594 C 527.265625 296.300781 526.714844 294.304688 526.113281 292.324219 C 525.511719 290.339844 524.863281 288.375 524.164062 286.425781 C 523.464844 284.476562 522.722656 282.542969 521.929688 280.628906 C 521.136719 278.714844 520.296875 276.824219 519.410156 274.949219 C 518.527344 273.078125 517.59375 271.226562 516.617188 269.402344 C 515.640625 267.574219 514.621094 265.773438 513.554688 263.996094 C 512.492188 262.21875 511.382812 260.46875 510.234375 258.75 C 509.082031 257.027344 507.890625 255.332031 506.65625 253.667969 C 505.421875 252.003906 504.148438 250.375 502.835938 248.773438 C 501.519531 247.171875 500.167969 245.601562 498.777344 244.066406 C 497.386719 242.535156 495.957031 241.035156 494.492188 239.570312 C 493.027344 238.105469 491.527344 236.675781 489.996094 235.285156 C 488.460938 233.894531 486.890625 232.542969 485.289062 231.226562 C 483.6875 229.914062 482.058594 228.640625 480.394531 227.40625 C 478.730469 226.171875 477.035156 224.980469 475.3125 223.828125 C 473.59375 222.679688 471.84375 221.570312 470.066406 220.507812 C 468.289062 219.441406 466.488281 218.421875 464.660156 217.445312 C 462.835938 216.46875 460.984375 215.535156 459.113281 214.652344 C 457.238281 213.765625 455.347656 212.925781 453.433594 212.132812 C 451.519531 211.339844 449.585938 210.597656 447.636719 209.898438 C 445.6875 209.199219 443.722656 208.550781 441.738281 207.949219 C 439.757812 207.347656 437.761719 206.796875 435.753906 206.292969 C 433.742188 205.789062 431.722656 205.335938 429.691406 204.933594 C 427.660156 204.527344 425.621094 204.171875 423.570312 203.871094 C 421.523438 203.566406 419.464844 203.3125 417.40625 203.109375 C 415.34375 202.90625 413.277344 202.753906 411.210938 202.652344 C 409.140625 202.550781 407.070312 202.5 405 202.5 Z M 405 405 C 403.757812 405 402.515625 404.96875 401.273438 404.910156 C 400.03125 404.847656 398.792969 404.757812 397.558594 404.632812 C 396.320312 404.511719 395.085938 404.359375 393.859375 404.179688 C 392.628906 403.996094 391.402344 403.785156 390.183594 403.539062 C 388.964844 403.296875 387.753906 403.027344 386.546875 402.722656 C 385.34375 402.421875 384.144531 402.089844 382.957031 401.730469 C 381.765625 401.371094 380.585938 400.980469 379.417969 400.5625 C 378.246094 400.140625 377.089844 399.695312 375.941406 399.21875 C 374.792969 398.742188 373.65625 398.242188 372.53125 397.710938 C 371.410156 397.179688 370.300781 396.621094 369.203125 396.035156 C 368.105469 395.449219 367.027344 394.835938 365.960938 394.195312 C 364.894531 393.558594 363.84375 392.894531 362.8125 392.203125 C 361.777344 391.511719 360.761719 390.796875 359.765625 390.054688 C 358.765625 389.316406 357.785156 388.550781 356.824219 387.761719 C 355.863281 386.972656 354.925781 386.164062 354.003906 385.328125 C 353.082031 384.492188 352.183594 383.636719 351.304688 382.757812 C 350.425781 381.878906 349.570312 380.980469 348.734375 380.058594 C 347.898438 379.136719 347.085938 378.199219 346.300781 377.238281 C 345.511719 376.277344 344.746094 375.296875 344.007812 374.296875 C 343.265625 373.300781 342.550781 372.285156 341.859375 371.25 C 341.167969 370.21875 340.503906 369.167969 339.867188 368.101562 C 339.226562 367.035156 338.613281 365.957031 338.027344 364.859375 C 337.441406 363.761719 336.882812 362.652344 336.351562 361.53125 C 335.820312 360.40625 335.320312 359.269531 334.84375 358.121094 C 334.367188 356.972656 333.921875 355.816406 333.5 354.644531 C 333.082031 353.476562 332.691406 352.296875 332.332031 351.105469 C 331.972656 349.917969 331.640625 348.71875 331.339844 347.515625 C 331.035156 346.308594 330.765625 345.097656 330.523438 343.878906 C 330.277344 342.660156 330.066406 341.433594 329.882812 340.203125 C 329.703125 338.976562 329.550781 337.742188 329.429688 336.503906 C 329.304688 335.269531 329.214844 334.03125 329.152344 332.789062 C 329.09375 331.546875 329.0625 330.304688 329.0625 329.0625 C 329.0625 327.820312 329.09375 326.578125 329.152344 325.335938 C 329.214844 324.09375 329.304688 322.855469 329.429688 321.621094 C 329.550781 320.382812 329.703125 319.148438 329.882812 317.921875 C 330.066406 316.691406 330.277344 315.464844 330.523438 314.246094 C 330.765625 313.027344 331.035156 311.816406 331.339844 310.609375 C 331.640625 309.40625 331.972656 308.207031 332.332031 307.019531 C 332.691406 305.828125 333.082031 304.648438 333.5 303.480469 C 333.921875 302.308594 334.367188 301.152344 334.84375 300.003906 C 335.320312 298.855469 335.820312 297.71875 336.351562 296.59375 C 336.882812 295.472656 337.441406 294.363281 338.027344 293.265625 C 338.613281 292.167969 339.226562 291.089844 339.867188 290.023438 C 340.503906 288.957031 341.167969 287.90625 341.859375 286.875 C 342.550781 285.839844 343.265625 284.824219 344.007812 283.828125 C 344.746094 282.828125 345.511719 281.847656 346.300781 280.886719 C 347.085938 279.925781 347.898438 278.988281 348.734375 278.066406 C 349.570312 277.144531 350.425781 276.246094 351.304688 275.367188 C 352.183594 274.488281 353.082031 273.632812 354.003906 272.796875 C 354.925781 271.960938 355.863281 271.152344 356.824219 270.363281 C 357.785156 269.574219 358.765625 268.808594 359.765625 268.070312 C 360.761719 267.328125 361.777344 266.613281 362.8125 265.921875 C 363.84375 265.230469 364.894531 264.566406 365.960938 263.929688 C 367.027344 263.289062 368.105469 262.675781 369.203125 262.089844 C 370.300781 261.503906 371.410156 260.945312 372.53125 260.414062 C 373.65625 259.882812 374.792969 259.382812 375.941406 258.90625 C 377.089844 258.429688 378.246094 257.984375 379.417969 257.5625 C 380.585938 257.144531 381.765625 256.753906 382.957031 256.394531 C 384.144531 256.035156 385.34375 255.703125 386.546875 255.402344 C 387.753906 255.097656 388.964844 254.828125 390.183594 254.585938 C 391.402344 254.339844 392.628906 254.128906 393.859375 253.945312 C 395.085938 253.765625 396.320312 253.613281 397.558594 253.492188 C 398.792969 253.367188 400.03125 253.277344 401.273438 253.214844 C 402.515625 253.15625 403.757812 253.125 405 253.125 C 406.242188 253.125 407.484375 253.15625 408.726562 253.214844 C 409.96875 253.277344 411.207031 253.367188 412.441406 253.492188 C 413.679688 253.613281 414.914062 253.765625 416.140625 253.945312 C 417.371094 254.128906 418.597656 254.339844 419.816406 254.585938 C 421.035156 254.828125 422.246094 255.097656 423.453125 255.402344 C 424.65625 255.703125 425.855469 256.035156 427.042969 256.394531 C 428.234375 256.753906 429.414062 257.144531 430.582031 257.5625 C 431.753906 257.984375 432.910156 258.429688 434.058594 258.90625 C 435.207031 259.382812 436.34375 259.882812 437.46875 260.414062 C 438.589844 260.945312 439.699219 261.503906 440.796875 262.089844 C 441.894531 262.675781 442.972656 263.289062 444.039062 263.929688 C 445.105469 264.566406 446.15625 265.230469 447.1875 265.921875 C 448.222656 266.613281 449.238281 267.328125 450.234375 268.070312 C 451.234375 268.808594 452.214844 269.574219 453.175781 270.363281 C 454.136719 271.152344 455.074219 271.960938 455.996094 272.796875 C 456.917969 273.632812 457.816406 274.488281 458.695312 275.367188 C 459.574219 276.246094 460.429688 277.144531 461.265625 278.066406 C 462.101562 278.988281 462.910156 279.925781 463.699219 280.886719 C 464.488281 281.847656 465.253906 282.828125 465.992188 283.828125 C 466.734375 284.824219 467.449219 285.839844 468.140625 286.875 C 468.828125 287.90625 469.496094 288.957031 470.132812 290.023438 C 470.773438 291.089844 471.386719 292.167969 471.972656 293.265625 C 472.558594 294.363281 473.117188 295.472656 473.648438 296.59375 C 474.179688 297.71875 474.679688 298.855469 475.15625 300.003906 C 475.632812 301.152344 476.078125 302.308594 476.5 303.480469 C 476.917969 304.648438 477.308594 305.828125 477.667969 307.019531 C 478.027344 308.207031 478.359375 309.40625 478.660156 310.609375 C 478.964844 311.816406 479.234375 313.027344 479.476562 314.246094 C 479.722656 315.464844 479.933594 316.691406 480.117188 317.921875 C 480.296875 319.148438 480.449219 320.382812 480.570312 321.621094 C 480.695312 322.855469 480.785156 324.09375 480.847656 325.335938 C 480.90625 326.578125 480.9375 327.820312 480.9375 329.0625 C 480.9375 330.304688 480.90625 331.546875 480.847656 332.789062 C 480.785156 334.03125 480.695312 335.269531 480.570312 336.503906 C 480.449219 337.742188 480.296875 338.976562 480.117188 340.203125 C 479.933594 341.433594 479.722656 342.660156 479.476562 343.878906 C 479.234375 345.097656 478.964844 346.308594 478.660156 347.515625 C 478.359375 348.71875 478.027344 349.917969 477.667969 351.105469 C 477.308594 352.296875 476.917969 353.476562 476.5 354.644531 C 476.078125 355.816406 475.632812 356.972656 475.15625 358.121094 C 474.679688 359.269531 474.179688 360.40625 473.648438 361.53125 C 473.117188 362.652344 472.558594 363.761719 471.972656 364.859375 C 471.386719 365.957031 470.773438 367.035156 470.132812 368.101562 C 469.496094 369.167969 468.828125 370.21875 468.140625 371.25 C 467.449219 372.285156 466.734375 373.300781 465.992188 374.296875 C 465.253906 375.296875 464.488281 376.277344 463.699219 377.238281 C 462.910156 378.199219 462.101562 379.136719 461.265625 380.058594 C 460.429688 380.980469 459.574219 381.878906 458.695312 382.757812 C 457.816406 383.636719 456.917969 384.492188 455.996094 385.328125 C 455.074219 386.164062 454.136719 386.972656 453.175781 387.761719 C 452.214844 388.550781 451.234375 389.316406 450.234375 390.054688 C 449.238281 390.796875 448.222656 391.511719 447.1875 392.203125 C 446.15625 392.894531 445.105469 393.558594 444.039062 394.195312 C 442.972656 394.835938 441.894531 395.449219 440.796875 396.035156 C 439.699219 396.621094 438.589844 397.179688 437.46875 397.710938 C 436.34375 398.242188 435.207031 398.742188 434.058594 399.21875 C 432.910156 399.695312 431.753906 400.140625 430.582031 400.5625 C 429.414062 400.980469 428.234375 401.371094 427.042969 401.730469 C 425.855469 402.089844 424.65625 402.421875 423.453125 402.722656 C 422.246094 403.027344 421.035156 403.296875 419.816406 403.539062 C 418.597656 403.785156 417.371094 403.996094 416.140625 404.179688 C 414.914062 404.359375 413.679688 404.511719 412.441406 404.632812 C 411.207031 404.757812 409.96875 404.847656 408.726562 404.910156 C 407.484375 404.96875 406.242188 405 405 405 Z M 405 50.625 C 400.445312 50.628906 395.890625 50.746094 391.34375 50.976562 C 386.792969 51.203125 382.25 51.542969 377.71875 51.996094 C 373.183594 52.445312 368.664062 53.007812 364.160156 53.679688 C 359.65625 54.351562 355.167969 55.136719 350.703125 56.027344 C 346.234375 56.917969 341.792969 57.921875 337.375 59.03125 C 332.957031 60.140625 328.566406 61.359375 324.210938 62.683594 C 319.851562 64.011719 315.527344 65.441406 311.238281 66.980469 C 306.953125 68.515625 302.703125 70.160156 298.496094 71.902344 C 294.289062 73.648438 290.125 75.496094 286.007812 77.449219 C 281.890625 79.398438 277.824219 81.445312 273.808594 83.59375 C 269.792969 85.746094 265.828125 87.992188 261.921875 90.335938 C 258.015625 92.675781 254.171875 95.117188 250.382812 97.648438 C 246.597656 100.179688 242.875 102.800781 239.214844 105.515625 C 235.558594 108.230469 231.96875 111.035156 228.445312 113.925781 C 224.925781 116.816406 221.476562 119.789062 218.101562 122.847656 C 214.726562 125.910156 211.429688 129.046875 208.207031 132.269531 C 204.984375 135.492188 201.847656 138.789062 198.785156 142.164062 C 195.726562 145.539062 192.753906 148.988281 189.863281 152.507812 C 186.972656 156.03125 184.167969 159.621094 181.453125 163.277344 C 178.738281 166.9375 176.117188 170.660156 173.585938 174.445312 C 171.054688 178.234375 168.613281 182.078125 166.273438 185.984375 C 163.929688 189.890625 161.683594 193.855469 159.53125 197.871094 C 157.382812 201.886719 155.335938 205.953125 153.386719 210.070312 C 151.433594 214.1875 149.585938 218.351562 147.839844 222.558594 C 146.097656 226.765625 144.453125 231.015625 142.917969 235.300781 C 141.378906 239.589844 139.949219 243.914062 138.621094 248.273438 C 137.296875 252.628906 136.078125 257.019531 134.96875 261.4375 C 133.859375 265.855469 132.855469 270.296875 131.964844 274.765625 C 131.074219 279.230469 130.289062 283.71875 129.617188 288.222656 C 128.945312 292.726562 128.382812 297.246094 127.933594 301.78125 C 127.480469 306.3125 127.140625 310.855469 126.914062 315.40625 C 126.683594 319.953125 126.566406 324.507812 126.5625 329.0625 C 126.5625 428.414062 172.472656 533.714844 259.453125 633.601562 C 278.996094 656.171875 299.726562 677.585938 321.65625 697.847656 C 343.582031 718.105469 366.5625 737.085938 390.601562 754.785156 C 391.660156 755.527344 392.769531 756.183594 393.925781 756.753906 C 395.085938 757.328125 396.28125 757.808594 397.511719 758.195312 C 398.742188 758.585938 400 758.875 401.273438 759.074219 C 402.550781 759.269531 403.835938 759.367188 405.125 759.367188 C 406.417969 759.367188 407.703125 759.269531 408.976562 759.074219 C 410.253906 758.875 411.507812 758.585938 412.742188 758.195312 C 413.972656 757.808594 415.167969 757.328125 416.324219 756.753906 C 417.484375 756.183594 418.59375 755.527344 419.648438 754.785156 C 443.644531 737.078125 466.585938 718.09375 488.46875 697.835938 C 510.351562 677.574219 531.042969 656.164062 550.546875 633.601562 C 637.398438 533.714844 683.4375 428.414062 683.4375 329.0625 C 683.433594 324.507812 683.316406 319.953125 683.085938 315.40625 C 682.859375 310.855469 682.519531 306.3125 682.066406 301.78125 C 681.617188 297.246094 681.054688 292.726562 680.382812 288.222656 C 679.710938 283.71875 678.925781 279.230469 678.035156 274.765625 C 677.144531 270.296875 676.140625 265.855469 675.03125 261.4375 C 673.921875 257.019531 672.703125 252.628906 671.378906 248.273438 C 670.050781 243.914062 668.621094 239.589844 667.082031 235.300781 C 665.546875 231.015625 663.902344 226.765625 662.160156 222.558594 C 660.414062 218.351562 658.566406 214.1875 656.613281 210.070312 C 654.664062 205.953125 652.617188 201.886719 650.46875 197.871094 C 648.316406 193.855469 646.070312 189.890625 643.726562 185.984375 C 641.386719 182.078125 638.945312 178.234375 636.414062 174.445312 C 633.882812 170.660156 631.261719 166.9375 628.546875 163.277344 C 625.832031 159.621094 623.027344 156.03125 620.136719 152.507812 C 617.246094 148.988281 614.273438 145.539062 611.214844 142.164062 C 608.152344 138.789062 605.015625 135.492188 601.792969 132.269531 C 598.570312 129.046875 595.273438 125.910156 591.898438 122.847656 C 588.523438 119.789062 585.074219 116.816406 581.554688 113.925781 C 578.03125 111.035156 574.441406 108.230469 570.785156 105.515625 C 567.125 102.800781 563.402344 100.179688 559.617188 97.648438 C 555.828125 95.117188 551.984375 92.675781 548.078125 90.335938 C 544.171875 87.992188 540.207031 85.746094 536.191406 83.59375 C 532.175781 81.445312 528.109375 79.398438 523.992188 77.449219 C 519.875 75.496094 515.710938 73.648438 511.503906 71.902344 C 507.296875 70.160156 503.046875 68.515625 498.761719 66.980469 C 494.472656 65.441406 490.148438 64.011719 485.789062 62.683594 C 481.433594 61.359375 477.042969 60.140625 472.625 59.03125 C 468.207031 57.921875 463.765625 56.917969 459.296875 56.027344 C 454.832031 55.136719 450.34375 54.351562 445.839844 53.679688 C 441.335938 53.007812 436.816406 52.445312 432.28125 51.996094 C 427.75 51.542969 423.207031 51.203125 418.65625 50.976562 C 414.109375 50.746094 409.554688 50.628906 405 50.625 Z M 405 702.421875 C 352.699219 661.289062 177.1875 510.203125 177.1875 329.0625 C 177.1875 325.335938 177.277344 321.609375 177.460938 317.882812 C 177.644531 314.160156 177.917969 310.441406 178.285156 306.734375 C 178.648438 303.023438 179.105469 299.324219 179.652344 295.636719 C 180.199219 291.949219 180.835938 288.273438 181.566406 284.617188 C 182.292969 280.960938 183.109375 277.324219 184.015625 273.707031 C 184.921875 270.09375 185.914062 266.5 186.996094 262.933594 C 188.078125 259.363281 189.25 255.824219 190.503906 252.316406 C 191.761719 248.804688 193.101562 245.328125 194.527344 241.882812 C 195.957031 238.4375 197.464844 235.03125 199.058594 231.660156 C 200.652344 228.289062 202.328125 224.960938 204.085938 221.671875 C 205.84375 218.382812 207.683594 215.140625 209.597656 211.945312 C 211.515625 208.746094 213.507812 205.597656 215.582031 202.496094 C 217.652344 199.398438 219.796875 196.347656 222.019531 193.355469 C 224.238281 190.359375 226.535156 187.421875 228.898438 184.539062 C 231.265625 181.65625 233.699219 178.835938 236.203125 176.074219 C 238.707031 173.308594 241.277344 170.609375 243.914062 167.976562 C 246.546875 165.339844 249.246094 162.769531 252.011719 160.265625 C 254.773438 157.761719 257.59375 155.328125 260.476562 152.960938 C 263.359375 150.597656 266.296875 148.304688 269.292969 146.082031 C 272.285156 143.859375 275.335938 141.714844 278.433594 139.644531 C 281.535156 137.570312 284.683594 135.578125 287.882812 133.660156 C 291.078125 131.746094 294.320312 129.90625 297.609375 128.148438 C 300.898438 126.390625 304.226562 124.714844 307.597656 123.121094 C 310.96875 121.527344 314.375 120.019531 317.820312 118.589844 C 321.265625 117.164062 324.742188 115.824219 328.253906 114.566406 C 331.761719 113.3125 335.300781 112.140625 338.871094 111.058594 C 342.4375 109.976562 346.03125 108.984375 349.644531 108.078125 C 353.261719 107.171875 356.898438 106.355469 360.554688 105.628906 C 364.210938 104.898438 367.886719 104.261719 371.574219 103.714844 C 375.261719 103.167969 378.960938 102.710938 382.671875 102.347656 C 386.378906 101.980469 390.097656 101.707031 393.820312 101.523438 C 397.546875 101.339844 401.273438 101.25 405 101.25 C 408.726562 101.25 412.453125 101.339844 416.179688 101.523438 C 419.902344 101.707031 423.617188 101.980469 427.328125 102.347656 C 431.039062 102.710938 434.738281 103.167969 438.425781 103.714844 C 442.113281 104.261719 445.789062 104.898438 449.445312 105.628906 C 453.101562 106.355469 456.738281 107.171875 460.355469 108.078125 C 463.96875 108.984375 467.5625 109.976562 471.128906 111.058594 C 474.699219 112.140625 478.238281 113.3125 481.746094 114.566406 C 485.257812 115.824219 488.734375 117.164062 492.179688 118.589844 C 495.625 120.019531 499.03125 121.527344 502.402344 123.121094 C 505.773438 124.714844 509.101562 126.390625 512.390625 128.148438 C 515.679688 129.90625 518.921875 131.746094 522.117188 133.660156 C 525.316406 135.578125 528.464844 137.570312 531.566406 139.644531 C 534.664062 141.714844 537.714844 143.859375 540.707031 146.082031 C 543.703125 148.304688 546.640625 150.597656 549.523438 152.960938 C 552.40625 155.328125 555.226562 157.761719 557.988281 160.265625 C 560.753906 162.769531 563.453125 165.339844 566.085938 167.976562 C 568.722656 170.609375 571.292969 173.308594 573.796875 176.074219 C 576.300781 178.835938 578.734375 181.65625 581.101562 184.539062 C 583.464844 187.421875 585.757812 190.359375 587.980469 193.355469 C 590.203125 196.347656 592.347656 199.398438 594.417969 202.496094 C 596.492188 205.597656 598.484375 208.746094 600.402344 211.945312 C 602.316406 215.140625 604.15625 218.382812 605.914062 221.671875 C 607.671875 224.960938 609.347656 228.289062 610.941406 231.660156 C 612.535156 235.03125 614.042969 238.4375 615.472656 241.882812 C 616.898438 245.328125 618.238281 248.804688 619.496094 252.316406 C 620.75 255.824219 621.921875 259.363281 623.003906 262.933594 C 624.085938 266.5 625.078125 270.09375 625.984375 273.707031 C 626.890625 277.324219 627.707031 280.960938 628.433594 284.617188 C 629.164062 288.273438 629.800781 291.949219 630.347656 295.636719 C 630.894531 299.324219 631.351562 303.023438 631.714844 306.734375 C 632.082031 310.441406 632.355469 314.160156 632.539062 317.882812 C 632.722656 321.609375 632.8125 325.335938 632.8125 329.0625 C 632.8125 510.140625 457.300781 661.289062 405 702.421875 Z M 405 702.421875 " fill-opacity="1" fill-rule="nonzero"/></svg>